<?xml version="1.0" encoding="utf-8"?>
<!-- Generator: Adobe Illustrator 19.0.0, SVG Export Plug-In . SVG Version: 6.00 Build 0)  -->
<svg version="1.1" id="Layer_1" xmlns="http://www.w3.org/2000/svg" xmlns:xlink="http://www.w3.org/1999/xlink" x="0px" y="0px"
	 viewBox="0 0 20 20" style="enable-background:new 0 0 20 20;" xml:space="preserve">
<style type="text/css">
	.st0{fill:#FFD400;}
	.st1{fill:#A38400;}
	.st2{fill:none;stroke:#A38400;stroke-width:0.8;stroke-miterlimit:10;}
</style>
<g id="XMLID_30_">
	<g id="XMLID_24_">
		<g id="XMLID_20_">
			<path id="XMLID_68_" class="st0" d="M10,19.5c-5.2,0-9.5-4.3-9.5-9.5S4.8,0.5,10,0.5s9.5,4.3,9.5,9.5S15.2,19.5,10,19.5z"/>
			<path id="XMLID_65_" class="st1" d="M10,1c5,0,9,4,9,9s-4,9-9,9s-9-4-9-9S5,1,10,1 M10,0C4.5,0,0,4.5,0,10s4.5,10,10,10
				s10-4.5,10-10S15.5,0,10,0L10,0z"/>
		</g>
		<line id="XMLID_23_" class="st2" x1="0.6" y1="10" x2="19.3" y2="10"/>
		<line id="XMLID_27_" class="st2" x1="0.9" y1="13" x2="19" y2="13"/>
		<line id="XMLID_28_" class="st2" x1="2.7" y1="16" x2="17.4" y2="16"/>
		<line id="XMLID_25_" class="st2" x1="0.9" y1="7" x2="19" y2="7"/>
		<line id="XMLID_26_" class="st2" x1="2.7" y1="4" x2="17.4" y2="4"/>
	</g>
	<line id="XMLID_29_" class="st2" x1="10" y1="19.4" x2="10" y2="0.8"/>
	<line id="XMLID_34_" class="st2" x1="13" y1="19.2" x2="13" y2="1"/>
	<line id="XMLID_57_" class="st2" x1="16" y1="17.4" x2="16" y2="2.6"/>
	<line id="XMLID_32_" class="st2" x1="7" y1="19.2" x2="7" y2="1"/>
	<line id="XMLID_33_" class="st2" x1="4" y1="17.4" x2="4" y2="2.6"/>
</g>
</svg>
