<?xml version="1.0" encoding="utf-8"?>
<!-- Generator: Adobe Illustrator 19.0.0, SVG Export Plug-In . SVG Version: 6.00 Build 0)  -->
<svg version="1.1" id="Layer_1" xmlns="http://www.w3.org/2000/svg" xmlns:xlink="http://www.w3.org/1999/xlink" x="0px" y="0px"
	 viewBox="0 0 164 54" style="enable-background:new 0 0 164 54;" xml:space="preserve">
<style type="text/css">
	.st0{enable-background:new    ;}
	.st1{fill:#020202;}
	.st2{fill:none;stroke:#020202;stroke-width:6;stroke-linecap:round;stroke-linejoin:round;stroke-miterlimit:10;}
</style>
<g id="XMLID_2_">
	<g class="st0">
		<path class="st1" d="M65.6,38.8c-1.7,0-3.4-0.3-4.8-0.8c-1.5-0.5-2.7-1.3-3.8-2.3c-1.1-1-1.9-2.3-2.5-3.8
			c-0.6-1.5-0.9-3.3-0.9-5.3c0-1.9,0.3-3.5,0.8-5.1c0.6-1.5,1.4-2.8,2.4-3.9c1-1,2.3-1.8,3.8-2.4c1.5-0.6,3.2-0.9,4.9-0.9
			c1,0,1.9,0.1,2.7,0.2s1.5,0.3,2.2,0.4c0.7,0.2,1.3,0.4,1.9,0.7c0.6,0.2,1.1,0.5,1.5,0.7v5.7h-0.7c-0.3-0.3-0.7-0.5-1.1-0.9
			s-1-0.7-1.5-1c-0.6-0.3-1.2-0.6-1.9-0.8c-0.7-0.2-1.4-0.3-2.2-0.3c-0.9,0-1.7,0.1-2.4,0.4c-0.8,0.3-1.5,0.7-2.1,1.3
			c-0.6,0.6-1.1,1.4-1.5,2.4c-0.4,1-0.6,2.2-0.6,3.6c0,1.5,0.2,2.7,0.6,3.7c0.4,1,0.9,1.8,1.6,2.3c0.6,0.6,1.4,1,2.1,1.2
			s1.6,0.4,2.3,0.4c0.7,0,1.5-0.1,2.2-0.3c0.7-0.2,1.4-0.5,2-0.9c0.5-0.3,1-0.6,1.4-1c0.4-0.3,0.8-0.6,1.1-0.9h0.6v5.6
			c-0.6,0.3-1.1,0.5-1.7,0.7c-0.5,0.2-1.1,0.4-1.7,0.6c-0.8,0.2-1.5,0.4-2.2,0.5C67.7,38.8,66.8,38.8,65.6,38.8z"/>
		<path class="st1" d="M95.7,38.4H90v-2c-1,0.8-2,1.4-2.9,1.8s-1.9,0.6-3.1,0.6c-2,0-3.5-0.6-4.5-1.7c-1.1-1.1-1.6-2.8-1.6-5V20.7
			h5.7v8.8c0,0.9,0,1.6,0.1,2.2c0.1,0.6,0.2,1.1,0.4,1.5c0.2,0.4,0.5,0.7,0.9,0.9s1,0.3,1.7,0.3c0.5,0,1-0.1,1.6-0.3
			s1.2-0.4,1.7-0.8V20.7h5.7V38.4z"/>
		<path class="st1" d="M119.5,29.3c0,2.8-0.8,5.1-2.3,6.8c-1.5,1.8-3.5,2.6-5.8,2.6c-1,0-1.9-0.1-2.6-0.3c-0.7-0.2-1.5-0.5-2.1-0.9
			l-0.2,0.9H101V13.8h5.7v8.7c0.9-0.7,1.8-1.3,2.7-1.7s2-0.6,3.1-0.6c2.2,0,4,0.8,5.2,2.4S119.5,26.4,119.5,29.3z M113.7,29.4
			c0-1.6-0.3-2.8-0.8-3.6s-1.5-1.3-2.9-1.3c-0.5,0-1.1,0.1-1.7,0.2s-1.1,0.4-1.6,0.7v8.9c0.4,0.1,0.8,0.2,1.2,0.3
			c0.4,0.1,0.8,0.1,1.3,0.1c1.5,0,2.6-0.4,3.3-1.3S113.7,31.1,113.7,29.4z"/>
		<path class="st1" d="M141,30.6h-13c0.1,1.4,0.6,2.4,1.6,3.2s2.4,1.1,4.3,1.1c1.2,0,2.4-0.2,3.5-0.6s2-0.9,2.7-1.4h0.6v4.6
			c-1.3,0.5-2.5,0.9-3.6,1.1c-1.1,0.2-2.4,0.3-3.8,0.3c-3.5,0-6.3-0.8-8.2-2.4c-1.9-1.6-2.8-3.9-2.8-6.8c0-2.9,0.9-5.2,2.7-6.9
			c1.8-1.7,4.2-2.6,7.4-2.6c2.9,0,5,0.7,6.5,2.2c1.4,1.5,2.2,3.5,2.2,6.3V30.6z M135.4,27.2c0-1.2-0.3-2.1-0.9-2.7s-1.4-0.9-2.6-0.9
			c-1.1,0-2,0.3-2.7,0.9c-0.7,0.6-1.1,1.5-1.2,2.7H135.4z"/>
		<path class="st1" d="M162.2,38.4h-5.7v-1.8c-1,0.8-1.9,1.4-2.7,1.8s-1.8,0.6-2.9,0.6c-2.1,0-3.9-0.8-5.2-2.5
			c-1.3-1.7-1.9-3.9-1.9-6.7c0-1.5,0.2-2.8,0.7-4c0.4-1.2,1-2.2,1.8-3c0.7-0.8,1.6-1.4,2.6-1.8c1-0.4,2-0.7,3.1-0.7
			c1.1,0,1.9,0.1,2.6,0.3c0.7,0.2,1.4,0.5,2.1,0.9v-7.5h5.7V38.4z M156.5,33.5v-8.7c-0.4-0.2-0.8-0.3-1.3-0.4
			c-0.4-0.1-0.8-0.1-1.2-0.1c-1.5,0-2.6,0.5-3.3,1.4c-0.7,0.9-1.1,2.2-1.1,3.9c0,1.7,0.3,3,0.9,3.8c0.6,0.8,1.6,1.2,2.9,1.2
			c0.5,0,1.1-0.1,1.6-0.3C155.6,34.1,156.1,33.8,156.5,33.5z"/>
	</g>
	<g id="XMLID_3_">
		<g id="XMLID_5_">
			<g id="XMLID_6_">
				<path id="XMLID_7_" class="st1" d="M36.5,37.5h-6.1l-1.6-4.7h-8.5l-1.6,4.7h-6l8.5-23H28L36.5,37.5z M27.3,28.6l-2.8-8.3
					l-2.8,8.3C21.7,28.6,27.3,28.6,27.3,28.6z"/>
			</g>
		</g>
		<polygon id="XMLID_4_" class="st2" points="44,38.2 24.6,49.5 5.1,38.2 5.1,15.8 24.6,4.5 44,15.8 		"/>
	</g>
</g>
</svg>
