<svg id="레이어_1" data-name="레이어 1" xmlns="http://www.w3.org/2000/svg" viewBox="0 0 115 39.97"><defs><style>.cls-1{fill:#040000;}</style></defs><title>BI-mccPlus-black</title><path class="cls-1" d="M13,9.58L20.3,32.31,27.57,9.58H37.93V42.24H30V34.62L30.8,19,22.9,42.24H17.7L9.78,19l0.76,15.63v7.63H2.67V9.58H13Z" transform="translate(-2.67 -2.72)"/><path class="cls-1" d="M68.2,31.18a11.92,11.92,0,0,1-1.84,6,11.1,11.1,0,0,1-4.72,4,16.06,16.06,0,0,1-6.94,1.44q-6.44,0-10.14-4.19t-3.7-11.84V25a19.76,19.76,0,0,1,1.67-8.4,12.66,12.66,0,0,1,4.81-5.56,13.42,13.42,0,0,1,7.27-2q5.94,0,9.56,3.13a12.36,12.36,0,0,1,4.1,8.62H60.42a5.85,5.85,0,0,0-1.5-4.28,6.18,6.18,0,0,0-4.31-1.3,4.7,4.7,0,0,0-4.31,2.2q-1.37,2.2-1.44,7v2.31q0,5.23,1.31,7.47a4.8,4.8,0,0,0,4.52,2.24,6,6,0,0,0,4.15-1.28,5.43,5.43,0,0,0,1.53-4.06H68.2Z" transform="translate(-2.67 -2.72)"/><path class="cls-1" d="M97.2,31.18a11.92,11.92,0,0,1-1.84,6,11.1,11.1,0,0,1-4.72,4,16.06,16.06,0,0,1-6.94,1.44q-6.44,0-10.14-4.19t-3.7-11.84V25a19.76,19.76,0,0,1,1.67-8.4,12.66,12.66,0,0,1,4.81-5.56,13.42,13.42,0,0,1,7.27-2q5.94,0,9.56,3.13a12.36,12.36,0,0,1,4.1,8.62H89.42a5.85,5.85,0,0,0-1.5-4.28,6.18,6.18,0,0,0-4.31-1.3,4.7,4.7,0,0,0-4.31,2.2q-1.37,2.2-1.44,7v2.31q0,5.23,1.31,7.47a4.8,4.8,0,0,0,4.52,2.24,6,6,0,0,0,4.15-1.28,5.43,5.43,0,0,0,1.53-4.06H97.2Z" transform="translate(-2.67 -2.72)"/><path class="cls-1" d="M110.25,10.63h7.42V15h-7.42v8.46h-4.61V15H98.18V10.63h7.46V2.72h4.61v7.91Z" transform="translate(-2.67 -2.72)"/></svg>