<?xml version="1.0" encoding="utf-8"?>
<!-- Generator: Adobe Illustrator 21.0.0, SVG Export Plug-In . SVG Version: 6.00 Build 0)  -->
<svg version="1.1" id="Layer_1" xmlns="http://www.w3.org/2000/svg" xmlns:xlink="http://www.w3.org/1999/xlink" x="0px" y="0px"
	 viewBox="0 0 22 22" style="enable-background:new 0 0 22 22;" xml:space="preserve">
<style type="text/css">
	.st0{fill:#AEAEAE;}
	.st1{fill:#FFFFFF;}
</style>
<path class="st0" d="M8.4,16.4c0-1,0-2,0-3c0-0.5-0.1-0.8-0.5-1.2c-1.7-1.9-3.5-3.8-5.2-5.7c-0.3-0.3-0.5-0.7-0.7-1
	c-0.3-0.5-0.2-0.9,0-1.4c0.3-0.5,0.7-0.8,1.2-1.1C4.2,2.6,5.1,2.3,6,2.1c1.9-0.4,3.8-0.5,5.8-0.4c1.5,0.1,3,0.2,4.5,0.6
	c0.9,0.2,1.8,0.5,2.6,1c0.4,0.2,0.7,0.5,0.9,0.9c0.4,0.5,0.4,1.1,0,1.6c-0.5,0.7-1,1.3-1.6,1.9c-1.4,1.6-2.9,3.1-4.3,4.7
	c-0.3,0.3-0.4,0.6-0.4,1c0,0.9,0,1.8,0,2.7c0,0.3-0.1,0.6-0.4,0.8c-1.3,1.1-2.6,2.2-3.9,3.3c-0.4,0.4-0.9,0.2-0.9-0.4
	c0-0.1,0-0.3,0-0.4C8.4,18.4,8.4,17.4,8.4,16.4C8.4,16.4,8.4,16.4,8.4,16.4z M11.4,6.9c0.4,0,1.2-0.1,1.9-0.1c1-0.1,2.1-0.3,3.1-0.6
	c0.5-0.2,1-0.3,1.3-0.7c0.4-0.4,0.4-0.8,0-1.1C17.6,4.1,17.3,4,17,3.8c-1.3-0.6-2.8-0.8-4.2-0.9c-1.2-0.1-2.3-0.1-3.5,0
	C8.2,3,7.1,3.2,6.1,3.5C5.6,3.6,5.2,3.8,4.7,4C4.6,4.1,4.5,4.2,4.4,4.3c-0.5,0.4-0.5,0.9,0,1.3c0.5,0.4,1.2,0.6,1.8,0.8
	C7.8,6.7,9.4,6.8,11.4,6.9z"/>
<path class="st1" d="M11.4,6.9c-2,0-3.7-0.1-5.3-0.6C5.5,6.1,4.9,5.9,4.4,5.5c-0.5-0.4-0.5-0.9,0-1.3C4.5,4.2,4.6,4.1,4.7,4
	c0.4-0.2,0.9-0.4,1.3-0.5C7.1,3.2,8.2,3,9.3,3c1.2-0.1,2.3-0.1,3.5,0c1.4,0.1,2.9,0.3,4.2,0.9c0.3,0.1,0.5,0.3,0.8,0.5
	c0.4,0.3,0.4,0.8,0,1.1c-0.4,0.4-0.9,0.5-1.3,0.7c-1,0.3-2,0.5-3.1,0.6C12.6,6.8,11.8,6.8,11.4,6.9z"/>
</svg>
