<?xml version="1.0" encoding="utf-8"?>
<!-- Generator: Adobe Illustrator 21.0.1, SVG Export Plug-In . SVG Version: 6.00 Build 0)  -->
<svg version="1.1" id="레이어_1" xmlns="http://www.w3.org/2000/svg" xmlns:xlink="http://www.w3.org/1999/xlink" x="0px"
	 y="0px" viewBox="0 0 60 60" style="enable-background:new 0 0 60 60;" xml:space="preserve">
<style type="text/css">
	.st0{fill:#FFFFFF;stroke:#CCCCCC;stroke-linecap:round;stroke-linejoin:round;stroke-miterlimit:10;}
	.st1{fill:#FFFFFF;stroke:#CCCCCC;stroke-linejoin:round;stroke-miterlimit:10;}
	.st2{fill:#F2F2F2;stroke:#CCCCCC;stroke-linejoin:round;stroke-miterlimit:10;}
	.st3{fill:#FFFFFF;stroke:#2D7EE0;stroke-linecap:round;stroke-linejoin:round;stroke-miterlimit:10;}
	.st4{fill:none;stroke:#2D7EE0;stroke-linecap:round;stroke-linejoin:round;stroke-miterlimit:10;}
	.st5{fill:#2D7EE0;}
</style>
<path class="st0" d="M27.4,45.7c0.2,0-0.2,2.9-0.2,3.1c-0.4,1.5-1.5,2.8-3,2.8c-1,0-2.9-0.4-2.3,1.5c0,0,16.4,0,16.5,0
	c0.2,0-0.1-1-0.1-1.1c-0.6-0.9-2.5,0-3.2-0.4C34,51,33.4,50.2,33.1,49c-0.1-0.3-0.4-3.3-0.2-3.3C32.9,45.7,27.4,45.7,27.4,45.7z"/>
<path class="st1" d="M8.9,30.3l2.3-2.2l2.1,2.4l2.1-2.4l2.1,2.4l2.1-2.4l2.1,2.4l2.8-2.4l2.1,2.4l2.8-2.4l2.1,2.4l2.1-2.4l2.1,2.4
	l2.1-2.4l2.1,2.4l2.4-2.4l2.5,2.4l2.7-2.4l2.2,2.4l2.1-2.4l2.4,2V14.2c0-0.8-0.6-1.5-1.4-1.5H8c-0.8,0-1.4,0.7-1.4,1.5v14.3
	L8.9,30.3z"/>
<path class="st1" d="M51.8,31.2l-2,2.4l-2.4-2.4l-2.6,2.4l-2.5-2.4l-2.4,2.4l-2.1-2.4l-2.1,2.4l-2.1-2.4l-2.1,2.4l-2.1-2.4l-2.8,2.4
	l-2.2-2.4l-2.5,2.4l-2.1-2.4l-2.1,2.4l-2.1-2.4l-2.1,2.4L11,31.2l-2.1,2.4l-2.4-2.1v12.7c0,0.8,0.6,1.5,1.4,1.5h44.9
	c0.8,0,1.4-0.7,1.4-1.5v-11L51.8,31.2z"/>
<path class="st2" d="M11.2,28.1l2.1,2.4l2.1-2.4l2.1,2.4l2.1-2.4l2.1,2.4l2.8-2.4l2.1,2.4l2.8-2.4l2.1,2.4l2.1-2.4l2.1,2.4l2.1-2.4
	l2.1,2.4l2.4-2.4l2.5,2.4l2.7-2.4l2.2,2.4l2.1-2.4V16.6c0-0.8-0.6-1.5-1.4-1.5H10.5c-0.8,0-1.4,0.7-1.4,1.5v13.3L11.2,28.1z"/>
<path class="st2" d="M49.8,33.6l-2.4-2.4l-2.6,2.4l-2.5-2.4l-2.4,2.4l-2.1-2.4l-2.1,2.4l-2.1-2.4l-2.1,2.4l-2.1-2.4l-2.8,2.4
	l-2.2-2.4l-2.5,2.4l-2.1-2.4l-2.1,2.4l-2.1-2.4l-2.1,2.4L11,31.2l-2.1,2.4l0,0v5.5c0,0.8,0.6,1.5,1.4,1.5h40.1
	c0.8,0,1.4-0.7,1.4-1.5v-7.9L49.8,33.6z"/>
<g>
	<path class="st3" d="M38.1,5.6h-14c-1.3,0-2.4,1.1-2.4,2.4v9.6c0,1.3,1.1,2.4,2.4,2.4h5.2l1.6,2.4l1.6-2.4h5.7
		c1.3,0,2.4-1.1,2.4-2.4V8C40.5,6.7,39.4,5.6,38.1,5.6z"/>
	<path class="st4" d="M28,16.1c0,0,2.6-3.5,6.2,0"/>
	<g>
		<circle class="st5" cx="28.3" cy="11.2" r="0.7"/>
		<circle class="st5" cx="33.9" cy="11.2" r="0.7"/>
	</g>
</g>
</svg>
