<?xml version="1.0" encoding="utf-8"?>
<!-- Generator: Adobe Illustrator 21.0.1, SVG Export Plug-In . SVG Version: 6.00 Build 0)  -->
<svg version="1.1" id="레이어_1" xmlns="http://www.w3.org/2000/svg" xmlns:xlink="http://www.w3.org/1999/xlink" x="0px"
	 y="0px" viewBox="0 0 60 60" style="enable-background:new 0 0 60 60;" xml:space="preserve">
<style type="text/css">
	.st0{fill:#F2F2F2;}
	.st1{fill:#E6E6E6;stroke:#CCCCCC;stroke-linejoin:round;stroke-miterlimit:10;}
	.st2{fill:#FFFFFF;stroke:#CCCCCC;stroke-linejoin:round;stroke-miterlimit:10;}
	.st3{fill:#FFFFFF;stroke:#2D7EE0;stroke-linejoin:round;stroke-miterlimit:10;}
	.st4{fill:none;stroke:#2D7EE0;stroke-linecap:round;stroke-linejoin:round;stroke-miterlimit:10;}
	.st5{fill:#2D7EE0;}
</style>
<g>
	<polygon class="st0" points="30,15.2 30,45.3 49.5,39.8 49.6,22.5 	"/>
	<path class="st1" d="M29.7,31.4L30,53.8c0,0.4,0.5,0.7,0.8,0.5l18.7-9.6V22.6L29.7,31.4z"/>
	<path class="st2" d="M29.7,31.4L30,53.8c0,0.4-0.5,0.7-0.9,0.5l-18.5-9.6V22.6L29.7,31.4z"/>
	<polygon class="st2" points="49.3,22.8 55.4,16.7 36.8,9.2 30,15 	"/>
	<polygon class="st2" points="29.7,31.4 49.3,22.8 55.4,28.4 36.2,38.1 	"/>
	<polygon class="st2" points="10.8,22.8 4.6,29 23.1,38.1 30,31.1 	"/>
	<polygon class="st2" points="3.4,16.7 10.8,22.8 30,15 23,9.4 	"/>
	<path class="st1" d="M29.7,15.1v16l-18.8-8.2c-0.1,0-0.1-0.1,0-0.1L29.5,15C29.6,14.9,29.7,15,29.7,15.1z"/>
</g>
<g>
	<path class="st3" d="M36.2,5.2H22.6c-1.3,0-2.4,1.1-2.4,2.4v9.4c0,1.3,1.1,2.4,2.4,2.4h5.1l1.5,2.4l1.5-2.4h5.5
		c1.3,0,2.4-1.1,2.4-2.4V7.5C38.6,6.2,37.5,5.2,36.2,5.2z"/>
	<path class="st4" d="M26.4,15.4c0,0,2.6-3.4,6,0"/>
	<g>
		<circle class="st5" cx="26.7" cy="10.7" r="0.7"/>
		<circle class="st5" cx="32.2" cy="10.7" r="0.7"/>
	</g>
</g>
</svg>
