<?xml version="1.0" encoding="utf-8"?>
<!-- Generator: Adobe Illustrator 21.0.1, SVG Export Plug-In . SVG Version: 6.00 Build 0)  -->
<svg version="1.1" id="레이어_1" xmlns="http://www.w3.org/2000/svg" xmlns:xlink="http://www.w3.org/1999/xlink" x="0px"
	 y="0px" viewBox="0 0 60 60" style="enable-background:new 0 0 60 60;" xml:space="preserve">
<style type="text/css">
	.st0{fill:#F2F2F2;stroke:#CCCCCC;stroke-linecap:round;stroke-linejoin:round;stroke-miterlimit:10;}
	.st1{fill:none;stroke:#CCCCCC;stroke-linecap:round;stroke-linejoin:round;stroke-miterlimit:10;}
	.st2{fill:#CCCCCC;}
</style>
<g>
	<path class="st0" d="M39.1,42.6c4.3-0.5,7.6-4.2,7.6-8.6c0-4.8-3.9-8.7-8.7-8.7c-0.2,0-0.4,0-0.6,0c-1.3-3.8-5-6.6-9.2-6.6
		c-5.4,0-9.8,4.4-9.8,9.8c0,0.5,0,1,0.1,1.4c-2.6,0.9-4.5,3.3-4.5,6.2c0,3.6,2.9,6.5,6.5,6.5h1.1L39.1,42.6z"/>
	<g>
		<path class="st1" d="M49.1,15.4c-0.5-0.7-1.1-1.4-1.8-2c-9.4-9.4-24.6-9.5-34-0.2c-9.4,9.4-9.5,24.6-0.2,34
			c9.4,9.4,24.6,9.5,34,0.2c5.9-5.8,8.4-14.5,7-22"/>
		<polyline class="st1" points="39.1,17.8 49.1,15.4 46.7,5.2 		"/>
	</g>
	<g>
		<path class="st1" d="M34.2,34.9c0,0-3.3,4.4-7.8,0"/>
		<g>
			<circle class="st2" cx="26.8" cy="30.8" r="0.9"/>
			<circle class="st2" cx="33.9" cy="30.8" r="0.9"/>
		</g>
	</g>
</g>
</svg>
