<?xml version="1.0" encoding="utf-8"?>
<!-- Generator: Adobe Illustrator 21.0.2, SVG Export Plug-In . SVG Version: 6.00 Build 0)  -->
<svg version="1.1" id="레이어_1" xmlns="http://www.w3.org/2000/svg" xmlns:xlink="http://www.w3.org/1999/xlink" x="0px"
	 y="0px" viewBox="0 0 14 16.8" style="enable-background:new 0 0 14 16.8;" xml:space="preserve">
<style type="text/css">
	.st0{fill:#A3A3A3;}
</style>
<title>login-password</title>
<g id="레이어_2">
	<g id="Icons_-_24px">
		<path class="st0" d="M11.9,16.8H2.1c-1.2,0-2.1-0.9-2.1-2.1v-7c0-1.2,0.9-2.1,2.1-2.1h9.8c1.2,0,2.1,0.9,2.1,2.1v7
			C14,15.9,13.1,16.8,11.9,16.8z M2.1,7C1.7,7,1.4,7.3,1.4,7.7v7c0,0.4,0.3,0.7,0.7,0.7h9.8c0.4,0,0.7-0.3,0.7-0.7v-7
			c0-0.4-0.3-0.7-0.7-0.7H2.1z"/>
		<circle class="st0" cx="7" cy="9.8" r="1.4"/>
		<path class="st0" d="M7,13.3c-0.4,0-0.7-0.3-0.7-0.7v-2.1c0-0.4,0.3-0.7,0.7-0.7s0.7,0.3,0.7,0.7v2.1C7.7,13,7.4,13.3,7,13.3z"/>
		<path class="st0" d="M10.5,6.7c-0.4,0-0.7-0.3-0.7-0.7V4.2c0-0.4,0.3-0.7,0.7-0.7s0.7,0.3,0.7,0.7V6C11.2,6.4,10.9,6.7,10.5,6.7z"
			/>
		<path class="st0" d="M3.5,6.9c-0.4,0-0.7-0.3-0.7-0.7v-2c0-0.4,0.3-0.7,0.7-0.7s0.7,0.3,0.7,0.7v2C4.2,6.6,3.9,6.9,3.5,6.9z"/>
		<path class="st0" d="M10.5,4.9c-0.4,0-0.7-0.3-0.7-0.7c0-1.5-1.3-2.8-2.8-2.8S4.2,2.7,4.2,4.2c0,0.4-0.3,0.7-0.7,0.7
			S2.8,4.6,2.8,4.2C2.8,1.9,4.7,0,7,0s4.2,1.9,4.2,4.2C11.2,4.6,10.9,4.9,10.5,4.9z"/>
	</g>
</g>
</svg>
