<svg xmlns="http://www.w3.org/2000/svg" xmlns:xlink="http://www.w3.org/1999/xlink" viewBox="0 0 580.19 527.97"><defs><style>.cls-1,.cls-11,.cls-13,.cls-18,.cls-2,.cls-23,.cls-25,.cls-26{fill:#fff;}.cls-1,.cls-10,.cls-12,.cls-13,.cls-14,.cls-15,.cls-2,.cls-20{stroke:#415b91;}.cls-1,.cls-10,.cls-12,.cls-15,.cls-17,.cls-2,.cls-20,.cls-7{stroke-linecap:round;}.cls-1,.cls-10,.cls-12,.cls-15,.cls-17,.cls-2,.cls-20{stroke-linejoin:round;}.cls-1,.cls-10,.cls-12,.cls-13,.cls-14,.cls-17,.cls-2,.cls-20,.cls-23,.cls-25,.cls-26{stroke-width:2px;}.cls-1,.cls-18,.cls-20,.cls-23,.cls-24{opacity:0.5;}.cls-3{isolation:isolate;}.cls-4{opacity:0.4;}.cls-5{opacity:0.51;}.cls-14,.cls-6{fill:#eff4fe;}.cls-10,.cls-17,.cls-20,.cls-27,.cls-7,.cls-8{fill:none;}.cls-7,.cls-8{stroke:#dce7f7;stroke-width:4px;}.cls-13,.cls-14,.cls-23,.cls-25,.cls-26,.cls-27,.cls-7,.cls-8{stroke-miterlimit:10;}.cls-8{opacity:0.52;}.cls-9{fill:#415b91;}.cls-12,.cls-15,.cls-16{fill:#579eff;}.cls-17,.cls-27{stroke:#bdccd4;}.cls-19{clip-path:url(#clip-path);}.cls-21{clip-path:url(#clip-path-2);}.cls-22{mix-blend-mode:multiply;}.cls-23,.cls-25,.cls-26{stroke:#b5ceea;}.cls-26{opacity:0.8;}.cls-27{stroke-width:0.25px;}</style><clipPath id="clip-path"><ellipse class="cls-1" cx="558.64" cy="315.06" rx="20.54" ry="22.13"/></clipPath><clipPath id="clip-path-2"><circle class="cls-2" cx="538.77" cy="333.83" r="26.15"/></clipPath></defs><title>login-image</title><g class="cls-3"><g id="레이어_2" data-name="레이어 2"><g id="레이어_1-2" data-name="레이어 1"><g class="cls-4"><g class="cls-5"><path class="cls-6" d="M288.94,69.07q-32.49,18.61-63.67,39.39c-19.07,12.71-38.61,25.55-55.79,40.77a294.56,294.56,0,0,0-34,36.05c-11.26,14-22.87,28.65-30.48,45.07-5.28,11.39-9.44,22-9.89,34.72a50.5,50.5,0,0,0,2.19,16.49c3.12,10.12,9.28,18.87,18.48,24.25,10.66,6.24,20.64,5.64,32,3.29l-10,1.34c44.7.44,87.87-16.7,126.09-38.61,27.73-15.89,52.75-35.5,79.09-53.46a356.25,356.25,0,0,1,59.6-32.67l-9,3.78c16.24-6.85,33.06-12,50.55-14.52l-10,1.34,1.75-.23-32.38-56.43a279.39,279.39,0,0,1-21.88,32.95l5.86-7.59c-22.41,28.9-49.43,53.59-76.75,77.71q-39,34.45-80.17,66.35l7.59-5.86c-25.88,20-52.35,39.14-79,58-8.14,5.76-14.51,12.5-17.23,22.41-2.47,9-1.36,20.93,3.78,28.9s12.85,15.06,22.41,17.23c9.35,2.13,20.75,2,28.9-3.78,39.4-27.89,78.29-56.53,115.77-87,35.64-28.94,71.36-58.91,103-92.25,19.91-21,38.31-44,52.51-69.28a38,38,0,0,0,0-37.85c-6-10.27-19.76-20.22-32.38-18.57-13.3,1.74-26.29,3.74-39.14,7.63-12.09,3.66-23.78,8.55-35.33,13.65a382.79,382.79,0,0,0-51.69,28.16c-22.64,14.53-43.55,31.58-66.29,46a368.15,368.15,0,0,1-52.37,28.06l9-3.78c-16.59,7-33.83,12.33-51.7,14.76l10-1.34c-10.49,1.33-22.64-.18-32.63,3.13l10-1.34-1-.07,26.52,11-.81-.75,9.64,16.55a19.09,19.09,0,0,1-1.22-4.48l1.34,10a21.82,21.82,0,0,1,.06-4.48l-1.34,10a47.37,47.37,0,0,1,3.47-11.79l-3.78,9c5.51-12.81,13.65-24.44,22.11-35.46L184.83,243c13.51-17.42,28.7-34.11,46.09-47.74l-7.59,5.86c32.45-25,67.93-46.93,103.46-67.28,17-9.75,24.36-34.39,13.45-51.31-11.09-17.2-33.09-23.89-51.31-13.45Z"/></g><g class="cls-5"><path class="cls-6" d="M450.2,447.33a439,439,0,0,1,32-46.84l-5.86,7.59c14-18.07,28.77-35.49,43-53.33,8.66-10.83,17.2-21.78,25.36-33,9.35-12.86,17.49-29,15.78-45.37-1-9.75-3.38-19.53-11-26.52-6.86-6.3-16.83-12.05-26.52-11-12.24,1.35-24,3.13-35.48,7.65a200.77,200.77,0,0,0-31.27,15.59c-14.26,8.7-29.67,15.59-43.47,25-16,10.94-28.68,24.65-42,38.43a287.09,287.09,0,0,1-30.87,27l7.59-5.86c-11.06,8.51-22.6,17.34-35.49,22.9l9-3.78c-.94.38-1.88.74-2.84,1.08l46.13,26.19a29.54,29.54,0,0,1-1-4.13l1.34,10a32.68,32.68,0,0,1-.05-7.71l-1.34,10a54.43,54.43,0,0,1,3.62-13l-3.78,9c4.63-11,11.35-20.87,18.34-30.43,7.2-9.85,14.46-19.71,21.91-29.38L397.4,345c27.81-35.8,60.53-67.28,93.19-98.57,14.19-13.6,14.71-39.53,0-53-15.23-14-37.89-14.51-53,0-26.05,25-52.16,50-75.77,77.32-12.52,14.5-24,29.81-35.42,45.14-8.06,10.78-16.4,21.42-23,33.17-10.67,18.95-18.51,42.4-11.41,64,2.9,8.84,8.73,17.92,17.23,22.41s19.4,7.1,28.9,3.78C362,430.92,382,414.6,401.48,398.91A252.21,252.21,0,0,0,425.35,377c8.9-9.27,17.5-19.09,27.59-27.1l-7.59,5.86c10.37-7.94,22-13.82,33.44-20,12.09-6.55,23.41-14.51,36-20l-9,3.78A99.55,99.55,0,0,1,529.52,313l-10,1.34q1.74-.24,3.49-.42l-37.5-37.5a27.73,27.73,0,0,1,.09,4.88l1.34-10a32.41,32.41,0,0,1-2.2,7.85l3.78-9c-4.62,9.91-12.06,18.61-18.69,27.23l5.86-7.59c-30.54,39.48-65.08,76.32-90.29,119.65-9.87,17-4.47,41.84,13.45,51.31s40.77,4.66,51.31-13.45Z"/></g></g><path class="cls-7" d="M239.47,17.38A242.92,242.92,0,0,1,298.54,7.21"/><path class="cls-7" d="M110.79,105.09a245,245,0,0,1,34.66-36"/><path class="cls-7" d="M59.1,222q.28-1.69.59-3.37a244.71,244.71,0,0,1,10.4-38.76A242,242,0,0,1,80.66,155"/><path class="cls-8" d="M66.73,262.45"/><path class="cls-7" d="M72.09,347.77a242.13,242.13,0,0,1-14.26-62"/><path class="cls-7" d="M207.43,495.53a243.83,243.83,0,0,1-74.75-49.32q-1.3-1.25-2.58-2.52"/><path class="cls-7" d="M394.88,500.86A243,243,0,0,1,310.24,516q-7.65,0-15.19-.47"/><path class="cls-7" d="M547.45,375.64a244.33,244.33,0,0,1-56.48,75q-1.83,1.64-3.69,3.25"/><path class="cls-7" d="M564.1,227.24a243.87,243.87,0,0,1,1.18,51.51"/><path class="cls-7" d="M493.68,83.55l2.06,2a244.69,244.69,0,0,1,32.61,40"/><path class="cls-7" d="M349.66,6.61q3.89.68,7.74,1.49c8.79,1.84,47.2,14.78,57.33,19.77"/><circle class="cls-9" cx="445.48" cy="445.02" r="3.9" transform="translate(-1.32 1.32) rotate(-0.17)"/><line class="cls-10" x1="445.49" y1="448.27" x2="445.53" y2="459.97"/><line class="cls-10" x1="434.1" y1="438.56" x2="434.16" y2="460.65"/><line class="cls-10" x1="423.73" y1="448.99" x2="423.77" y2="460.68"/><circle class="cls-9" cx="445.31" cy="515.19" r="3.9" transform="translate(-1.52 1.32) rotate(-0.17)"/><line class="cls-10" x1="445.33" y1="511.94" x2="445.3" y2="500.25"/><line class="cls-10" x1="434.34" y1="521.72" x2="434.28" y2="499.63"/><line class="cls-10" x1="423.92" y1="511.36" x2="423.88" y2="499.66"/><circle class="cls-9" cx="399.59" cy="469.36" r="3.9" transform="translate(-1.39 1.19) rotate(-0.17)"/><line class="cls-10" x1="402.84" y1="469.35" x2="414.53" y2="469.32"/><line class="cls-10" x1="392.64" y1="480.26" x2="415.22" y2="480.68"/><line class="cls-10" x1="403.55" y1="491.11" x2="415.25" y2="491.08"/><circle class="cls-9" cx="473.98" cy="469.14" r="3.9" transform="translate(-1.39 1.41) rotate(-0.17)"/><line class="cls-10" x1="470.73" y1="469.15" x2="459.04" y2="469.19"/><line class="cls-10" x1="475.8" y1="480.5" x2="458.42" y2="480.56"/><line class="cls-10" x1="470.15" y1="490.92" x2="458.45" y2="490.95"/><rect class="cls-11" x="412.97" y="457.59" width="45.1" height="45.1" rx="5" ry="5" transform="translate(-1.42 1.29) rotate(-0.17)"/><rect class="cls-2" x="415.38" y="460" width="40.28" height="40.28" rx="2" ry="2" transform="translate(-1.42 1.29) rotate(-0.17)"/><rect class="cls-12" x="425.06" y="469.68" width="20.92" height="20.92" rx="5" ry="5" transform="translate(-1.42 1.29) rotate(-0.17)"/><line class="cls-2" x1="154.32" y1="375.95" x2="154.32" y2="377.86"/><line class="cls-2" x1="154.32" y1="393.16" x2="154.32" y2="395.07"/><line class="cls-2" x1="154.32" y1="410.37" x2="154.32" y2="412.28"/><rect class="cls-13" x="61.27" y="360.76" width="50.99" height="14.66" rx="2" ry="2"/><circle class="cls-12" cx="68.6" cy="368.09" r="3.51"/><circle class="cls-13" cx="76.56" cy="368.09" r="1.91"/><line class="cls-2" x1="66.37" y1="375.95" x2="66.37" y2="377.86"/><line class="cls-2" x1="105.88" y1="375.95" x2="105.88" y2="377.86"/><rect class="cls-13" x="61.27" y="377.97" width="50.99" height="14.66" rx="2" ry="2"/><circle class="cls-12" cx="68.6" cy="385.3" r="3.51"/><circle class="cls-13" cx="76.56" cy="385.3" r="1.91"/><line class="cls-2" x1="95.68" y1="383.6" x2="107.79" y2="383.6"/><line class="cls-2" x1="95.68" y1="387.42" x2="107.79" y2="387.42"/><line class="cls-2" x1="66.37" y1="393.16" x2="66.37" y2="395.07"/><line class="cls-2" x1="105.88" y1="393.16" x2="105.88" y2="395.07"/><rect class="cls-13" x="61.27" y="395.18" width="50.99" height="14.66" rx="2" ry="2"/><circle class="cls-12" cx="68.6" cy="402.51" r="3.51"/><circle class="cls-13" cx="76.56" cy="402.51" r="1.91"/><line class="cls-2" x1="95.68" y1="400.81" x2="107.79" y2="400.81"/><line class="cls-2" x1="95.68" y1="404.63" x2="107.79" y2="404.63"/><line class="cls-2" x1="66.37" y1="410.37" x2="66.37" y2="412.28"/><line class="cls-2" x1="105.88" y1="410.37" x2="105.88" y2="412.28"/><rect class="cls-13" x="61.27" y="412.39" width="50.99" height="14.66" rx="2" ry="2"/><circle class="cls-12" cx="68.6" cy="419.71" r="3.51"/><circle class="cls-13" cx="76.56" cy="419.71" r="1.91"/><line class="cls-2" x1="95.68" y1="418.01" x2="107.79" y2="418.01"/><line class="cls-2" x1="95.68" y1="421.84" x2="107.79" y2="421.84"/><rect class="cls-2" x="118.63" y="360.76" width="40.79" height="14.66" rx="2" ry="2"/><circle class="cls-12" cx="125.95" cy="368.09" r="3.51"/><circle class="cls-14" cx="133.92" cy="368.09" r="1.91"/><line class="cls-2" x1="123.72" y1="375.95" x2="123.72" y2="377.86"/><rect class="cls-2" x="118.63" y="377.97" width="40.79" height="14.66" rx="2" ry="2"/><circle class="cls-12" cx="125.95" cy="385.3" r="3.51"/><circle class="cls-14" cx="133.92" cy="385.3" r="1.91"/><line class="cls-2" x1="146.16" y1="383.6" x2="155.85" y2="383.6"/><line class="cls-2" x1="146.16" y1="387.42" x2="155.85" y2="387.42"/><line class="cls-2" x1="123.72" y1="393.16" x2="123.72" y2="395.07"/><rect class="cls-2" x="118.63" y="395.18" width="40.79" height="14.66" rx="2" ry="2"/><circle class="cls-12" cx="125.95" cy="402.51" r="3.51"/><circle class="cls-14" cx="133.92" cy="402.51" r="1.91"/><line class="cls-2" x1="146.16" y1="400.81" x2="155.85" y2="400.81"/><line class="cls-2" x1="146.16" y1="404.63" x2="155.85" y2="404.63"/><line class="cls-2" x1="123.72" y1="410.37" x2="123.72" y2="412.28"/><rect class="cls-2" x="118.63" y="412.39" width="40.79" height="14.66" rx="2" ry="2"/><circle class="cls-12" cx="125.95" cy="419.71" r="3.51"/><circle class="cls-14" cx="133.92" cy="419.71" r="1.91"/><line class="cls-2" x1="146.16" y1="418.01" x2="155.85" y2="418.01"/><line class="cls-2" x1="146.16" y1="421.84" x2="155.85" y2="421.84"/><path class="cls-2" d="M217.28,496v29.63a1.3,1.3,0,0,0,1.3,1.3h57.67a1.3,1.3,0,0,0,1.3-1.3V483.6a1.3,1.3,0,0,0-1.3-1.3h-4.49a1.3,1.3,0,0,0-1.3,1.3V502a1.3,1.3,0,0,1-2,1.12l-15.22-9a1.3,1.3,0,0,0-2,1.12v6.85a1.3,1.3,0,0,1-1.93,1.13l-13.86-7.76a1.3,1.3,0,0,0-1.93,1.13v5.31a1.3,1.3,0,0,1-2,1.09l-12.29-8A1.3,1.3,0,0,0,217.28,496Z"/><path class="cls-12" d="M247.13,468.87c-.25-.18-.5.23-.35.57,1.25,2.85,3,5.8,5,7.32,3.61,2.81,8.33,1,12.23,1.17,2.37.1,6.27-.2,8.84,1.5.25.17.49-.27.32-.6a16.79,16.79,0,0,0-1.9-3.19C264.24,467.26,254.75,474.39,247.13,468.87Z"/><rect class="cls-14" x="225.08" y="512.48" width="11.34" height="7.8" rx="2" ry="2"/><rect class="cls-14" x="242.1" y="512.48" width="11.34" height="7.8" rx="2" ry="2"/><rect class="cls-14" x="259.11" y="512.48" width="11.34" height="7.8" rx="2" ry="2"/><rect class="cls-2" x="86.54" y="102.78" width="17.36" height="11.58" rx="2" ry="2" transform="translate(-0.32 0.28) rotate(-0.17)"/><rect class="cls-2" x="61.84" y="133.73" width="17.36" height="11.58" rx="2" ry="2" transform="translate(-0.41 0.21) rotate(-0.17)"/><rect class="cls-2" x="86.63" y="133.65" width="17.36" height="11.58" rx="2" ry="2" transform="translate(-0.41 0.28) rotate(-0.17)"/><rect class="cls-2" x="112" y="133.58" width="17.36" height="11.58" rx="2" ry="2" transform="translate(-0.41 0.36) rotate(-0.17)"/><line class="cls-2" x1="95.24" y1="114.36" x2="95.29" y2="133.18"/><line class="cls-2" x1="120.63" y1="122.97" x2="120.67" y2="133.58"/><line class="cls-2" x1="69.82" y1="123.12" x2="69.85" y2="133.73"/><line class="cls-2" x1="70.02" y1="122.93" x2="120.5" y2="122.79"/><path class="cls-12" d="M502.06,160.58,499.19,159a.18.18,0,0,0-.18,0l-4.75,2.81a.18.18,0,0,1-.25-.24l2.48-4.57a.18.18,0,0,1,.09-.08l3.77-1.5a.18.18,0,0,1,.15,0l2.68,1.45a.18.18,0,0,0,.17,0l6.62-3.59a.18.18,0,0,1,.25.07l.21.39a.18.18,0,0,0,.25.07l3.94-2.14a.18.18,0,0,1,.25.07l1.11,2a.18.18,0,0,1-.07.25L512,156.22a.18.18,0,0,0-.07.25l.21.39a.18.18,0,0,1-.07.25l-6,3.26a.18.18,0,0,0-.1.16v3.62a.18.18,0,0,1-.06.14l-3.11,2.6a.18.18,0,0,1-.12,0l-5.2,0a.18.18,0,0,1-.09-.34l4.72-2.85a.18.18,0,0,0,.09-.16v-2.86A.18.18,0,0,0,502.06,160.58Z"/><path class="cls-14" d="M524.89,206.7l6.46,0-.07-22.61a1.08,1.08,0,0,1,1.07-1.08l31.76-.09A1.08,1.08,0,0,1,565.2,184l.07,22.61,6.46,0a1.08,1.08,0,0,1,1.08,1.07v3.77a1.08,1.08,0,0,1-1.07,1.08l-46.83.14a1.08,1.08,0,0,1-1.08-1.07v-3.77A1.08,1.08,0,0,1,524.89,206.7Z"/><path class="cls-2" d="M515.83,149.37h0c.28-.28,15.32-9.44,15.32-9.44l1.64,8.36S518.4,154,517.74,154a2.69,2.69,0,0,1-1.91-4.6Z"/><ellipse class="cls-15" cx="518.26" cy="151.09" rx="1.18" ry="1.15" transform="translate(-0.43 1.5) rotate(-0.17)"/><path class="cls-2" d="M529,142.63a3.77,3.77,0,0,1,5.83-3.16h0c.28.19,19,16.54,19,16.54l-10.21,4.87s-14-16.21-14.3-16.81A3.74,3.74,0,0,1,529,142.63Z"/><path class="cls-2" d="M540.06,185.12l0-.23a8.36,8.36,0,0,1,.09-.87l3.17-28.11a5.38,5.38,0,0,1,10.52.1H554s2.36,24.27,2.73,28.46v.06c0,.31,0,.51,0,.54h0c0,.09,0,.17,0,.26a8.34,8.34,0,1,1-16.69,0c0-.09,0-.18,0-.27Z"/><circle class="cls-12" cx="548.4" cy="157.25" r="2.91" transform="translate(-0.46 1.62) rotate(-0.17)"/><circle class="cls-12" cx="548.4" cy="186.57" r="4.41" transform="matrix(1, 0, 0, 1, -0.55, 1.63)"/><circle class="cls-15" cx="533.09" cy="142.71" r="1.93" transform="translate(-0.42 1.58) rotate(-0.17)"/><rect class="cls-14" x="198.81" y="11.86" width="12.62" height="55.75" rx="2" ry="2" transform="translate(0.04 -0.21) rotate(0.06)"/><rect class="cls-14" x="178.82" y="29.73" width="12.62" height="37.87" rx="2" ry="2" transform="translate(0.05 -0.19) rotate(0.06)"/><rect class="cls-14" x="158.82" y="43.38" width="12.62" height="24.19" rx="2" ry="2" transform="translate(0.06 -0.17) rotate(0.06)"/><polyline class="cls-10" points="160.43 67.01 181.47 43.68 202.49 53.04 225.86 34.38"/><path class="cls-12" d="M162.1,68.81a3.63,3.63,0,1,1-3.63-3.63A3.62,3.62,0,0,1,162.1,68.81Z"/><path class="cls-12" d="M185.54,43.43a3.63,3.63,0,1,1-3.63-3.63A3.62,3.62,0,0,1,185.54,43.43Z"/><path class="cls-12" d="M206,53.29a3.63,3.63,0,1,1-3.63-3.63A3.62,3.62,0,0,1,206,53.29Z"/><path class="cls-12" d="M231.45,32.59A3.63,3.63,0,1,1,227.82,29,3.62,3.62,0,0,1,231.45,32.59Z"/><path class="cls-16" d="M337.13,32.4"/><line class="cls-14" x1="332.23" y1="8.26" x2="315.35" y2="16.76"/><line class="cls-14" x1="315.66" y1="21.6" x2="332.29" y2="30"/><circle class="cls-12" cx="310.63" cy="19.19" r="4.94" transform="translate(-0.06 0.92) rotate(-0.17)"/><circle class="cls-12" cx="336.95" cy="5.94" r="4.94" transform="translate(-0.02 1) rotate(-0.17)"/><circle class="cls-12" cx="337.02" cy="32.29" r="4.94" transform="translate(-0.09 1) rotate(-0.17)"/><line class="cls-17" x1="279.91" y1="328.18" x2="330.47" y2="328.18"/><path class="cls-2" d="M3.73,255.52a6.53,6.53,0,0,0,2.8.33c1.73-.07,3.46-.06,5.19-.08l9.09-.09,16.88-.19,6.92-.08c1.78,0,3.52-2.45,4.24-4.17,1.44-3.44.9-8.3-1.41-11a6.83,6.83,0,0,0-7-2.26,6.92,6.92,0,0,0-1.47.52c-.21.11-1.28.74-1.22,1.08a14.28,14.28,0,0,0-11.85-12.09c-6.93-1-11.53,4.28-13.14,12,0,.15-.17.24-.29.17a20.67,20.67,0,0,0-2.57-1.07,5.87,5.87,0,0,0-3.5.27c-4.18,1.68-5.82,7.54-5.3,12.34a7.14,7.14,0,0,0,.56,2.2A4,4,0,0,0,3.73,255.52Z"/><path class="cls-14" d="M26.33,274.28a12,12,0,0,0,4.61.53c2.85-.07,5.7,0,8.55,0H93.67c2.93,0,5.84-3.52,7.06-6,2.43-5,1.64-12.11-2.12-16.14a12.12,12.12,0,0,0-11.5-3.42,12.43,12.43,0,0,0-2.43.74c-.36.15-2.12,1.07-2,1.55-1.72-9.92-10.11-16.62-19.29-17.85-11.4-1.53-19.07,6.06-21.87,17.28a.33.33,0,0,1-.47.24,36.53,36.53,0,0,0-4.21-1.61,10.85,10.85,0,0,0-5.78.34c-6.92,2.38-9.73,10.91-9,17.92a9.47,9.47,0,0,0,.88,3.22A6.2,6.2,0,0,0,26.33,274.28Z"/><path class="cls-12" d="M72.83,261.2l-4.95-6.3-5.3-6.74a.72.72,0,0,0-1.13,0l-5.3,6.74-4.95,6.3a.72.72,0,0,0,.56,1.16H57.4V273a1.86,1.86,0,0,0,1.85,1.85h5.56A1.86,1.86,0,0,0,66.66,273V262.36h5.61A.72.72,0,0,0,72.83,261.2Z"/><path class="cls-2" d="M424.45,45.2l-3.85.92L421,50l4,.11a11,11,0,0,0,1.8,3.27l-2.06,3.42,3,2.42,2.92-2.75a11.06,11.06,0,0,0,3.51,1l.89,3.9,3.91-.41.1-4a11.05,11.05,0,0,0,3.28-1.78l3.41,2.07,2.42-3-2.74-2.85a11,11,0,0,0,1.09-3.58l3.85-.9-.41-3.91L446,43a11,11,0,0,0-1.78-3.29l2-3.43-3-2.41-2.9,2.7a11,11,0,0,0-3.52-1l-.91-3.85-3.91.41-.11,4a11.05,11.05,0,0,0-3.25,1.76l-3.43-2-2.41,3,2.71,2.88A11,11,0,0,0,424.45,45.2Z"/><path class="cls-14" d="M452.08,60.14l-5.3.69v5.31l5.32.7a14.83,14.83,0,0,0,2,4.64l-3.24,4.3,3.69,3.66,4.31-3.28A14.93,14.93,0,0,0,463.38,78L464,83.4h5.31L470,78a14.92,14.92,0,0,0,4.65-1.93L479,79.36l3.66-3.69-3.29-4.2a14.84,14.84,0,0,0,2-4.65l5.29-.67V60.84l-5.27-.66a14.84,14.84,0,0,0-1.93-4.66l3.16-4.32-3.69-3.66-4.26,3.22A14.9,14.9,0,0,0,470,48.88l-.68-5.3H464l-.71,5.31a14.92,14.92,0,0,0-4.61,1.91l-4.32-3.18-3.66,3.69L454,55.55A14.82,14.82,0,0,0,452.08,60.14Z"/><circle class="cls-12" cx="466.69" cy="63.49" r="7.5"/><circle class="cls-12" cx="435.47" cy="46.54" r="4.55" transform="translate(-2.48 45.22) rotate(-5.93)"/><path class="cls-2" d="M428.28,82.88l-12.23,8.84a3.08,3.08,0,1,1-3.25-5.24l13.34-7.07"/><path class="cls-2" d="M428.28,82.88a6.89,6.89,0,0,0,8.17.67,6.75,6.75,0,0,0,3.23-5.43l-4,2.4-2.8-1.72a2.24,2.24,0,0,1-1.05-1.7l-.3-3.27,3.91-2.48h0a6.77,6.77,0,0,0-6.3.49,6.9,6.9,0,0,0-3,7.59"/><circle class="cls-11" cx="558.96" cy="314.84" r="20.22"/><ellipse class="cls-18" cx="558.64" cy="315.06" rx="20.54" ry="22.13"/><g class="cls-19"><rect class="cls-6" x="537.81" y="292.62" width="6.94" height="7.48" rx="2" ry="2"/><rect class="cls-6" x="546.49" y="292.62" width="6.94" height="7.48" rx="2" ry="2"/><rect class="cls-6" x="555.17" y="292.62" width="6.94" height="7.48" rx="2" ry="2"/><rect class="cls-6" x="563.85" y="292.62" width="6.94" height="7.48" rx="2" ry="2"/><rect class="cls-6" x="572.53" y="292.62" width="6.94" height="7.48" rx="2" ry="2"/><rect class="cls-6" x="537.81" y="301.97" width="6.94" height="7.48" rx="2" ry="2"/><rect class="cls-6" x="546.49" y="301.97" width="6.94" height="7.48" rx="2" ry="2"/><rect class="cls-6" x="555.17" y="301.97" width="6.94" height="7.48" rx="2" ry="2"/><rect class="cls-6" x="563.85" y="301.97" width="6.94" height="7.48" rx="2" ry="2"/><rect class="cls-6" x="572.53" y="301.97" width="6.94" height="7.48" rx="2" ry="2"/><rect class="cls-6" x="537.81" y="311.32" width="6.94" height="7.48" rx="2" ry="2"/><rect class="cls-6" x="546.49" y="311.32" width="6.94" height="7.48" rx="2" ry="2"/><rect class="cls-6" x="555.17" y="311.32" width="6.94" height="7.48" rx="2" ry="2"/><rect class="cls-6" x="563.85" y="311.32" width="6.94" height="7.48" rx="2" ry="2"/><rect class="cls-6" x="572.53" y="311.32" width="6.94" height="7.48" rx="2" ry="2"/><rect class="cls-6" x="537.81" y="320.66" width="6.94" height="7.48" rx="2" ry="2"/><rect class="cls-6" x="546.49" y="320.66" width="6.94" height="7.48" rx="2" ry="2"/><rect class="cls-6" x="555.17" y="320.66" width="6.94" height="7.48" rx="2" ry="2"/><rect class="cls-6" x="563.85" y="320.66" width="6.94" height="7.48" rx="2" ry="2"/><rect class="cls-6" x="572.53" y="320.66" width="6.94" height="7.48" rx="2" ry="2"/><rect class="cls-6" x="537.81" y="330.01" width="6.94" height="7.48" rx="2" ry="2"/><rect class="cls-6" x="546.49" y="330.01" width="6.94" height="7.48" rx="2" ry="2"/><rect class="cls-6" x="555.17" y="330.01" width="6.94" height="7.48" rx="2" ry="2"/><rect class="cls-6" x="563.85" y="330.01" width="6.94" height="7.48" rx="2" ry="2"/><rect class="cls-6" x="572.53" y="330.01" width="6.94" height="7.48" rx="2" ry="2"/></g><ellipse class="cls-20" cx="558.64" cy="315.06" rx="20.54" ry="22.13"/><circle class="cls-11" cx="537.9" cy="334.22" r="26.96"/><circle class="cls-11" cx="538.77" cy="333.83" r="26.15"/><g class="cls-21"><rect class="cls-16" x="512.25" y="307.31" width="8.84" height="8.84" rx="2" ry="2"/><rect class="cls-16" x="523.3" y="307.31" width="8.84" height="8.84" rx="2" ry="2"/><rect class="cls-16" x="534.35" y="307.31" width="8.84" height="8.84" rx="2" ry="2"/><rect class="cls-16" x="545.4" y="307.31" width="8.84" height="8.84" rx="2" ry="2"/><rect class="cls-16" x="556.44" y="307.31" width="8.84" height="8.84" rx="2" ry="2"/><rect class="cls-16" x="512.25" y="318.36" width="8.84" height="8.84" rx="2" ry="2"/><rect class="cls-16" x="523.3" y="318.36" width="8.84" height="8.84" rx="2" ry="2"/><rect class="cls-16" x="534.35" y="318.36" width="8.84" height="8.84" rx="2" ry="2"/><rect class="cls-16" x="545.4" y="318.36" width="8.84" height="8.84" rx="2" ry="2"/><rect class="cls-16" x="556.44" y="318.36" width="8.84" height="8.84" rx="2" ry="2"/><rect class="cls-16" x="512.25" y="329.41" width="8.84" height="8.84" rx="2" ry="2"/><rect class="cls-16" x="523.3" y="329.41" width="8.84" height="8.84" rx="2" ry="2"/><rect class="cls-16" x="534.35" y="329.41" width="8.84" height="8.84" rx="2" ry="2"/><rect class="cls-16" x="545.4" y="329.41" width="8.84" height="8.84" rx="2" ry="2"/><rect class="cls-16" x="556.44" y="329.41" width="8.84" height="8.84" rx="2" ry="2"/><rect class="cls-16" x="512.25" y="340.46" width="8.84" height="8.84" rx="2" ry="2"/><rect class="cls-16" x="523.3" y="340.46" width="8.84" height="8.84" rx="2" ry="2"/><rect class="cls-16" x="534.35" y="340.46" width="8.84" height="8.84" rx="2" ry="2"/><rect class="cls-16" x="545.4" y="340.46" width="8.84" height="8.84" rx="2" ry="2"/><rect class="cls-16" x="556.44" y="340.46" width="8.84" height="8.84" rx="2" ry="2"/><rect class="cls-16" x="512.25" y="351.51" width="8.84" height="8.84" rx="2" ry="2"/><rect class="cls-16" x="523.3" y="351.51" width="8.84" height="8.84" rx="2" ry="2"/><rect class="cls-16" x="534.35" y="351.51" width="8.84" height="8.84" rx="2" ry="2"/><rect class="cls-16" x="545.4" y="351.51" width="8.84" height="8.84" rx="2" ry="2"/><rect class="cls-16" x="556.44" y="351.51" width="8.84" height="8.84" rx="2" ry="2"/></g><circle class="cls-10" cx="538.77" cy="333.83" r="26.15"/><g class="cls-22"><path class="cls-23" d="M278.71,352.61v33.71l28.65,20.22s2.53,43,0,40.45"/><circle class="cls-23" cx="308.2" cy="447.83" r="2.53"/><polyline class="cls-23" points="253.43 353.45 252.59 397.27 222.25 434.35"/><polyline class="cls-23" points="313.67 352.61 313.67 376.02 326.31 388 326.31 404.85"/><line class="cls-23" x1="396.9" y1="379.74" x2="396.2" y2="415.12"/><polyline class="cls-23" points="372.45 380.1 372.33 407.91 359.86 420.3"/><polyline class="cls-23" points="409.96 380.65 410.2 389.27 415.04 400.32"/><polyline class="cls-23" points="250.39 153.47 250.39 105.45 269.8 89.44 269.8 59.11"/><line class="cls-23" x1="274.43" y1="111.77" x2="274.43" y2="153.47"/><polyline class="cls-23" points="299.83 153.47 300.13 105.45 333 72.59 355.75 73.43"/><polyline class="cls-23" points="324.99 153.47 324.99 118.09 350.69 93.66 387.77 93.66"/><polyline class="cls-23" points="352.38 112.19 370.07 126.52 370.07 153.47"/><polyline class="cls-23" points="109.8 200.2 120.95 222.85 182.15 224.01"/><polyline class="cls-23" points="182.59 238.34 147.53 238.64 135.04 256.44"/><line class="cls-23" x1="128.12" y1="273.35" x2="183.41" y2="272.88"/><line class="cls-23" x1="432.48" y1="257.41" x2="455.23" y2="257.41"/><polyline class="cls-23" points="431.28 231.42 473.77 231.42 488.94 249.12"/><polyline class="cls-23" points="432.48 211.17 481.35 211.2 496.52 196.87"/><polyline class="cls-23" points="431.64 183.39 458.6 183.39 470.4 196.03"/><circle class="cls-23" cx="222.25" cy="434.35" r="2.53"/><circle class="cls-23" cx="326.31" cy="404.85" r="2.53"/><circle class="cls-23" cx="359.86" cy="420.3" r="2.53" transform="translate(-67.45 771.81) rotate(-88.87)"/><circle class="cls-23" cx="396.2" cy="415.12" r="2.53" transform="translate(-26.64 803.07) rotate(-88.87)"/><circle class="cls-23" cx="415.86" cy="401.18" r="2.53" transform="translate(6.57 809.06) rotate(-88.87)"/><circle class="cls-23" cx="457.76" cy="257.54" r="2.53"/><circle class="cls-23" cx="488.94" cy="248.27" r="2.53"/><circle class="cls-23" cx="496.52" cy="196.87" r="2.53"/><circle class="cls-23" cx="470.4" cy="196.03" r="2.53"/><circle class="cls-23" cx="352.38" cy="113.04" r="2.53"/><circle class="cls-23" cx="387.77" cy="93.66" r="2.53"/><circle class="cls-23" cx="354.9" cy="74.28" r="2.53"/><circle class="cls-23" cx="274.85" cy="112.19" r="2.53"/><circle class="cls-23" cx="269.8" cy="59.11" r="2.53"/><g class="cls-24"><polyline class="cls-25" points="119.6 177.09 143.36 196.27 198.67 197.8"/><circle class="cls-26" cx="119.6" cy="177.09" r="2.53" transform="translate(-1.51 1.03) rotate(-0.49)"/></g><circle class="cls-23" cx="109.8" cy="200.2" r="2.53" transform="translate(-1.71 0.95) rotate(-0.49)"/><circle class="cls-23" cx="135.55" cy="255.59" r="2.53" transform="translate(-2.18 1.17) rotate(-0.49)"/><circle class="cls-23" cx="128.12" cy="273.35" r="2.53" transform="translate(-2.33 1.11) rotate(-0.49)"/></g><path class="cls-2" d="M425.49,147.84H177.26A5.29,5.29,0,0,0,172,153.1v170a5.29,5.29,0,0,0,5.28,5.27H276a.25.25,0,0,1,.25.25v14.54a.25.25,0,0,1-.25.25H251.38a2.77,2.77,0,0,0-2.77,2.76v7a2.77,2.77,0,0,0,2.77,2.76h100a2.77,2.77,0,0,0,2.77-2.76v-7a2.77,2.77,0,0,0-2.77-2.76H326.75a.25.25,0,0,1-.25-.25V328.65a.25.25,0,0,1,.25-.25h98.73a5.29,5.29,0,0,0,5.28-5.27v-170A5.29,5.29,0,0,0,425.49,147.84Z"/><rect class="cls-14" x="182.04" y="157.95" width="238.68" height="134.52" rx="2" ry="2"/><rect class="cls-12" x="214.58" y="239.55" width="10.05" height="38.69" rx="2" ry="2"/><rect class="cls-12" x="194.6" y="251.5" width="10.05" height="26.74" rx="2" ry="2"/><rect class="cls-12" x="234.57" y="228.8" width="10.05" height="49.44" rx="2" ry="2"/><rect class="cls-12" x="254.56" y="235.25" width="10.05" height="42.99" rx="2" ry="2"/><rect class="cls-12" x="274.54" y="241.7" width="10.05" height="36.54" rx="2" ry="2"/><rect class="cls-12" x="314.51" y="222.35" width="10.05" height="55.89" rx="2" ry="2"/><rect class="cls-12" x="294.53" y="228.6" width="10.05" height="49.65" rx="2" ry="2"/><rect class="cls-12" x="334.5" y="213.76" width="10.05" height="64.49" rx="2" ry="2"/><line class="cls-10" x1="199.89" y1="239.53" x2="239.49" y2="210.09"/><line class="cls-10" x1="239.49" y1="210.09" x2="279.09" y2="221.87"/><line class="cls-10" x1="279.09" y1="221.87" x2="339.76" y2="190.75"/><path class="cls-12" d="M204.22,239.6a4.19,4.19,0,1,1-4.19-4.17A4.17,4.17,0,0,1,204.22,239.6Z"/><path class="cls-12" d="M243.86,210.36a4.19,4.19,0,1,1-4.19-4.18A4.17,4.17,0,0,1,243.86,210.36Z"/><path class="cls-12" d="M283.5,221.68a4.19,4.19,0,1,1-4.19-4.18A4.17,4.17,0,0,1,283.5,221.68Z"/><path class="cls-12" d="M344,191.1a4.19,4.19,0,1,1-4.19-4.18A4.17,4.17,0,0,1,344,191.1Z"/><ellipse class="cls-9" cx="301.38" cy="315.23" rx="5.06" ry="5.05"/><path class="cls-10" d="M387.44,177.28a20.31,20.31,0,1,1-22.28,22.27"/><path class="cls-12" d="M361,193.43a20.3,20.3,0,0,1,20.3-20.3h0v20.28H361Z"/><path class="cls-10" d="M379.25,273.47a20.31,20.31,0,1,1,22.28-22.27"/><path class="cls-12" d="M405.67,257.32a20.3,20.3,0,0,1-20.3,20.3h0V257.34h20.28Z"/><line class="cls-10" x1="172.27" y1="302.9" x2="430.95" y2="302.9"/><rect class="cls-2" x="340.75" y="272.54" width="146.5" height="109.88" rx="2" ry="2" transform="translate(-0.97 1.23) rotate(-0.17)"/><rect class="cls-14" x="356.25" y="281.28" width="113.82" height="93.54" rx="2" ry="2" transform="translate(-0.97 1.23) rotate(-0.17)"/><circle class="cls-2" cx="381.26" cy="308.13" r="16.06" transform="translate(-0.91 1.13) rotate(-0.17)"/><circle class="cls-2" cx="417.89" cy="308.03" r="16.06" transform="translate(-0.91 1.24) rotate(-0.17)"/><rect class="cls-2" x="364.44" y="331.82" width="20" height="9.02" rx="2" ry="2" transform="translate(-0.99 1.11) rotate(-0.17)"/><rect class="cls-2" x="388.67" y="331.75" width="20" height="9.02" rx="2" ry="2" transform="matrix(1, 0, 0, 1, -0.99, 1.18)"/><rect class="cls-2" x="412.9" y="331.68" width="20" height="9.02" rx="2" ry="2" transform="matrix(1, 0, 0, 1, -0.99, 1.25)"/><rect class="cls-2" x="364.48" y="344.22" width="20" height="9.02" rx="2" ry="2" transform="matrix(1, 0, 0, 1, -1.03, 1.11)"/><rect class="cls-2" x="388.71" y="344.15" width="20" height="9.02" rx="2" ry="2" transform="matrix(1, 0, 0, 1, -1.03, 1.18)"/><rect class="cls-2" x="412.93" y="344.07" width="20" height="9.02" rx="2" ry="2" transform="matrix(1, 0, 0, 1, -1.03, 1.25)"/><rect class="cls-2" x="364.51" y="356.61" width="20" height="9.02" rx="2" ry="2" transform="matrix(1, 0, 0, 1, -1.07, 1.11)"/><rect class="cls-2" x="388.74" y="356.54" width="20" height="9.02" rx="2" ry="2" transform="matrix(1, 0, 0, 1, -1.07, 1.18)"/><rect class="cls-2" x="412.97" y="356.47" width="20" height="9.02" rx="2" ry="2" transform="matrix(1, 0, 0, 1, -1.07, 1.25)"/><rect class="cls-2" x="437.76" y="356.39" width="24.79" height="9.02" rx="2" ry="2" transform="matrix(1, 0, 0, 1, -1.07, 1.33)"/><rect class="cls-12" x="437.71" y="331.6" width="25.07" height="21.69" rx="2" ry="2" transform="translate(-1.01 1.34) rotate(-0.17)"/><circle class="cls-9" cx="381.54" cy="308.42" r="2.54" transform="translate(-0.91 1.13) rotate(-0.17)"/><path class="cls-9" d="M383.73,308.42a.64.64,0,0,1-.42-.15l-1.9-1.66a.64.64,0,0,1,0-1l8.41-7.73a.64.64,0,0,1,1,.83l-.46-.32.46.32-6.52,9.38a.64.64,0,0,1-.44.27Zm-.4-.92h0Z"/><circle class="cls-9" cx="418.17" cy="308.31" r="2.54" transform="translate(-0.91 1.24) rotate(-0.17)"/><path class="cls-9" d="M418.16,310.49a.64.64,0,0,1,.15-.42l1.66-1.9a.64.64,0,0,1,1,0l7.73,8.41a.64.64,0,0,1-.83,1l.32-.46-.32.46L418.43,311a.64.64,0,0,1-.27-.44A.66.66,0,0,1,418.16,310.49Zm.92-.4h0Z"/><path class="cls-2" d="M442.73,423.34c-1.86-2.78-13.47-20.25-14.15-23.24a.79.79,0,0,1,0-.17l-.09-31.1a.84.84,0,0,1,.42-.73c1.47-.85,6.44-2.78,9,7.61a.78.78,0,0,1,0,.09,72.81,72.81,0,0,1,.59,11.1.83.83,0,0,0,.63.87,11.14,11.14,0,0,1,2.52.93.84.84,0,0,0,1.23-.75l-.13-43.28a.81.81,0,0,1,0-.2,5.18,5.18,0,0,1,6.39-3.87s2.44,0,3,3.38a1,1,0,0,1,0,.14l.06,20.58a.84.84,0,0,0,1.3.69,9.26,9.26,0,0,1,1.21-.69,5.34,5.34,0,0,1,5,.4,4.25,4.25,0,0,1,1.47,3.59.84.84,0,0,0,1.34.65,3,3,0,0,1,.4-.26c1.71-.9,4.69-1,6.1.51a5.8,5.8,0,0,1,1.22,3.12.84.84,0,0,0,1.47.41h0c2.3-2.7,7.64-1.21,7.74,2.5,0,0,.56,22.75.07,22.75s-3.27,17.42-6.14,24.71a.84.84,0,0,1-.78.54l-29.15.09A.84.84,0,0,1,442.73,423.34Z"/><path class="cls-27" d="M61.67,218.63"/></g></g></g></svg>