<?xml version="1.0" encoding="utf-8"?>
<!-- Generator: Adobe Illustrator 21.0.2, SVG Export Plug-In . SVG Version: 6.00 Build 0)  -->
<svg version="1.1" id="레이어_1" xmlns="http://www.w3.org/2000/svg" xmlns:xlink="http://www.w3.org/1999/xlink" x="0px"
	 y="0px" viewBox="0 0 21 15.8" style="enable-background:new 0 0 21 15.8;" xml:space="preserve">
<style type="text/css">
	.st0{fill:#A3A3A3;}
</style>
<title>login-id</title>
<g id="레이어_2">
	<g id="Icons_-_24px">
		<path class="st0" d="M18.4,15.8H2.6c-1.4,0-2.6-1.2-2.6-2.6V2.6C0,1.2,1.2,0,2.6,0h15.8C19.8,0,21,1.2,21,2.6v10.5
			C21,14.6,19.8,15.8,18.4,15.8z M2.6,1.8c-0.5,0-0.9,0.4-0.9,0.9v10.5c0,0.5,0.4,0.9,0.9,0.9h15.8c0.5,0,0.9-0.4,0.9-0.9V2.6
			c0-0.5-0.4-0.9-0.9-0.9H2.6z"/>
		<path class="st0" d="M10.5,9.6c-0.2,0-0.4-0.1-0.6-0.2L1,2.2C0.6,1.9,0.5,1.3,0.8,0.9s0.9-0.4,1.2-0.1l0,0l8.4,6.8l8.4-6.8
			c0.4-0.3,0.9-0.2,1.2,0.1c0.3,0.4,0.2,0.9-0.1,1.2l-9,7.3C10.9,9.6,10.7,9.6,10.5,9.6z"/>
	</g>
</g>
</svg>
