<?xml version="1.0" encoding="utf-8"?>
<!-- Generator: Adobe Illustrator 20.0.0, SVG Export Plug-In . SVG Version: 6.00 Build 0)  -->
<svg version="1.1" id="레이어_1" xmlns="http://www.w3.org/2000/svg" xmlns:xlink="http://www.w3.org/1999/xlink" x="0px"
	 y="0px" viewBox="0 0 35 35" style="enable-background:new 0 0 35 35;" xml:space="preserve">
<style type="text/css">
	.st0{fill:none;stroke:#CCCCCC;stroke-miterlimit:10;}
	.st1{fill:#222222;}
</style>
<path class="st0" d="M31.5,34.5h-28c-1.6,0-3-1.3-3-3v-28c0-1.6,1.4-3,3-3h28c1.7,0,3,1.4,3,3v28C34.5,33.2,33.2,34.5,31.5,34.5z"/>
<g>
	<g>
		<path class="st1" d="M26.7,11.9H7.9c-0.3,0-0.5-0.2-0.5-0.5s0.2-0.5,0.5-0.5h18.8c0.3,0,0.5,0.2,0.5,0.5S27,11.9,26.7,11.9z"/>
		<g>
			<path class="st1" d="M27,11.9c-0.1,0-0.3,0-0.4-0.1L23.9,9c-0.2-0.2-0.2-0.5,0-0.7s0.5-0.2,0.7,0l2.7,2.7c0.2,0.2,0.2,0.5,0,0.7
				C27.2,11.9,27.1,11.9,27,11.9z"/>
			<path class="st1" d="M24.2,14.6c-0.1,0-0.3,0-0.4-0.1c-0.2-0.2-0.2-0.5,0-0.7l2.7-2.7c0.2-0.2,0.5-0.2,0.7,0s0.2,0.5,0,0.7
				l-2.7,2.7C24.5,14.6,24.3,14.6,24.2,14.6z"/>
		</g>
		<path class="st1" d="M7.9,14.7c-0.3,0-0.5-0.2-0.5-0.5v-2.8c0-0.3,0.2-0.5,0.5-0.5s0.5,0.2,0.5,0.5v2.8
			C8.4,14.4,8.2,14.7,7.9,14.7z"/>
	</g>
	<g>
		<path class="st1" d="M27,22.9H8.2c-0.3,0-0.5-0.2-0.5-0.5s0.2-0.5,0.5-0.5H27c0.3,0,0.5,0.2,0.5,0.5S27.2,22.9,27,22.9z"/>
		<g>
			<path class="st1" d="M10.7,25.6c-0.1,0-0.3,0-0.4-0.1l-2.7-2.7c-0.2-0.2-0.2-0.5,0-0.7s0.5-0.2,0.7,0l2.7,2.7
				c0.2,0.2,0.2,0.5,0,0.7C10.9,25.6,10.8,25.6,10.7,25.6z"/>
			<path class="st1" d="M7.9,22.9c-0.1,0-0.3,0-0.4-0.1c-0.2-0.2-0.2-0.5,0-0.7l2.7-2.7c0.2-0.2,0.5-0.2,0.7,0s0.2,0.5,0,0.7
				l-2.7,2.7C8.2,22.8,8.1,22.9,7.9,22.9z"/>
		</g>
		<path class="st1" d="M27,22.9c-0.3,0-0.5-0.2-0.5-0.5v-2.8c0-0.3,0.2-0.5,0.5-0.5s0.5,0.2,0.5,0.5v2.8
			C27.5,22.7,27.2,22.9,27,22.9z"/>
	</g>
</g>
</svg>
