<?xml version="1.0" encoding="utf-8"?>
<!-- Generator: Adobe Illustrator 19.0.0, SVG Export Plug-In . SVG Version: 6.00 Build 0)  -->
<svg version="1.1" id="Layer_1" xmlns="http://www.w3.org/2000/svg" xmlns:xlink="http://www.w3.org/1999/xlink" x="0px" y="0px"
	 viewBox="0 0 50 50" style="enable-background:new 0 0 50 50;" xml:space="preserve">
<style type="text/css">
	.st0{display:none;opacity:0.26;}
	.st1{fill:#3D7CFF;}
	.st2{display:none;}
	.st3{fill:none;stroke:#3D7CFF;stroke-width:1.5;stroke-linecap:square;stroke-miterlimit:10;}
	.st4{fill:none;stroke:#3D7CFF;stroke-width:1.5;stroke-miterlimit:10;}
	.st5{clip-path:url(#XMLID_326_);}
	.st6{clip-path:url(#XMLID_327_);}
	.st7{display:none;opacity:0.3;}
	.st8{clip-path:url(#XMLID_328_);}
	.st9{clip-path:url(#XMLID_329_);}
	.st10{clip-path:url(#XMLID_330_);fill:none;stroke:#3D7CFF;stroke-width:1.5;stroke-miterlimit:10;}
	.st11{clip-path:url(#XMLID_331_);}
	.st12{clip-path:url(#XMLID_332_);}
	.st13{clip-path:url(#XMLID_333_);fill:none;stroke:#3D7CFF;stroke-width:1.5;stroke-miterlimit:10;}
</style>
<g id="qTd4Hy.tif" class="st0">
	
		<image style="display:inline;overflow:visible;" width="324" height="350" id="Layer_0_2_" xlink:href="CA83108E90709364.png"  transform="matrix(0.2396 0 0 0.2396 -13.8152 -13.3601)">
	</image>
</g>
<g id="XMLID_13_">
	<g id="XMLID_5_">
		<ellipse id="XMLID_81_" class="st1" cx="-121.5" cy="-44.6" rx="1.5" ry="1.5"/>
		<ellipse id="XMLID_83_" class="st1" cx="-115" cy="-44.6" rx="1.5" ry="1.5"/>
		<ellipse id="XMLID_82_" class="st1" cx="-108.5" cy="-44.6" rx="1.5" ry="1.5"/>
	</g>
	<g id="XMLID_86_">
		<path id="XMLID_167_" class="st1" d="M-95.5-57.7c0.7,0,1.3,0.6,1.3,1.3v23.6c0,0.7-0.6,1.3-1.3,1.3h-16.5h-0.9l-0.4,0.8l-1.1,1.9
			l-0.5,1l-0.5-1l-1.1-1.9l-0.4-0.8h-0.9h-16.5c-0.7,0-1.3-0.6-1.3-1.3v-23.6c0-0.7,0.6-1.3,1.3-1.3H-95.5 M-95.5-59.2h-38.9
			c-1.5,0-2.8,1.3-2.8,2.8v23.6c0,1.5,1.3,2.8,2.8,2.8h16.5l1.1,1.9l1.9,3.3l1.9-3.3l1.1-1.9h16.5c1.5,0,2.8-1.3,2.8-2.8v-23.6
			C-92.8-57.9-94-59.2-95.5-59.2L-95.5-59.2z"/>
	</g>
</g>
<g id="_x38_WJWYe.tif" class="st2">
	
		<image style="display:inline;overflow:visible;" width="141" height="154" id="Layer_0_3_" xlink:href="CA83108E90709365.png"  transform="matrix(0.4683 0 0 0.4683 -145.6643 -9.5)">
	</image>
</g>
<g id="XMLID_138_">
	<g id="XMLID_134_">
		<path id="XMLID_144_" class="st1" d="M-126.7,21.9c2.9,0,5.2,2.3,5.2,5.2c0,2.9-2.3,5.2-5.2,5.2c-2.9,0-5.2-2.3-5.2-5.2
			C-132,24.2-129.6,21.9-126.7,21.9 M-126.7,20.4c-3.7,0-6.7,3-6.7,6.7s3,6.7,6.7,6.7s6.7-3,6.7-6.7S-123,20.4-126.7,20.4
			L-126.7,20.4z"/>
	</g>
	<g id="XMLID_135_">
		<path id="XMLID_130_" class="st1" d="M-105.3,11.1c2.9,0,5.2,2.3,5.2,5.2c0,2.9-2.3,5.2-5.2,5.2c-2.9,0-5.2-2.3-5.2-5.2
			C-110.5,13.5-108.1,11.1-105.3,11.1 M-105.3,9.6c-3.7,0-6.7,3-6.7,6.7s3,6.7,6.7,6.7s6.7-3,6.7-6.7S-101.5,9.6-105.3,9.6
			L-105.3,9.6z"/>
	</g>
	<g id="XMLID_136_">
		<path id="XMLID_107_" class="st1" d="M-105.3,32.6c2.9,0,5.2,2.3,5.2,5.2s-2.3,5.2-5.2,5.2c-2.9,0-5.2-2.3-5.2-5.2
			S-108.1,32.6-105.3,32.6 M-105.3,31.1c-3.7,0-6.7,3-6.7,6.7s3,6.7,6.7,6.7s6.7-3,6.7-6.7S-101.5,31.1-105.3,31.1L-105.3,31.1z"/>
	</g>
	<line id="XMLID_137_" class="st3" x1="-120.7" y1="24.6" x2="-111.3" y2="19.6"/>
	<line id="XMLID_139_" class="st3" x1="-111.3" y1="34.7" x2="-120.7" y2="29.8"/>
</g>
<g id="XMLID_212_">
	<g id="XMLID_9_">
		<line id="XMLID_10_" class="st4" x1="-59.2" y1="9.5" x2="-59.2" y2="15.7"/>
		<line id="XMLID_11_" class="st4" x1="-34.2" y1="9.5" x2="-34.2" y2="15.7"/>
	</g>
	<g id="XMLID_55_">
		<line id="XMLID_14_" class="st4" x1="-61.6" y1="25.1" x2="-32.2" y2="25.1"/>
		<line id="XMLID_49_" class="st4" x1="-61.6" y1="30.4" x2="-42.1" y2="30.4"/>
		<line id="XMLID_54_" class="st4" x1="-61.6" y1="35.7" x2="-42" y2="35.7"/>
	</g>
	<g id="XMLID_12_">
		<defs>
			<polygon id="XMLID_60_" points="-25.8,9.4 -68,9.4 -68,25.6 -68,26.5 -68,42.3 -39.4,42.3 -39.4,26.5 -25.8,26.5 			"/>
		</defs>
		<clipPath id="XMLID_326_">
			<use xlink:href="#XMLID_60_"  style="overflow:visible;"/>
		</clipPath>
		<g id="XMLID_24_" class="st5">
			<g id="XMLID_53_">
				<path id="XMLID_222_" class="st1" d="M-28.8,12.8c0.8,0,1.5,0.7,1.5,1.5v24.4c0,0.8-0.7,1.5-1.5,1.5h-35.8
					c-0.8,0-1.5-0.7-1.5-1.5V14.3c0-0.8,0.7-1.5,1.5-1.5H-28.8 M-28.8,11.3h-35.8c-1.7,0-3,1.3-3,3v24.4c0,1.7,1.3,3,3,3h35.8
					c1.7,0,3-1.3,3-3V14.3C-25.8,12.7-27.2,11.3-28.8,11.3L-28.8,11.3z"/>
			</g>
			<line id="XMLID_25_" class="st4" x1="-66.6" y1="19.7" x2="-27.2" y2="19.7"/>
		</g>
	</g>
	<g id="XMLID_7_">
		<g id="XMLID_8_">
			<path id="XMLID_219_" class="st1" d="M-30.6,29c3.9,0,7,3.2,7,7s-3.2,7-7,7s-7-3.2-7-7S-34.4,29-30.6,29 M-30.6,27.5
				c-4.7,0-8.5,3.8-8.5,8.5s3.8,8.5,8.5,8.5s8.5-3.8,8.5-8.5S-25.8,27.5-30.6,27.5L-30.6,27.5z"/>
		</g>
		<polyline id="XMLID_39_" class="st4" points="-27.4,36.3 -30.6,36.3 -30.6,31.1 		"/>
	</g>
</g>
<g id="XMLID_1_">
	<path id="XMLID_26_" class="st4" d="M-31.4-58.2v-4.2l8.5,6.1l-8.5,6.1v-4.2c-1,0-2.3,0-3.8,0.4c-2.2,0.6-3.8,1.6-4.7,2.3
		c0.3-0.8,1-2.8,3.2-4.5C-34.5-58-32.2-58.2-31.4-58.2z"/>
	<g id="XMLID_45_">
		<defs>
			<polygon id="XMLID_68_" points="-39.5,-51 -39.5,-59.1 -68.3,-59.1 -68.3,-27.1 -65.8,-27.1 -65.8,-26.6 -21.7,-26.6 -21.7,-51 
							"/>
		</defs>
		<clipPath id="XMLID_327_">
			<use xlink:href="#XMLID_68_"  style="overflow:visible;"/>
		</clipPath>
		<g id="XMLID_43_" class="st6">
			<g id="XMLID_44_">
				<line id="XMLID_201_" class="st4" x1="-41" y1="-46.1" x2="-29.8" y2="-46.1"/>
				<line id="XMLID_203_" class="st4" x1="-41" y1="-41.9" x2="-29.8" y2="-41.9"/>
				<line id="XMLID_206_" class="st4" x1="-41" y1="-37.7" x2="-29.8" y2="-37.7"/>
			</g>
			<g id="XMLID_42_">
				<g id="XMLID_143_">
					<path id="XMLID_205_" class="st1" d="M-28.5-56.4c0.8,0,1.5,0.7,1.5,1.5v24c0,0.8-0.7,1.5-1.5,1.5h-35.3
						c-0.8,0-1.5-0.7-1.5-1.5v-24c0-0.8,0.7-1.5,1.5-1.5H-28.5 M-28.5-57.9h-35.3c-1.6,0-3,1.4-3,3v24c0,1.6,1.4,3,3,3h35.3
						c1.6,0,3-1.4,3-3v-24C-25.5-56.5-26.8-57.9-28.5-57.9L-28.5-57.9z"/>
				</g>
				<g id="XMLID_200_">
					<g id="XMLID_204_">
						<path id="XMLID_196_" class="st1" d="M-55.1-48.5v6.3v1.5h1.5h6.3c-0.7,2.9-3.3,5-6.3,5c-3.6,0-6.5-2.9-6.5-6.5
							C-60.1-45.2-58-47.8-55.1-48.5 M-53.6-50.2c-4.4,0-8,3.6-8,8c0,4.4,3.6,8,8,8c4.4,0,8-3.6,8-8h-8V-50.2L-53.6-50.2z"/>
					</g>
					<g id="XMLID_202_">
						<path id="XMLID_190_" class="st1" d="M-50.7-49.9c2.4,0.6,4.3,2.4,4.8,4.8h-4.8L-50.7-49.9 M-52.2-51.6L-52.2-51.6l0,8h8
							C-44.2-48-47.8-51.6-52.2-51.6L-52.2-51.6z"/>
					</g>
				</g>
			</g>
		</g>
	</g>
</g>
<g id="WgYaRZ.tif" class="st2">
	
		<image style="display:inline;overflow:visible;" width="78" height="74" id="Layer_0_4_" xlink:href="CA83108E90709363.png"  transform="matrix(0.8018 0 0 0.8018 -4.1036 -73.8333)">
	</image>
</g>
<g id="LJetvd.tif" class="st2">
	
		<image style="display:inline;overflow:visible;" width="77" height="84" id="Layer_0_5_" xlink:href="CA83108E9070936C.png"  transform="matrix(0.671 0 0 0.671 63.4167 -74.2922)">
	</image>
</g>
<g id="RPXAoi.tif" class="st7">
	
		<image style="display:inline;overflow:visible;" width="87" height="84" id="Layer_0_6_" xlink:href="CA83108E9070936F.png"  transform="matrix(0.6839 0 0 0.6839 -4.75 -73.7241)">
	</image>
</g>
<g id="XMLID_285_">
	<g id="XMLID_36_">
		<g id="XMLID_35_">
			<g id="XMLID_18_">
				<polyline id="XMLID_233_" class="st3" points="6.3,-47.2 2.2,-42.6 6.3,-47.2 				"/>
				<polyline id="XMLID_27_" class="st3" points="6.3,-47.2 10.7,-42.9 6.3,-47.2 				"/>
			</g>
			<g id="XMLID_34_">
				<defs>
					<polygon id="XMLID_33_" points="42.7,-15.9 -1.7,-26.9 3.2,-48 47.6,-36.9 					"/>
				</defs>
				<clipPath id="XMLID_328_">
					<use xlink:href="#XMLID_33_"  style="overflow:visible;"/>
				</clipPath>
				<g id="XMLID_31_" class="st8">
					<defs>
						<polygon id="XMLID_32_" points="44.6,-14.3 -4.9,-26.6 0.8,-51.2 50.3,-38.9 						"/>
					</defs>
					<clipPath id="XMLID_329_">
						<use xlink:href="#XMLID_32_"  style="overflow:visible;"/>
					</clipPath>
					<g id="XMLID_30_" class="st9">
						<defs>
							<polygon id="XMLID_29_" points="45.5,-18.2 -3.1,-30.3 2.1,-52.8 50.7,-40.7 							"/>
						</defs>
						<clipPath id="XMLID_330_">
							<use xlink:href="#XMLID_29_"  style="overflow:visible;"/>
						</clipPath>
						<path id="XMLID_28_" class="st10" d="M6.8-49.7c2.4-10.4,12.5-16.7,22.5-14.2c10,2.5,16.2,12.9,13.8,23.2S30.6-24,20.6-26.5
							S4.4-39.3,6.8-49.7z"/>
					</g>
				</g>
			</g>
		</g>
		<g id="XMLID_37_">
			<g id="XMLID_61_">
				<polyline id="XMLID_63_" class="st3" points="43.7,-42.8 47.8,-47.4 43.7,-42.8 				"/>
				<polyline id="XMLID_62_" class="st3" points="43.7,-42.8 39.3,-47.1 43.7,-42.8 				"/>
			</g>
			<g id="XMLID_40_">
				<defs>
					<polygon id="XMLID_41_" points="7.3,-74.1 51.7,-63.1 46.8,-42 2.4,-53.1 					"/>
				</defs>
				<clipPath id="XMLID_331_">
					<use xlink:href="#XMLID_41_"  style="overflow:visible;"/>
				</clipPath>
				<g id="XMLID_46_" class="st11">
					<defs>
						<polygon id="XMLID_50_" points="5.4,-75.7 54.9,-63.4 49.2,-38.8 -0.3,-51.1 						"/>
					</defs>
					<clipPath id="XMLID_332_">
						<use xlink:href="#XMLID_50_"  style="overflow:visible;"/>
					</clipPath>
					<g id="XMLID_51_" class="st12">
						<defs>
							<polygon id="XMLID_52_" points="4.5,-71.8 53.1,-59.7 47.9,-37.2 -0.7,-49.3 							"/>
						</defs>
						<clipPath id="XMLID_333_">
							<use xlink:href="#XMLID_52_"  style="overflow:visible;"/>
						</clipPath>
						<path id="XMLID_56_" class="st13" d="M43.2-40.3c-2.4,10.4-12.5,16.7-22.5,14.2S4.5-38.9,6.9-49.3S19.4-66,29.4-63.5
							C39.4-61.1,45.6-50.7,43.2-40.3z"/>
					</g>
				</g>
			</g>
		</g>
	</g>
	<g id="XMLID_65_">
		<rect id="XMLID_66_" x="21.4" y="-48.6" class="st4" width="11" height="11"/>
		<polygon id="XMLID_235_" class="st4" points="21.4,-48.6 28.6,-48.6 28.6,-52.4 17.6,-52.4 17.6,-41.4 21.4,-41.4 		"/>
	</g>
</g>
<g id="XMLID_15_">
	<g id="XMLID_21_">
		<line id="XMLID_17_" class="st3" x1="18.7" y1="19.4" x2="18.7" y2="40.8"/>
		<line id="XMLID_19_" class="st3" x1="25" y1="19.4" x2="25" y2="40.8"/>
		<line id="XMLID_22_" class="st3" x1="31.3" y1="19.4" x2="31.3" y2="40.8"/>
	</g>
	<g id="XMLID_16_">
		<path id="XMLID_254_" class="st1" d="M37.7,17.2v24.6c0,0.6-0.6,1-1.3,1H13.5c-0.7,0-1.3-0.5-1.3-1V17.2H37.7 M39.2,15.7H10.8
			v26.1c0,1.4,1.2,2.5,2.8,2.5h22.9c1.5,0,2.8-1.1,2.8-2.5V15.7L39.2,15.7z"/>
	</g>
	<g id="XMLID_20_">
		<path id="XMLID_250_" class="st1" d="M38.7,11.3c0.5,0,0.9,0.4,0.9,0.9v2.5c0,0.5-0.4,0.9-0.9,0.9H11.3c-0.5,0-0.9-0.4-0.9-0.9
			v-2.5c0-0.5,0.4-0.9,0.9-0.9H38.7 M38.7,9.8H11.3c-1.3,0-2.4,1.1-2.4,2.4v2.5c0,1.3,1.1,2.4,2.4,2.4h27.5c1.3,0,2.4-1.1,2.4-2.4
			v-2.5C41.1,10.9,40.1,9.8,38.7,9.8L38.7,9.8z"/>
	</g>
	<g id="XMLID_161_">
		<path id="XMLID_246_" class="st1" d="M27.7,7.6c0.5,0,0.9,0.3,0.9,0.7v1.3h-7.2V8.3c0-0.4,0.4-0.7,0.9-0.7H27.7 M27.7,6.1h-5.4
			c-1.3,0-2.4,1-2.4,2.2v2.8h10.2V8.3C30.1,7.1,29,6.1,27.7,6.1L27.7,6.1z"/>
	</g>
</g>
</svg>
