<?xml version="1.0" encoding="utf-8"?>
<!-- Generator: Adobe Illustrator 21.0.0, SVG Export Plug-In . SVG Version: 6.00 Build 0)  -->
<svg version="1.1" id="Layer_1" xmlns="http://www.w3.org/2000/svg" xmlns:xlink="http://www.w3.org/1999/xlink" x="0px" y="0px"
	 viewBox="0 0 50 50" style="enable-background:new 0 0 50 50;" xml:space="preserve">
<style type="text/css">
	.st0{fill:none;stroke:#231F20;stroke-width:1.5;stroke-linejoin:round;stroke-miterlimit:10;}
	.st1{fill:#231F20;}
	.st2{fill:none;stroke:#231F20;stroke-width:1.5;stroke-linecap:square;stroke-miterlimit:10;}
</style>
<g>
	<g id="XMLID_16_">
		<g id="XMLID_64_">
			<path id="XMLID_59_" class="st0" d="M41.6,35.7"/>
			<path id="XMLID_67_" class="st0" d="M41.6,35.9v1.8c0,1.5-1.2,2.7-2.7,2.7h-32c-1.5,0-2.7-1.2-2.7-2.7V16.1
				c0-1.5,1.2-2.7,2.7-2.7h1.8"/>
		</g>
	</g>
	<g>
		<g id="XMLID_47_">
			<g id="XMLID_57_">
				<g id="XMLID_58_">
					<path class="st1" d="M43,10.5c0.7,0,1.2,0.5,1.2,1.2v21.7c0,0.7-0.5,1.2-1.2,1.2h-1.8H11c-0.7,0-1.2-0.5-1.2-1.2V13.5v-1.8
						c0-0.7,0.5-1.2,1.2-1.2H43 M43,9H11c-1.5,0-2.7,1.2-2.7,2.7v1.8v19.9c0,1.5,1.2,2.7,2.7,2.7h30.2H43c1.5,0,2.7-1.2,2.7-2.7
						V11.7C45.7,10.2,44.5,9,43,9L43,9z"/>
				</g>
			</g>
		</g>
		<g>
			<g id="XMLID_102_">
				<path class="st1" d="M24,18.5c0.5,0,0.9,0.4,0.9,0.9s-0.4,0.9-0.9,0.9s-0.9-0.4-0.9-0.9S23.6,18.5,24,18.5 M24,17
					c-1.3,0-2.4,1.1-2.4,2.4s1.1,2.4,2.4,2.4s2.4-1.1,2.4-2.4S25.4,17,24,17L24,17z"/>
			</g>
			<g id="XMLID_96_">
				<path class="st1" d="M17.7,25c0.5,0,0.9,0.4,0.9,0.9s-0.4,0.9-0.9,0.9s-0.9-0.4-0.9-0.9S17.2,25,17.7,25 M17.7,23.5
					c-1.3,0-2.4,1.1-2.4,2.4s1.1,2.4,2.4,2.4s2.4-1.1,2.4-2.4S19,23.5,17.7,23.5L17.7,23.5z"/>
			</g>
			<line class="st2" x1="22.6" y1="20.9" x2="18.9" y2="24.6"/>
			<line class="st2" x1="25.4" y1="21.2" x2="28.7" y2="24.4"/>
			<g id="XMLID_91_">
				<path class="st1" d="M30,25c0.5,0,0.9,0.4,0.9,0.9s-0.4,0.9-0.9,0.9s-0.9-0.4-0.9-0.9S29.5,25,30,25 M30,23.5
					c-1.3,0-2.4,1.1-2.4,2.4s1.1,2.4,2.4,2.4s2.4-1.1,2.4-2.4S31.3,23.5,30,23.5L30,23.5z"/>
			</g>
			<g id="XMLID_93_">
				<path class="st1" d="M36.3,18.3c0.5,0,0.9,0.4,0.9,0.9S36.8,20,36.3,20s-0.9-0.4-0.9-0.9S35.9,18.3,36.3,18.3 M36.3,16.8
					c-1.3,0-2.4,1.1-2.4,2.4s1.1,2.4,2.4,2.4s2.4-1.1,2.4-2.4S37.7,16.8,36.3,16.8L36.3,16.8z"/>
			</g>
			<line class="st2" x1="34.9" y1="20.6" x2="31.2" y2="24.3"/>
		</g>
	</g>
</g>
</svg>
