<?xml version="1.0" encoding="utf-8"?>
<!-- Generator: Adobe Illustrator 19.0.0, SVG Export Plug-In . SVG Version: 6.00 Build 0)  -->
<svg version="1.1" id="Layer_1" xmlns="http://www.w3.org/2000/svg" xmlns:xlink="http://www.w3.org/1999/xlink" x="0px" y="0px"
	 viewBox="0 0 50 50" style="enable-background:new 0 0 50 50;" xml:space="preserve">
<style type="text/css">
	.st0{display:none;opacity:0.26;}
	.st1{display:none;}
	.st2{fill:none;stroke:#000000;stroke-width:1.5;stroke-linecap:square;stroke-miterlimit:10;}
	.st3{fill:none;stroke:#000000;stroke-width:1.5;stroke-miterlimit:10;}
	.st4{clip-path:url(#XMLID_820_);}
	.st5{clip-path:url(#XMLID_821_);}
	.st6{display:none;opacity:0.3;}
	.st7{clip-path:url(#XMLID_822_);}
	.st8{clip-path:url(#XMLID_823_);}
	.st9{clip-path:url(#XMLID_824_);fill:none;stroke:#000000;stroke-width:1.5;stroke-miterlimit:10;}
	.st10{clip-path:url(#XMLID_825_);}
	.st11{clip-path:url(#XMLID_826_);}
	.st12{clip-path:url(#XMLID_827_);fill:none;stroke:#000000;stroke-width:1.5;stroke-miterlimit:10;}
</style>
<g id="qTd4Hy.tif" class="st0">
	
		<image style="display:inline;overflow:visible;" width="324" height="350" id="Layer_0_1_" xlink:href="69E8C42315254152.png"  transform="matrix(0.2396 0 0 0.2396 56.1848 56.6399)">
	</image>
</g>
<g id="XMLID_13_">
	<g id="XMLID_5_">
		<ellipse id="XMLID_81_" cx="-51.5" cy="25.4" rx="1.5" ry="1.5"/>
		<ellipse id="XMLID_83_" cx="-45" cy="25.4" rx="1.5" ry="1.5"/>
		<ellipse id="XMLID_82_" cx="-38.5" cy="25.4" rx="1.5" ry="1.5"/>
	</g>
	<g id="XMLID_86_">
		<path id="XMLID_710_" d="M-25.5,12.3c0.7,0,1.3,0.6,1.3,1.3v23.6c0,0.7-0.6,1.3-1.3,1.3h-16.5h-0.9l-0.4,0.8l-1.1,1.9l-0.5,1
			l-0.5-1l-1.1-1.9l-0.4-0.8h-0.9h-16.5c-0.7,0-1.3-0.6-1.3-1.3V13.6c0-0.7,0.6-1.3,1.3-1.3H-25.5 M-25.5,10.8h-38.9
			c-1.5,0-2.8,1.3-2.8,2.8v23.6c0,1.5,1.3,2.8,2.8,2.8h16.5l1.1,1.9l1.9,3.3l1.9-3.3l1.1-1.9h16.5c1.5,0,2.8-1.3,2.8-2.8V13.6
			C-22.8,12.1-24,10.8-25.5,10.8L-25.5,10.8z"/>
	</g>
</g>
<g id="_x38_WJWYe.tif" class="st1">
	
		<image style="display:inline;overflow:visible;" width="141" height="154" id="Layer_0_2_" xlink:href="69E8C42315254156.png"  transform="matrix(0.4683 0 0 0.4683 -75.6643 60.5)">
	</image>
</g>
<g id="XMLID_138_">
	<g id="XMLID_134_">
		<path id="XMLID_648_" d="M-56.7,90.9c2.9,0,5.2,2.3,5.2,5.2c0,2.9-2.3,5.2-5.2,5.2c-2.9,0-5.2-2.3-5.2-5.2
			C-62,93.2-59.6,90.9-56.7,90.9 M-56.7,89.4c-3.7,0-6.7,3-6.7,6.7s3,6.7,6.7,6.7c3.7,0,6.7-3,6.7-6.7S-53,89.4-56.7,89.4
			L-56.7,89.4z"/>
	</g>
	<g id="XMLID_135_">
		<path id="XMLID_654_" d="M-35.3,80.1c2.9,0,5.2,2.3,5.2,5.2c0,2.9-2.3,5.2-5.2,5.2c-2.9,0-5.2-2.3-5.2-5.2
			C-40.5,82.5-38.1,80.1-35.3,80.1 M-35.3,78.6c-3.7,0-6.7,3-6.7,6.7s3,6.7,6.7,6.7s6.7-3,6.7-6.7S-31.5,78.6-35.3,78.6L-35.3,78.6z
			"/>
	</g>
	<g id="XMLID_136_">
		<path id="XMLID_657_" d="M-35.3,101.6c2.9,0,5.2,2.3,5.2,5.2s-2.3,5.2-5.2,5.2c-2.9,0-5.2-2.3-5.2-5.2S-38.1,101.6-35.3,101.6
			 M-35.3,100.1c-3.7,0-6.7,3-6.7,6.7s3,6.7,6.7,6.7s6.7-3,6.7-6.7S-31.5,100.1-35.3,100.1L-35.3,100.1z"/>
	</g>
	<line id="XMLID_137_" class="st2" x1="-50.7" y1="93.6" x2="-41.3" y2="88.6"/>
	<line id="XMLID_139_" class="st2" x1="-41.3" y1="103.7" x2="-50.7" y2="98.8"/>
</g>
<g id="XMLID_212_">
	<g id="XMLID_9_">
		<line id="XMLID_10_" class="st3" x1="10.8" y1="79.5" x2="10.8" y2="85.7"/>
		<line id="XMLID_11_" class="st3" x1="35.8" y1="79.5" x2="35.8" y2="85.7"/>
	</g>
	<g id="XMLID_55_">
		<line id="XMLID_14_" class="st3" x1="8.4" y1="95.1" x2="37.8" y2="95.1"/>
		<line id="XMLID_49_" class="st3" x1="8.4" y1="100.4" x2="27.9" y2="100.4"/>
		<line id="XMLID_54_" class="st3" x1="8.4" y1="105.7" x2="28" y2="105.7"/>
	</g>
	<g id="XMLID_12_">
		<defs>
			<polygon id="XMLID_60_" points="44.2,79.4 2,79.4 2,95.6 2,96.5 2,112.3 30.6,112.3 30.6,96.5 44.2,96.5 			"/>
		</defs>
		<clipPath id="XMLID_820_">
			<use xlink:href="#XMLID_60_"  style="overflow:visible;"/>
		</clipPath>
		<g id="XMLID_24_" class="st4">
			<g id="XMLID_53_">
				<path id="XMLID_162_" d="M41.2,82.8c0.8,0,1.5,0.7,1.5,1.5v24.4c0,0.8-0.7,1.5-1.5,1.5H5.4c-0.8,0-1.5-0.7-1.5-1.5V84.3
					c0-0.8,0.7-1.5,1.5-1.5H41.2 M41.2,81.3H5.4c-1.7,0-3,1.3-3,3v24.4c0,1.7,1.3,3,3,3h35.8c1.7,0,3-1.3,3-3V84.3
					C44.2,82.7,42.8,81.3,41.2,81.3L41.2,81.3z"/>
			</g>
			<line id="XMLID_25_" class="st3" x1="3.4" y1="89.7" x2="42.8" y2="89.7"/>
		</g>
	</g>
	<g id="XMLID_1_">
		<g id="XMLID_8_">
			<path id="XMLID_158_" d="M39.4,99c3.9,0,7,3.2,7,7s-3.2,7-7,7s-7-3.2-7-7S35.6,99,39.4,99 M39.4,97.5c-4.7,0-8.5,3.8-8.5,8.5
				s3.8,8.5,8.5,8.5s8.5-3.8,8.5-8.5S44.2,97.5,39.4,97.5L39.4,97.5z"/>
		</g>
		<polyline id="XMLID_39_" class="st3" points="42.6,106.3 39.4,106.3 39.4,101.1 		"/>
	</g>
</g>
<g id="XMLID_338_">
	<path id="XMLID_26_" class="st3" d="M38.6,11.8V7.6l8.5,6.1l-8.5,6.1v-4.2c-1,0-2.3,0-3.8,0.4c-2.2,0.6-3.8,1.6-4.7,2.3
		c0.3-0.8,1-2.8,3.2-4.5C35.5,12,37.8,11.8,38.6,11.8z"/>
	<g id="XMLID_45_">
		<defs>
			<polygon id="XMLID_68_" points="30.5,19 30.5,10.9 1.7,10.9 1.7,42.9 4.2,42.9 4.2,43.4 48.3,43.4 48.3,19 			"/>
		</defs>
		<clipPath id="XMLID_821_">
			<use xlink:href="#XMLID_68_"  style="overflow:visible;"/>
		</clipPath>
		<g id="XMLID_43_" class="st5">
			<g id="XMLID_44_">
				<line id="XMLID_201_" class="st3" x1="29" y1="23.9" x2="40.2" y2="23.9"/>
				<line id="XMLID_203_" class="st3" x1="29" y1="28.1" x2="40.2" y2="28.1"/>
				<line id="XMLID_206_" class="st3" x1="29" y1="32.3" x2="40.2" y2="32.3"/>
			</g>
			<g id="XMLID_42_">
				<g id="XMLID_143_">
					<path id="XMLID_691_" d="M41.5,13.6c0.8,0,1.5,0.7,1.5,1.5v24c0,0.8-0.7,1.5-1.5,1.5H6.3c-0.8,0-1.5-0.7-1.5-1.5v-24
						c0-0.8,0.7-1.5,1.5-1.5H41.5 M41.5,12.1H6.3c-1.6,0-3,1.4-3,3v24c0,1.6,1.4,3,3,3h35.3c1.6,0,3-1.4,3-3v-24
						C44.5,13.5,43.2,12.1,41.5,12.1L41.5,12.1z"/>
				</g>
				<g id="XMLID_200_">
					<g id="XMLID_204_">
						<path id="XMLID_694_" d="M14.9,21.5v6.3v1.5h1.5h6.3c-0.7,2.9-3.3,5-6.3,5c-3.6,0-6.5-2.9-6.5-6.5C9.9,24.8,12,22.2,14.9,21.5
							 M16.4,19.8c-4.4,0-8,3.6-8,8c0,4.4,3.6,8,8,8c4.4,0,8-3.6,8-8h-8V19.8L16.4,19.8z"/>
					</g>
					<g id="XMLID_202_">
						<path id="XMLID_697_" d="M19.3,20.1c2.4,0.6,4.3,2.4,4.8,4.8h-4.8L19.3,20.1 M17.8,18.4L17.8,18.4l0,8h8
							C25.8,22,22.2,18.4,17.8,18.4L17.8,18.4z"/>
					</g>
				</g>
			</g>
		</g>
	</g>
</g>
<g id="WgYaRZ.tif" class="st1">
	
		<image style="display:inline;overflow:visible;" width="78" height="74" id="Layer_0_3_" xlink:href="69E8C42315254151.png"  transform="matrix(0.8018 0 0 0.8018 65.8964 -3.8333)">
	</image>
</g>
<g id="LJetvd.tif" class="st1">
	
		<image style="display:inline;overflow:visible;" width="77" height="84" id="Layer_0_4_" xlink:href="69E8C42315254153.png"  transform="matrix(0.671 0 0 0.671 133.4167 -4.2922)">
	</image>
</g>
<g id="RPXAoi.tif" class="st6">
	
		<image style="display:inline;overflow:visible;" width="87" height="84" id="Layer_0_5_" xlink:href="69E8C42315254150.png"  transform="matrix(0.6839 0 0 0.6839 65.25 -3.7241)">
	</image>
</g>
<g id="XMLID_285_">
	<g id="XMLID_36_">
		<g id="XMLID_35_">
			<g id="XMLID_7_">
				<polyline id="XMLID_233_" class="st2" points="76.3,22.8 72.2,27.4 76.3,22.8 				"/>
				<polyline id="XMLID_27_" class="st2" points="76.3,22.8 80.7,27.1 76.3,22.8 				"/>
			</g>
			<g id="XMLID_34_">
				<defs>
					<polygon id="XMLID_33_" points="112.7,54.1 68.3,43.1 73.2,22 117.6,33.1 					"/>
				</defs>
				<clipPath id="XMLID_822_">
					<use xlink:href="#XMLID_33_"  style="overflow:visible;"/>
				</clipPath>
				<g id="XMLID_31_" class="st7">
					<defs>
						<polygon id="XMLID_32_" points="114.6,55.7 65.1,43.4 70.8,18.8 120.3,31.1 						"/>
					</defs>
					<clipPath id="XMLID_823_">
						<use xlink:href="#XMLID_32_"  style="overflow:visible;"/>
					</clipPath>
					<g id="XMLID_30_" class="st8">
						<defs>
							<polygon id="XMLID_29_" points="115.5,51.8 66.9,39.7 72.1,17.2 120.7,29.3 							"/>
						</defs>
						<clipPath id="XMLID_824_">
							<use xlink:href="#XMLID_29_"  style="overflow:visible;"/>
						</clipPath>
						<path id="XMLID_28_" class="st9" d="M76.8,20.3C79.2,9.9,89.3,3.6,99.3,6.1s16.2,12.9,13.8,23.2
							c-2.4,10.4-12.5,16.7-22.5,14.2S74.4,30.7,76.8,20.3z"/>
					</g>
				</g>
			</g>
		</g>
		<g id="XMLID_37_">
			<g id="XMLID_61_">
				<polyline id="XMLID_63_" class="st2" points="113.7,27.2 117.8,22.6 113.7,27.2 				"/>
				<polyline id="XMLID_62_" class="st2" points="113.7,27.2 109.3,22.9 113.7,27.2 				"/>
			</g>
			<g id="XMLID_40_">
				<defs>
					<polygon id="XMLID_41_" points="77.3,-4.1 121.7,6.9 116.8,28 72.4,16.9 					"/>
				</defs>
				<clipPath id="XMLID_825_">
					<use xlink:href="#XMLID_41_"  style="overflow:visible;"/>
				</clipPath>
				<g id="XMLID_46_" class="st10">
					<defs>
						<polygon id="XMLID_50_" points="75.4,-5.7 124.9,6.6 119.2,31.2 69.7,18.9 						"/>
					</defs>
					<clipPath id="XMLID_826_">
						<use xlink:href="#XMLID_50_"  style="overflow:visible;"/>
					</clipPath>
					<g id="XMLID_51_" class="st11">
						<defs>
							<polygon id="XMLID_52_" points="74.5,-1.8 123.1,10.3 117.9,32.8 69.3,20.7 							"/>
						</defs>
						<clipPath id="XMLID_827_">
							<use xlink:href="#XMLID_52_"  style="overflow:visible;"/>
						</clipPath>
						<path id="XMLID_56_" class="st12" d="M113.2,29.7c-2.4,10.4-12.5,16.7-22.5,14.2S74.5,31.1,76.9,20.7
							C79.3,10.3,89.4,4,99.4,6.5S115.6,19.3,113.2,29.7z"/>
					</g>
				</g>
			</g>
		</g>
	</g>
	<g id="XMLID_65_">
		<rect id="XMLID_66_" x="91.4" y="21.4" class="st3" width="11" height="11"/>
		<polygon id="XMLID_235_" class="st3" points="91.4,21.4 98.6,21.4 98.6,17.6 87.6,17.6 87.6,28.6 91.4,28.6 		"/>
	</g>
</g>
<g id="XMLID_16_">
	<g id="XMLID_21_">
		<line id="XMLID_17_" class="st2" x1="88.7" y1="89.2" x2="88.7" y2="110.6"/>
		<line id="XMLID_19_" class="st2" x1="95" y1="89.2" x2="95" y2="110.6"/>
		<line id="XMLID_22_" class="st2" x1="101.3" y1="89.2" x2="101.3" y2="110.6"/>
	</g>
	<g id="XMLID_18_">
		<path id="XMLID_689_" d="M107.7,87v24.6c0,0.6-0.6,1-1.3,1H83.5c-0.7,0-1.3-0.5-1.3-1V87H107.7 M109.2,85.5H80.8v26.1
			c0,1.4,1.2,2.5,2.8,2.5h22.9c1.5,0,2.8-1.1,2.8-2.5V85.5L109.2,85.5z"/>
	</g>
	<g id="XMLID_15_">
		<path id="XMLID_703_" d="M108.7,81.1c0.5,0,0.9,0.4,0.9,0.9v2.5c0,0.5-0.4,0.9-0.9,0.9H81.3c-0.5,0-0.9-0.4-0.9-0.9V82
			c0-0.5,0.4-0.9,0.9-0.9H108.7 M108.7,79.6H81.3c-1.3,0-2.4,1.1-2.4,2.4v2.5c0,1.3,1.1,2.4,2.4,2.4h27.5c1.3,0,2.4-1.1,2.4-2.4V82
			C111.1,80.7,110.1,79.6,108.7,79.6L108.7,79.6z"/>
	</g>
	<g id="XMLID_161_">
		<path id="XMLID_707_" d="M97.7,77.4c0.5,0,0.9,0.3,0.9,0.7v1.3h-7.2v-1.3c0-0.4,0.4-0.7,0.9-0.7H97.7 M97.7,75.9h-5.4
			c-1.3,0-2.4,1-2.4,2.2v2.8h10.2v-2.8C100.1,76.9,99,75.9,97.7,75.9L97.7,75.9z"/>
	</g>
</g>
</svg>
