<?xml version="1.0" encoding="utf-8"?>
<!-- Generator: Adobe Illustrator 19.0.0, SVG Export Plug-In . SVG Version: 6.00 Build 0)  -->
<svg version="1.1" id="Layer_1" xmlns="http://www.w3.org/2000/svg" xmlns:xlink="http://www.w3.org/1999/xlink" x="0px" y="0px"
	 viewBox="0 0 50 50" style="enable-background:new 0 0 50 50;" xml:space="preserve">
<style type="text/css">
	.st0{display:none;opacity:0.26;}
	.st1{display:none;}
	.st2{fill:none;stroke:#000000;stroke-width:1.5;stroke-linecap:square;stroke-miterlimit:10;}
	.st3{fill:none;stroke:#000000;stroke-width:1.5;stroke-miterlimit:10;}
	.st4{clip-path:url(#XMLID_807_);}
	.st5{clip-path:url(#XMLID_808_);}
	.st6{display:none;opacity:0.3;}
	.st7{clip-path:url(#XMLID_809_);}
	.st8{clip-path:url(#XMLID_810_);}
	.st9{clip-path:url(#XMLID_811_);fill:none;stroke:#000000;stroke-width:1.5;stroke-miterlimit:10;}
	.st10{clip-path:url(#XMLID_812_);}
	.st11{clip-path:url(#XMLID_813_);}
	.st12{clip-path:url(#XMLID_814_);fill:none;stroke:#000000;stroke-width:1.5;stroke-miterlimit:10;}
</style>
<g id="qTd4Hy.tif" class="st0">
	
		<image style="display:inline;overflow:visible;" width="324" height="350" id="Layer_0_1_" xlink:href="85317FB89E1B68B0.png"  transform="matrix(0.2396 0 0 0.2396 126.1848 56.6399)">
	</image>
</g>
<g id="XMLID_13_">
	<g id="XMLID_5_">
		<ellipse id="XMLID_81_" cx="18.5" cy="25.4" rx="1.5" ry="1.5"/>
		<ellipse id="XMLID_83_" cx="25" cy="25.4" rx="1.5" ry="1.5"/>
		<ellipse id="XMLID_82_" cx="31.5" cy="25.4" rx="1.5" ry="1.5"/>
	</g>
	<g id="XMLID_86_">
		<path id="XMLID_710_" d="M44.5,12.3c0.7,0,1.3,0.6,1.3,1.3v23.6c0,0.7-0.6,1.3-1.3,1.3H27.9h-0.9l-0.4,0.8l-1.1,1.9l-0.5,1l-0.5-1
			l-1.1-1.9l-0.4-0.8h-0.9H5.5c-0.7,0-1.3-0.6-1.3-1.3V13.6c0-0.7,0.6-1.3,1.3-1.3H44.5 M44.5,10.8H5.5c-1.5,0-2.8,1.3-2.8,2.8v23.6
			C2.8,38.8,4,40,5.5,40h16.5l1.1,1.9l1.9,3.3l1.9-3.3l1.1-1.9h16.5c1.5,0,2.8-1.3,2.8-2.8V13.6C47.2,12.1,46,10.8,44.5,10.8
			L44.5,10.8z"/>
	</g>
</g>
<g id="_x38_WJWYe.tif" class="st1">
	
		<image style="display:inline;overflow:visible;" width="141" height="154" id="Layer_0_2_" xlink:href="85317FB89E1B68B1.png"  transform="matrix(0.4683 0 0 0.4683 -5.6643 60.5)">
	</image>
</g>
<g id="XMLID_138_">
	<g id="XMLID_134_">
		<path id="XMLID_648_" d="M13.3,90.9c2.9,0,5.2,2.3,5.2,5.2c0,2.9-2.3,5.2-5.2,5.2S8,99,8,96.1C8,93.2,10.4,90.9,13.3,90.9
			 M13.3,89.4c-3.7,0-6.7,3-6.7,6.7s3,6.7,6.7,6.7s6.7-3,6.7-6.7S17,89.4,13.3,89.4L13.3,89.4z"/>
	</g>
	<g id="XMLID_135_">
		<path id="XMLID_654_" d="M34.7,80.1c2.9,0,5.2,2.3,5.2,5.2c0,2.9-2.3,5.2-5.2,5.2c-2.9,0-5.2-2.3-5.2-5.2
			C29.5,82.5,31.9,80.1,34.7,80.1 M34.7,78.6c-3.7,0-6.7,3-6.7,6.7s3,6.7,6.7,6.7s6.7-3,6.7-6.7S38.5,78.6,34.7,78.6L34.7,78.6z"/>
	</g>
	<g id="XMLID_136_">
		<path id="XMLID_657_" d="M34.7,101.6c2.9,0,5.2,2.3,5.2,5.2s-2.3,5.2-5.2,5.2c-2.9,0-5.2-2.3-5.2-5.2S31.9,101.6,34.7,101.6
			 M34.7,100.1c-3.7,0-6.7,3-6.7,6.7s3,6.7,6.7,6.7s6.7-3,6.7-6.7S38.5,100.1,34.7,100.1L34.7,100.1z"/>
	</g>
	<line id="XMLID_137_" class="st2" x1="19.3" y1="93.6" x2="28.7" y2="88.6"/>
	<line id="XMLID_139_" class="st2" x1="28.7" y1="103.7" x2="19.3" y2="98.8"/>
</g>
<g id="XMLID_212_">
	<g id="XMLID_9_">
		<line id="XMLID_10_" class="st3" x1="80.8" y1="79.5" x2="80.8" y2="85.7"/>
		<line id="XMLID_11_" class="st3" x1="105.8" y1="79.5" x2="105.8" y2="85.7"/>
	</g>
	<g id="XMLID_55_">
		<line id="XMLID_14_" class="st3" x1="78.4" y1="95.1" x2="107.8" y2="95.1"/>
		<line id="XMLID_49_" class="st3" x1="78.4" y1="100.4" x2="97.9" y2="100.4"/>
		<line id="XMLID_54_" class="st3" x1="78.4" y1="105.7" x2="98" y2="105.7"/>
	</g>
	<g id="XMLID_12_">
		<defs>
			<polygon id="XMLID_60_" points="114.2,79.4 72,79.4 72,95.6 72,96.5 72,112.3 100.6,112.3 100.6,96.5 114.2,96.5 			"/>
		</defs>
		<clipPath id="XMLID_807_">
			<use xlink:href="#XMLID_60_"  style="overflow:visible;"/>
		</clipPath>
		<g id="XMLID_24_" class="st4">
			<g id="XMLID_53_">
				<path id="XMLID_162_" d="M111.2,82.8c0.8,0,1.5,0.7,1.5,1.5v24.4c0,0.8-0.7,1.5-1.5,1.5H75.4c-0.8,0-1.5-0.7-1.5-1.5V84.3
					c0-0.8,0.7-1.5,1.5-1.5H111.2 M111.2,81.3H75.4c-1.7,0-3,1.3-3,3v24.4c0,1.7,1.3,3,3,3h35.8c1.7,0,3-1.3,3-3V84.3
					C114.2,82.7,112.8,81.3,111.2,81.3L111.2,81.3z"/>
			</g>
			<line id="XMLID_25_" class="st3" x1="73.4" y1="89.7" x2="112.8" y2="89.7"/>
		</g>
	</g>
	<g id="XMLID_1_">
		<g id="XMLID_8_">
			<path id="XMLID_158_" d="M109.4,99c3.9,0,7,3.2,7,7s-3.2,7-7,7s-7-3.2-7-7S105.6,99,109.4,99 M109.4,97.5c-4.7,0-8.5,3.8-8.5,8.5
				s3.8,8.5,8.5,8.5s8.5-3.8,8.5-8.5S114.2,97.5,109.4,97.5L109.4,97.5z"/>
		</g>
		<polyline id="XMLID_39_" class="st3" points="112.6,106.3 109.4,106.3 109.4,101.1 		"/>
	</g>
</g>
<g id="XMLID_338_">
	<path id="XMLID_26_" class="st3" d="M108.6,11.8V7.6l8.5,6.1l-8.5,6.1v-4.2c-1,0-2.3,0-3.8,0.4c-2.2,0.6-3.8,1.6-4.7,2.3
		c0.3-0.8,1-2.8,3.2-4.5C105.5,12,107.8,11.8,108.6,11.8z"/>
	<g id="XMLID_45_">
		<defs>
			<polygon id="XMLID_68_" points="100.5,19 100.5,10.9 71.7,10.9 71.7,42.9 74.2,42.9 74.2,43.4 118.3,43.4 118.3,19 			"/>
		</defs>
		<clipPath id="XMLID_808_">
			<use xlink:href="#XMLID_68_"  style="overflow:visible;"/>
		</clipPath>
		<g id="XMLID_43_" class="st5">
			<g id="XMLID_44_">
				<line id="XMLID_201_" class="st3" x1="99" y1="23.9" x2="110.2" y2="23.9"/>
				<line id="XMLID_203_" class="st3" x1="99" y1="28.1" x2="110.2" y2="28.1"/>
				<line id="XMLID_206_" class="st3" x1="99" y1="32.3" x2="110.2" y2="32.3"/>
			</g>
			<g id="XMLID_42_">
				<g id="XMLID_143_">
					<path id="XMLID_691_" d="M111.5,13.6c0.8,0,1.5,0.7,1.5,1.5v24c0,0.8-0.7,1.5-1.5,1.5H76.3c-0.8,0-1.5-0.7-1.5-1.5v-24
						c0-0.8,0.7-1.5,1.5-1.5H111.5 M111.5,12.1H76.3c-1.6,0-3,1.4-3,3v24c0,1.6,1.4,3,3,3h35.3c1.6,0,3-1.4,3-3v-24
						C114.5,13.5,113.2,12.1,111.5,12.1L111.5,12.1z"/>
				</g>
				<g id="XMLID_200_">
					<g id="XMLID_204_">
						<path id="XMLID_694_" d="M84.9,21.5v6.3v1.5h1.5h6.3c-0.7,2.9-3.3,5-6.3,5c-3.6,0-6.5-2.9-6.5-6.5
							C79.9,24.8,82,22.2,84.9,21.5 M86.4,19.8c-4.4,0-8,3.6-8,8c0,4.4,3.6,8,8,8c4.4,0,8-3.6,8-8h-8V19.8L86.4,19.8z"/>
					</g>
					<g id="XMLID_202_">
						<path id="XMLID_697_" d="M89.3,20.1c2.4,0.6,4.3,2.4,4.8,4.8h-4.8L89.3,20.1 M87.8,18.4L87.8,18.4l0,8h8
							C95.8,22,92.2,18.4,87.8,18.4L87.8,18.4z"/>
					</g>
				</g>
			</g>
		</g>
	</g>
</g>
<g id="WgYaRZ.tif" class="st1">
	
		<image style="display:inline;overflow:visible;" width="78" height="74" id="Layer_0_3_" xlink:href="85317FB89E1B68B7.png"  transform="matrix(0.8018 0 0 0.8018 135.8964 -3.8333)">
	</image>
</g>
<g id="LJetvd.tif" class="st1">
	
		<image style="display:inline;overflow:visible;" width="77" height="84" id="Layer_0_4_" xlink:href="85317FB89E1B68B2.png"  transform="matrix(0.671 0 0 0.671 203.4167 -4.2922)">
	</image>
</g>
<g id="RPXAoi.tif" class="st6">
	
		<image style="display:inline;overflow:visible;" width="87" height="84" id="Layer_0_5_" xlink:href="85317FB89E1B68B3.png"  transform="matrix(0.6839 0 0 0.6839 135.25 -3.7241)">
	</image>
</g>
<g id="XMLID_285_">
	<g id="XMLID_36_">
		<g id="XMLID_35_">
			<g id="XMLID_7_">
				<polyline id="XMLID_233_" class="st2" points="146.3,22.8 142.2,27.4 146.3,22.8 				"/>
				<polyline id="XMLID_27_" class="st2" points="146.3,22.8 150.7,27.1 146.3,22.8 				"/>
			</g>
			<g id="XMLID_34_">
				<defs>
					<polygon id="XMLID_33_" points="182.7,54.1 138.3,43.1 143.2,22 187.6,33.1 					"/>
				</defs>
				<clipPath id="XMLID_809_">
					<use xlink:href="#XMLID_33_"  style="overflow:visible;"/>
				</clipPath>
				<g id="XMLID_31_" class="st7">
					<defs>
						<polygon id="XMLID_32_" points="184.6,55.7 135.1,43.4 140.8,18.8 190.3,31.1 						"/>
					</defs>
					<clipPath id="XMLID_810_">
						<use xlink:href="#XMLID_32_"  style="overflow:visible;"/>
					</clipPath>
					<g id="XMLID_30_" class="st8">
						<defs>
							<polygon id="XMLID_29_" points="185.5,51.8 136.9,39.7 142.1,17.2 190.7,29.3 							"/>
						</defs>
						<clipPath id="XMLID_811_">
							<use xlink:href="#XMLID_29_"  style="overflow:visible;"/>
						</clipPath>
						<path id="XMLID_28_" class="st9" d="M146.8,20.3c2.4-10.4,12.5-16.7,22.5-14.2s16.2,12.9,13.8,23.2S170.6,46,160.6,43.5
							S144.4,30.7,146.8,20.3z"/>
					</g>
				</g>
			</g>
		</g>
		<g id="XMLID_37_">
			<g id="XMLID_61_">
				<polyline id="XMLID_63_" class="st2" points="183.7,27.2 187.8,22.6 183.7,27.2 				"/>
				<polyline id="XMLID_62_" class="st2" points="183.7,27.2 179.3,22.9 183.7,27.2 				"/>
			</g>
			<g id="XMLID_40_">
				<defs>
					<polygon id="XMLID_41_" points="147.3,-4.1 191.7,6.9 186.8,28 142.4,16.9 					"/>
				</defs>
				<clipPath id="XMLID_812_">
					<use xlink:href="#XMLID_41_"  style="overflow:visible;"/>
				</clipPath>
				<g id="XMLID_46_" class="st10">
					<defs>
						<polygon id="XMLID_50_" points="145.4,-5.7 194.9,6.6 189.2,31.2 139.7,18.9 						"/>
					</defs>
					<clipPath id="XMLID_813_">
						<use xlink:href="#XMLID_50_"  style="overflow:visible;"/>
					</clipPath>
					<g id="XMLID_51_" class="st11">
						<defs>
							<polygon id="XMLID_52_" points="144.5,-1.8 193.1,10.3 187.9,32.8 139.3,20.7 							"/>
						</defs>
						<clipPath id="XMLID_814_">
							<use xlink:href="#XMLID_52_"  style="overflow:visible;"/>
						</clipPath>
						<path id="XMLID_56_" class="st12" d="M183.2,29.7c-2.4,10.4-12.5,16.7-22.5,14.2s-16.2-12.9-13.8-23.2S159.4,4,169.4,6.5
							S185.6,19.3,183.2,29.7z"/>
					</g>
				</g>
			</g>
		</g>
	</g>
	<g id="XMLID_65_">
		<rect id="XMLID_66_" x="161.4" y="21.4" class="st3" width="11" height="11"/>
		<polygon id="XMLID_235_" class="st3" points="161.4,21.4 168.6,21.4 168.6,17.6 157.6,17.6 157.6,28.6 161.4,28.6 		"/>
	</g>
</g>
<g id="XMLID_16_">
	<g id="XMLID_21_">
		<line id="XMLID_17_" class="st2" x1="158.7" y1="89.2" x2="158.7" y2="110.6"/>
		<line id="XMLID_19_" class="st2" x1="165" y1="89.2" x2="165" y2="110.6"/>
		<line id="XMLID_22_" class="st2" x1="171.3" y1="89.2" x2="171.3" y2="110.6"/>
	</g>
	<g id="XMLID_18_">
		<path id="XMLID_689_" d="M177.7,87v24.6c0,0.6-0.6,1-1.3,1h-22.9c-0.7,0-1.3-0.5-1.3-1V87H177.7 M179.2,85.5h-28.5v26.1
			c0,1.4,1.2,2.5,2.8,2.5h22.9c1.5,0,2.8-1.1,2.8-2.5V85.5L179.2,85.5z"/>
	</g>
	<g id="XMLID_15_">
		<path id="XMLID_703_" d="M178.7,81.1c0.5,0,0.9,0.4,0.9,0.9v2.5c0,0.5-0.4,0.9-0.9,0.9h-27.5c-0.5,0-0.9-0.4-0.9-0.9V82
			c0-0.5,0.4-0.9,0.9-0.9H178.7 M178.7,79.6h-27.5c-1.3,0-2.4,1.1-2.4,2.4v2.5c0,1.3,1.1,2.4,2.4,2.4h27.5c1.3,0,2.4-1.1,2.4-2.4V82
			C181.1,80.7,180.1,79.6,178.7,79.6L178.7,79.6z"/>
	</g>
	<g id="XMLID_161_">
		<path id="XMLID_707_" d="M167.7,77.4c0.5,0,0.9,0.3,0.9,0.7v1.3h-7.2v-1.3c0-0.4,0.4-0.7,0.9-0.7H167.7 M167.7,75.9h-5.4
			c-1.3,0-2.4,1-2.4,2.2v2.8h10.2v-2.8C170.1,76.9,169,75.9,167.7,75.9L167.7,75.9z"/>
	</g>
</g>
</svg>
