<?xml version="1.0" encoding="utf-8"?>
<!-- Generator: Adobe Illustrator 19.0.0, SVG Export Plug-In . SVG Version: 6.00 Build 0)  -->
<svg version="1.1" id="Layer_1" xmlns="http://www.w3.org/2000/svg" xmlns:xlink="http://www.w3.org/1999/xlink" x="0px" y="0px"
	 viewBox="0 0 50 50" style="enable-background:new 0 0 50 50;" xml:space="preserve">
<style type="text/css">
	.st0{fill:none;stroke:#000000;stroke-width:1.5;stroke-miterlimit:10;}
	.st1{clip-path:url(#XMLID_151_);}
	.st2{fill:#3D7CFF;}
</style>
<g id="XMLID_72_">
	<path id="XMLID_26_" class="st0" d="M-31.4,11.3V7.1l8.5,6.1l-8.5,6.1V15c-1,0-2.3,0-3.8,0.4c-2.2,0.6-3.8,1.6-4.7,2.3
		c0.3-0.8,1-2.8,3.2-4.5C-34.5,11.5-32.2,11.3-31.4,11.3z"/>
	<g id="XMLID_45_">
		<defs>
			<polygon id="XMLID_68_" points="-39.5,18.5 -39.5,10.4 -68.3,10.4 -68.3,42.4 -65.8,42.4 -65.8,42.9 -21.7,42.9 -21.7,18.5 			
				"/>
		</defs>
		<clipPath id="XMLID_151_">
			<use xlink:href="#XMLID_68_"  style="overflow:visible;"/>
		</clipPath>
		<g id="XMLID_43_" class="st1">
			<g id="XMLID_44_">
				<line id="XMLID_201_" class="st0" x1="-41" y1="23.4" x2="-29.8" y2="23.4"/>
				<line id="XMLID_203_" class="st0" x1="-41" y1="27.6" x2="-29.8" y2="27.6"/>
				<line id="XMLID_206_" class="st0" x1="-41" y1="31.8" x2="-29.8" y2="31.8"/>
			</g>
			<g id="XMLID_42_">
				<g id="XMLID_143_">
					<path id="XMLID_22_" d="M-28.5,13.1c0.8,0,1.5,0.7,1.5,1.5v24c0,0.8-0.7,1.5-1.5,1.5h-35.3c-0.8,0-1.5-0.7-1.5-1.5v-24
						c0-0.8,0.7-1.5,1.5-1.5H-28.5 M-28.5,11.6h-35.3c-1.7,0-3,1.4-3,3v24c0,1.6,1.3,3,3,3h35.3c1.7,0,3-1.4,3-3v-24
						C-25.5,13-26.8,11.6-28.5,11.6L-28.5,11.6z"/>
				</g>
				<g id="XMLID_200_">
					<g id="XMLID_204_">
						<path id="XMLID_18_" d="M-55.1,21v6.3v1.5h1.5h6.3c-0.7,2.9-3.3,5-6.3,5c-3.6,0-6.5-2.9-6.5-6.5C-60.1,24.3-58,21.7-55.1,21
							 M-53.6,19.3c-4.4,0-8,3.6-8,8c0,4.4,3.6,8,8,8c4.4,0,8-3.6,8-8h-8V19.3L-53.6,19.3z"/>
					</g>
					<g id="XMLID_202_">
						<path id="XMLID_16_" d="M-50.7,19.6c2.4,0.6,4.3,2.4,4.8,4.8h-4.8L-50.7,19.6 M-52.2,17.9L-52.2,17.9l0,8h8
							C-44.2,21.5-47.8,17.9-52.2,17.9L-52.2,17.9z"/>
					</g>
				</g>
			</g>
		</g>
	</g>
</g>
<g id="XMLID_129_">
	<path id="XMLID_172_" class="st2" d="M26.6,12.1l18,12.9l-18,12.9v-8.1v-1.4l-1.4-0.1c-0.4,0-0.9,0-1.4,0c-3,0-6.1,0.4-9,1.1
		c-3,0.8-5.8,1.9-8.5,3.3c1.2-2.1,3.1-4.4,5.7-6.4c5.1-3.9,10.4-4.6,13.2-4.6l1.5,0v-1.5V12.1 M25.1,9.2v11c-2.1,0.1-8.2,0.5-14,5
		c-5.5,4.2-7.6,9.6-8.3,11.6c2.5-1.8,6.6-4.4,12.3-5.9c3.3-0.8,6.2-1.1,8.6-1.1c0.5,0,0.9,0,1.4,0v11L47.2,25L25.1,9.2L25.1,9.2z"/>
</g>
</svg>
