<?xml version="1.0" encoding="utf-8"?>
<!-- Generator: Adobe Illustrator 19.0.0, SVG Export Plug-In . SVG Version: 6.00 Build 0)  -->
<svg version="1.1" id="Layer_1" xmlns="http://www.w3.org/2000/svg" xmlns:xlink="http://www.w3.org/1999/xlink" x="0px" y="0px"
	 viewBox="0 0 50 50" style="enable-background:new 0 0 50 50;" xml:space="preserve">
<style type="text/css">
	.st0{display:none;opacity:0.26;}
	.st1{display:none;}
	.st2{fill:none;stroke:#000000;stroke-width:1.5;stroke-linecap:square;stroke-miterlimit:10;}
	.st3{fill:none;stroke:#000000;stroke-width:1.5;stroke-miterlimit:10;}
	.st4{clip-path:url(#XMLID_859_);}
	.st5{clip-path:url(#XMLID_860_);}
	.st6{display:none;opacity:0.3;}
	.st7{clip-path:url(#XMLID_861_);}
	.st8{clip-path:url(#XMLID_862_);}
	.st9{clip-path:url(#XMLID_863_);fill:none;stroke:#000000;stroke-width:1.5;stroke-miterlimit:10;}
	.st10{clip-path:url(#XMLID_864_);}
	.st11{clip-path:url(#XMLID_865_);}
	.st12{clip-path:url(#XMLID_866_);fill:none;stroke:#000000;stroke-width:1.5;stroke-miterlimit:10;}
</style>
<g id="qTd4Hy.tif" class="st0">
	
		<image style="display:inline;overflow:visible;" width="324" height="350" id="Layer_0_1_" xlink:href="E40CED472C3142BB.png"  transform="matrix(0.2396 0 0 0.2396 56.1848 -13.3601)">
	</image>
</g>
<g id="XMLID_13_">
	<g id="XMLID_5_">
		<ellipse id="XMLID_81_" cx="-51.5" cy="-44.6" rx="1.5" ry="1.5"/>
		<ellipse id="XMLID_83_" cx="-45" cy="-44.6" rx="1.5" ry="1.5"/>
		<ellipse id="XMLID_82_" cx="-38.5" cy="-44.6" rx="1.5" ry="1.5"/>
	</g>
	<g id="XMLID_86_">
		<path id="XMLID_710_" d="M-25.5-57.7c0.7,0,1.3,0.6,1.3,1.3v23.6c0,0.7-0.6,1.3-1.3,1.3h-16.5h-0.9l-0.4,0.8l-1.1,1.9l-0.5,1
			l-0.5-1l-1.1-1.9l-0.4-0.8h-0.9h-16.5c-0.7,0-1.3-0.6-1.3-1.3v-23.6c0-0.7,0.6-1.3,1.3-1.3H-25.5 M-25.5-59.2h-38.9
			c-1.5,0-2.8,1.3-2.8,2.8v23.6c0,1.5,1.3,2.8,2.8,2.8h16.5l1.1,1.9l1.9,3.3l1.9-3.3l1.1-1.9h16.5c1.5,0,2.8-1.3,2.8-2.8v-23.6
			C-22.8-57.9-24-59.2-25.5-59.2L-25.5-59.2z"/>
	</g>
</g>
<g id="_x38_WJWYe.tif" class="st1">
	
		<image style="display:inline;overflow:visible;" width="141" height="154" id="Layer_0_2_" xlink:href="E40CED472C3142B9.png"  transform="matrix(0.4683 0 0 0.4683 -75.6643 -9.5)">
	</image>
</g>
<g id="XMLID_138_">
	<g id="XMLID_134_">
		<path id="XMLID_648_" d="M-56.7,20.9c2.9,0,5.2,2.3,5.2,5.2c0,2.9-2.3,5.2-5.2,5.2c-2.9,0-5.2-2.3-5.2-5.2
			C-62,23.2-59.6,20.9-56.7,20.9 M-56.7,19.4c-3.7,0-6.7,3-6.7,6.7s3,6.7,6.7,6.7c3.7,0,6.7-3,6.7-6.7S-53,19.4-56.7,19.4
			L-56.7,19.4z"/>
	</g>
	<g id="XMLID_135_">
		<path id="XMLID_654_" d="M-35.3,10.1c2.9,0,5.2,2.3,5.2,5.2c0,2.9-2.3,5.2-5.2,5.2c-2.9,0-5.2-2.3-5.2-5.2
			C-40.5,12.5-38.1,10.1-35.3,10.1 M-35.3,8.6c-3.7,0-6.7,3-6.7,6.7s3,6.7,6.7,6.7s6.7-3,6.7-6.7S-31.5,8.6-35.3,8.6L-35.3,8.6z"/>
	</g>
	<g id="XMLID_136_">
		<path id="XMLID_657_" d="M-35.3,31.6c2.9,0,5.2,2.3,5.2,5.2s-2.3,5.2-5.2,5.2c-2.9,0-5.2-2.3-5.2-5.2S-38.1,31.6-35.3,31.6
			 M-35.3,30.1c-3.7,0-6.7,3-6.7,6.7s3,6.7,6.7,6.7s6.7-3,6.7-6.7S-31.5,30.1-35.3,30.1L-35.3,30.1z"/>
	</g>
	<line id="XMLID_137_" class="st2" x1="-50.7" y1="23.6" x2="-41.3" y2="18.6"/>
	<line id="XMLID_139_" class="st2" x1="-41.3" y1="33.7" x2="-50.7" y2="28.8"/>
</g>
<g id="XMLID_212_">
	<g id="XMLID_9_">
		<line id="XMLID_10_" class="st3" x1="10.8" y1="9.5" x2="10.8" y2="15.7"/>
		<line id="XMLID_11_" class="st3" x1="35.8" y1="9.5" x2="35.8" y2="15.7"/>
	</g>
	<g id="XMLID_55_">
		<line id="XMLID_14_" class="st3" x1="8.4" y1="25.1" x2="37.8" y2="25.1"/>
		<line id="XMLID_49_" class="st3" x1="8.4" y1="30.4" x2="27.9" y2="30.4"/>
		<line id="XMLID_54_" class="st3" x1="8.4" y1="35.7" x2="28" y2="35.7"/>
	</g>
	<g id="XMLID_12_">
		<defs>
			<polygon id="XMLID_60_" points="44.2,9.4 2,9.4 2,25.6 2,26.5 2,42.3 30.6,42.3 30.6,26.5 44.2,26.5 			"/>
		</defs>
		<clipPath id="XMLID_859_">
			<use xlink:href="#XMLID_60_"  style="overflow:visible;"/>
		</clipPath>
		<g id="XMLID_24_" class="st4">
			<g id="XMLID_53_">
				<path id="XMLID_162_" d="M41.2,12.8c0.8,0,1.5,0.7,1.5,1.5v24.4c0,0.8-0.7,1.5-1.5,1.5H5.4c-0.8,0-1.5-0.7-1.5-1.5V14.3
					c0-0.8,0.7-1.5,1.5-1.5H41.2 M41.2,11.3H5.4c-1.7,0-3,1.3-3,3v24.4c0,1.7,1.3,3,3,3h35.8c1.7,0,3-1.3,3-3V14.3
					C44.2,12.7,42.8,11.3,41.2,11.3L41.2,11.3z"/>
			</g>
			<line id="XMLID_25_" class="st3" x1="3.4" y1="19.7" x2="42.8" y2="19.7"/>
		</g>
	</g>
	<g id="XMLID_1_">
		<g id="XMLID_8_">
			<path id="XMLID_158_" d="M39.4,29c3.9,0,7,3.2,7,7s-3.2,7-7,7s-7-3.2-7-7S35.6,29,39.4,29 M39.4,27.5c-4.7,0-8.5,3.8-8.5,8.5
				s3.8,8.5,8.5,8.5s8.5-3.8,8.5-8.5S44.2,27.5,39.4,27.5L39.4,27.5z"/>
		</g>
		<polyline id="XMLID_39_" class="st3" points="42.6,36.3 39.4,36.3 39.4,31.1 		"/>
	</g>
</g>
<g id="XMLID_338_">
	<path id="XMLID_26_" class="st3" d="M38.6-58.2v-4.2l8.5,6.1l-8.5,6.1v-4.2c-1,0-2.3,0-3.8,0.4c-2.2,0.6-3.8,1.6-4.7,2.3
		c0.3-0.8,1-2.8,3.2-4.5C35.5-58,37.8-58.2,38.6-58.2z"/>
	<g id="XMLID_45_">
		<defs>
			<polygon id="XMLID_68_" points="30.5,-51 30.5,-59.1 1.7,-59.1 1.7,-27.1 4.2,-27.1 4.2,-26.6 48.3,-26.6 48.3,-51 			"/>
		</defs>
		<clipPath id="XMLID_860_">
			<use xlink:href="#XMLID_68_"  style="overflow:visible;"/>
		</clipPath>
		<g id="XMLID_43_" class="st5">
			<g id="XMLID_44_">
				<line id="XMLID_201_" class="st3" x1="29" y1="-46.1" x2="40.2" y2="-46.1"/>
				<line id="XMLID_203_" class="st3" x1="29" y1="-41.9" x2="40.2" y2="-41.9"/>
				<line id="XMLID_206_" class="st3" x1="29" y1="-37.7" x2="40.2" y2="-37.7"/>
			</g>
			<g id="XMLID_42_">
				<g id="XMLID_143_">
					<path id="XMLID_691_" d="M41.5-56.4c0.8,0,1.5,0.7,1.5,1.5v24c0,0.8-0.7,1.5-1.5,1.5H6.3c-0.8,0-1.5-0.7-1.5-1.5v-24
						c0-0.8,0.7-1.5,1.5-1.5H41.5 M41.5-57.9H6.3c-1.6,0-3,1.4-3,3v24c0,1.6,1.4,3,3,3h35.3c1.6,0,3-1.4,3-3v-24
						C44.5-56.5,43.2-57.9,41.5-57.9L41.5-57.9z"/>
				</g>
				<g id="XMLID_200_">
					<g id="XMLID_204_">
						<path id="XMLID_694_" d="M14.9-48.5v6.3v1.5h1.5h6.3c-0.7,2.9-3.3,5-6.3,5c-3.6,0-6.5-2.9-6.5-6.5C9.9-45.2,12-47.8,14.9-48.5
							 M16.4-50.2c-4.4,0-8,3.6-8,8c0,4.4,3.6,8,8,8c4.4,0,8-3.6,8-8h-8V-50.2L16.4-50.2z"/>
					</g>
					<g id="XMLID_202_">
						<path id="XMLID_697_" d="M19.3-49.9c2.4,0.6,4.3,2.4,4.8,4.8h-4.8L19.3-49.9 M17.8-51.6L17.8-51.6l0,8h8
							C25.8-48,22.2-51.6,17.8-51.6L17.8-51.6z"/>
					</g>
				</g>
			</g>
		</g>
	</g>
</g>
<g id="WgYaRZ.tif" class="st1">
	
		<image style="display:inline;overflow:visible;" width="78" height="74" id="Layer_0_3_" xlink:href="E40CED472C3142BF.png"  transform="matrix(0.8018 0 0 0.8018 65.8964 -73.8333)">
	</image>
</g>
<g id="LJetvd.tif" class="st1">
	
		<image style="display:inline;overflow:visible;" width="77" height="84" id="Layer_0_4_" xlink:href="E40CED472C3142B8.png"  transform="matrix(0.671 0 0 0.671 133.4167 -74.2922)">
	</image>
</g>
<g id="RPXAoi.tif" class="st6">
	
		<image style="display:inline;overflow:visible;" width="87" height="84" id="Layer_0_5_" xlink:href="E40CED472C3142B6.png"  transform="matrix(0.6839 0 0 0.6839 65.25 -73.7241)">
	</image>
</g>
<g id="XMLID_285_">
	<g id="XMLID_36_">
		<g id="XMLID_35_">
			<g id="XMLID_7_">
				<polyline id="XMLID_233_" class="st2" points="76.3,-47.2 72.2,-42.6 76.3,-47.2 				"/>
				<polyline id="XMLID_27_" class="st2" points="76.3,-47.2 80.7,-42.9 76.3,-47.2 				"/>
			</g>
			<g id="XMLID_34_">
				<defs>
					<polygon id="XMLID_33_" points="112.7,-15.9 68.3,-26.9 73.2,-48 117.6,-36.9 					"/>
				</defs>
				<clipPath id="XMLID_861_">
					<use xlink:href="#XMLID_33_"  style="overflow:visible;"/>
				</clipPath>
				<g id="XMLID_31_" class="st7">
					<defs>
						<polygon id="XMLID_32_" points="114.6,-14.3 65.1,-26.6 70.8,-51.2 120.3,-38.9 						"/>
					</defs>
					<clipPath id="XMLID_862_">
						<use xlink:href="#XMLID_32_"  style="overflow:visible;"/>
					</clipPath>
					<g id="XMLID_30_" class="st8">
						<defs>
							<polygon id="XMLID_29_" points="115.5,-18.2 66.9,-30.3 72.1,-52.8 120.7,-40.7 							"/>
						</defs>
						<clipPath id="XMLID_863_">
							<use xlink:href="#XMLID_29_"  style="overflow:visible;"/>
						</clipPath>
						<path id="XMLID_28_" class="st9" d="M76.8-49.7c2.4-10.4,12.5-16.7,22.5-14.2c10,2.5,16.2,12.9,13.8,23.2
							c-2.4,10.4-12.5,16.7-22.5,14.2S74.4-39.3,76.8-49.7z"/>
					</g>
				</g>
			</g>
		</g>
		<g id="XMLID_37_">
			<g id="XMLID_61_">
				<polyline id="XMLID_63_" class="st2" points="113.7,-42.8 117.8,-47.4 113.7,-42.8 				"/>
				<polyline id="XMLID_62_" class="st2" points="113.7,-42.8 109.3,-47.1 113.7,-42.8 				"/>
			</g>
			<g id="XMLID_40_">
				<defs>
					<polygon id="XMLID_41_" points="77.3,-74.1 121.7,-63.1 116.8,-42 72.4,-53.1 					"/>
				</defs>
				<clipPath id="XMLID_864_">
					<use xlink:href="#XMLID_41_"  style="overflow:visible;"/>
				</clipPath>
				<g id="XMLID_46_" class="st10">
					<defs>
						<polygon id="XMLID_50_" points="75.4,-75.7 124.9,-63.4 119.2,-38.8 69.7,-51.1 						"/>
					</defs>
					<clipPath id="XMLID_865_">
						<use xlink:href="#XMLID_50_"  style="overflow:visible;"/>
					</clipPath>
					<g id="XMLID_51_" class="st11">
						<defs>
							<polygon id="XMLID_52_" points="74.5,-71.8 123.1,-59.7 117.9,-37.2 69.3,-49.3 							"/>
						</defs>
						<clipPath id="XMLID_866_">
							<use xlink:href="#XMLID_52_"  style="overflow:visible;"/>
						</clipPath>
						<path id="XMLID_56_" class="st12" d="M113.2-40.3c-2.4,10.4-12.5,16.7-22.5,14.2S74.5-38.9,76.9-49.3
							C79.3-59.7,89.4-66,99.4-63.5C109.4-61.1,115.6-50.7,113.2-40.3z"/>
					</g>
				</g>
			</g>
		</g>
	</g>
	<g id="XMLID_65_">
		<rect id="XMLID_66_" x="91.4" y="-48.6" class="st3" width="11" height="11"/>
		<polygon id="XMLID_235_" class="st3" points="91.4,-48.6 98.6,-48.6 98.6,-52.4 87.6,-52.4 87.6,-41.4 91.4,-41.4 		"/>
	</g>
</g>
<g id="XMLID_16_">
	<g id="XMLID_21_">
		<line id="XMLID_17_" class="st2" x1="88.7" y1="19.2" x2="88.7" y2="40.6"/>
		<line id="XMLID_19_" class="st2" x1="95" y1="19.2" x2="95" y2="40.6"/>
		<line id="XMLID_22_" class="st2" x1="101.3" y1="19.2" x2="101.3" y2="40.6"/>
	</g>
	<g id="XMLID_18_">
		<path id="XMLID_689_" d="M107.7,17v24.6c0,0.6-0.6,1-1.3,1H83.5c-0.7,0-1.3-0.5-1.3-1V17H107.7 M109.2,15.5H80.8v26.1
			c0,1.4,1.2,2.5,2.8,2.5h22.9c1.5,0,2.8-1.1,2.8-2.5V15.5L109.2,15.5z"/>
	</g>
	<g id="XMLID_15_">
		<path id="XMLID_703_" d="M108.7,11.1c0.5,0,0.9,0.4,0.9,0.9v2.5c0,0.5-0.4,0.9-0.9,0.9H81.3c-0.5,0-0.9-0.4-0.9-0.9V12
			c0-0.5,0.4-0.9,0.9-0.9H108.7 M108.7,9.6H81.3c-1.3,0-2.4,1.1-2.4,2.4v2.5c0,1.3,1.1,2.4,2.4,2.4h27.5c1.3,0,2.4-1.1,2.4-2.4V12
			C111.1,10.7,110.1,9.6,108.7,9.6L108.7,9.6z"/>
	</g>
	<g id="XMLID_161_">
		<path id="XMLID_707_" d="M97.7,7.4c0.5,0,0.9,0.3,0.9,0.7v1.3h-7.2V8.1c0-0.4,0.4-0.7,0.9-0.7H97.7 M97.7,5.9h-5.4
			c-1.3,0-2.4,1-2.4,2.2v2.8h10.2V8.1C100.1,6.9,99,5.9,97.7,5.9L97.7,5.9z"/>
	</g>
</g>
</svg>
