<?xml version="1.0" encoding="utf-8"?>
<!-- Generator: Adobe Illustrator 19.0.0, SVG Export Plug-In . SVG Version: 6.00 Build 0)  -->
<svg version="1.1" id="Layer_1" xmlns="http://www.w3.org/2000/svg" xmlns:xlink="http://www.w3.org/1999/xlink" x="0px" y="0px"
	 viewBox="0 0 50 50" style="enable-background:new 0 0 50 50;" xml:space="preserve">
<style type="text/css">
	.st0{display:none;opacity:0.26;}
	.st1{display:none;}
	.st2{fill:none;stroke:#000000;stroke-width:1.5;stroke-linecap:square;stroke-miterlimit:10;}
	.st3{fill:none;stroke:#000000;stroke-width:1.5;stroke-miterlimit:10;}
	.st4{clip-path:url(#XMLID_846_);}
	.st5{clip-path:url(#XMLID_847_);}
	.st6{display:none;opacity:0.3;}
	.st7{clip-path:url(#XMLID_848_);}
	.st8{clip-path:url(#XMLID_849_);}
	.st9{clip-path:url(#XMLID_850_);fill:none;stroke:#000000;stroke-width:1.5;stroke-miterlimit:10;}
	.st10{clip-path:url(#XMLID_851_);}
	.st11{clip-path:url(#XMLID_852_);}
	.st12{clip-path:url(#XMLID_853_);fill:none;stroke:#000000;stroke-width:1.5;stroke-miterlimit:10;}
</style>
<g id="qTd4Hy.tif" class="st0">
	
		<image style="display:inline;overflow:visible;" width="324" height="350" id="Layer_0_1_" xlink:href="4C204FE695FB9E1E.png"  transform="matrix(0.2396 0 0 0.2396 126.1848 -13.3601)">
	</image>
</g>
<g id="XMLID_13_">
	<g id="XMLID_5_">
		<ellipse id="XMLID_81_" cx="18.5" cy="-44.6" rx="1.5" ry="1.5"/>
		<ellipse id="XMLID_83_" cx="25" cy="-44.6" rx="1.5" ry="1.5"/>
		<ellipse id="XMLID_82_" cx="31.5" cy="-44.6" rx="1.5" ry="1.5"/>
	</g>
	<g id="XMLID_86_">
		<path id="XMLID_710_" d="M44.5-57.7c0.7,0,1.3,0.6,1.3,1.3v23.6c0,0.7-0.6,1.3-1.3,1.3H27.9h-0.9l-0.4,0.8l-1.1,1.9l-0.5,1l-0.5-1
			l-1.1-1.9l-0.4-0.8h-0.9H5.5c-0.7,0-1.3-0.6-1.3-1.3v-23.6c0-0.7,0.6-1.3,1.3-1.3H44.5 M44.5-59.2H5.5c-1.5,0-2.8,1.3-2.8,2.8
			v23.6C2.8-31.2,4-30,5.5-30h16.5l1.1,1.9l1.9,3.3l1.9-3.3l1.1-1.9h16.5c1.5,0,2.8-1.3,2.8-2.8v-23.6C47.2-57.9,46-59.2,44.5-59.2
			L44.5-59.2z"/>
	</g>
</g>
<g id="_x38_WJWYe.tif" class="st1">
	
		<image style="display:inline;overflow:visible;" width="141" height="154" id="Layer_0_2_" xlink:href="4C204FE695FB9E22.png"  transform="matrix(0.4683 0 0 0.4683 -5.6643 -9.5)">
	</image>
</g>
<g id="XMLID_138_">
	<g id="XMLID_134_">
		<path id="XMLID_648_" d="M13.3,20.9c2.9,0,5.2,2.3,5.2,5.2c0,2.9-2.3,5.2-5.2,5.2S8,29,8,26.1C8,23.2,10.4,20.9,13.3,20.9
			 M13.3,19.4c-3.7,0-6.7,3-6.7,6.7s3,6.7,6.7,6.7s6.7-3,6.7-6.7S17,19.4,13.3,19.4L13.3,19.4z"/>
	</g>
	<g id="XMLID_135_">
		<path id="XMLID_654_" d="M34.7,10.1c2.9,0,5.2,2.3,5.2,5.2c0,2.9-2.3,5.2-5.2,5.2c-2.9,0-5.2-2.3-5.2-5.2
			C29.5,12.5,31.9,10.1,34.7,10.1 M34.7,8.6c-3.7,0-6.7,3-6.7,6.7s3,6.7,6.7,6.7s6.7-3,6.7-6.7S38.5,8.6,34.7,8.6L34.7,8.6z"/>
	</g>
	<g id="XMLID_136_">
		<path id="XMLID_657_" d="M34.7,31.6c2.9,0,5.2,2.3,5.2,5.2s-2.3,5.2-5.2,5.2c-2.9,0-5.2-2.3-5.2-5.2S31.9,31.6,34.7,31.6
			 M34.7,30.1c-3.7,0-6.7,3-6.7,6.7s3,6.7,6.7,6.7s6.7-3,6.7-6.7S38.5,30.1,34.7,30.1L34.7,30.1z"/>
	</g>
	<line id="XMLID_137_" class="st2" x1="19.3" y1="23.6" x2="28.7" y2="18.6"/>
	<line id="XMLID_139_" class="st2" x1="28.7" y1="33.7" x2="19.3" y2="28.8"/>
</g>
<g id="XMLID_212_">
	<g id="XMLID_9_">
		<line id="XMLID_10_" class="st3" x1="80.8" y1="9.5" x2="80.8" y2="15.7"/>
		<line id="XMLID_11_" class="st3" x1="105.8" y1="9.5" x2="105.8" y2="15.7"/>
	</g>
	<g id="XMLID_55_">
		<line id="XMLID_14_" class="st3" x1="78.4" y1="25.1" x2="107.8" y2="25.1"/>
		<line id="XMLID_49_" class="st3" x1="78.4" y1="30.4" x2="97.9" y2="30.4"/>
		<line id="XMLID_54_" class="st3" x1="78.4" y1="35.7" x2="98" y2="35.7"/>
	</g>
	<g id="XMLID_12_">
		<defs>
			<polygon id="XMLID_60_" points="114.2,9.4 72,9.4 72,25.6 72,26.5 72,42.3 100.6,42.3 100.6,26.5 114.2,26.5 			"/>
		</defs>
		<clipPath id="XMLID_846_">
			<use xlink:href="#XMLID_60_"  style="overflow:visible;"/>
		</clipPath>
		<g id="XMLID_24_" class="st4">
			<g id="XMLID_53_">
				<path id="XMLID_162_" d="M111.2,12.8c0.8,0,1.5,0.7,1.5,1.5v24.4c0,0.8-0.7,1.5-1.5,1.5H75.4c-0.8,0-1.5-0.7-1.5-1.5V14.3
					c0-0.8,0.7-1.5,1.5-1.5H111.2 M111.2,11.3H75.4c-1.7,0-3,1.3-3,3v24.4c0,1.7,1.3,3,3,3h35.8c1.7,0,3-1.3,3-3V14.3
					C114.2,12.7,112.8,11.3,111.2,11.3L111.2,11.3z"/>
			</g>
			<line id="XMLID_25_" class="st3" x1="73.4" y1="19.7" x2="112.8" y2="19.7"/>
		</g>
	</g>
	<g id="XMLID_1_">
		<g id="XMLID_8_">
			<path id="XMLID_158_" d="M109.4,29c3.9,0,7,3.2,7,7s-3.2,7-7,7s-7-3.2-7-7S105.6,29,109.4,29 M109.4,27.5c-4.7,0-8.5,3.8-8.5,8.5
				s3.8,8.5,8.5,8.5s8.5-3.8,8.5-8.5S114.2,27.5,109.4,27.5L109.4,27.5z"/>
		</g>
		<polyline id="XMLID_39_" class="st3" points="112.6,36.3 109.4,36.3 109.4,31.1 		"/>
	</g>
</g>
<g id="XMLID_338_">
	<path id="XMLID_26_" class="st3" d="M108.6-58.2v-4.2l8.5,6.1l-8.5,6.1v-4.2c-1,0-2.3,0-3.8,0.4c-2.2,0.6-3.8,1.6-4.7,2.3
		c0.3-0.8,1-2.8,3.2-4.5C105.5-58,107.8-58.2,108.6-58.2z"/>
	<g id="XMLID_45_">
		<defs>
			<polygon id="XMLID_68_" points="100.5,-51 100.5,-59.1 71.7,-59.1 71.7,-27.1 74.2,-27.1 74.2,-26.6 118.3,-26.6 118.3,-51 			
				"/>
		</defs>
		<clipPath id="XMLID_847_">
			<use xlink:href="#XMLID_68_"  style="overflow:visible;"/>
		</clipPath>
		<g id="XMLID_43_" class="st5">
			<g id="XMLID_44_">
				<line id="XMLID_201_" class="st3" x1="99" y1="-46.1" x2="110.2" y2="-46.1"/>
				<line id="XMLID_203_" class="st3" x1="99" y1="-41.9" x2="110.2" y2="-41.9"/>
				<line id="XMLID_206_" class="st3" x1="99" y1="-37.7" x2="110.2" y2="-37.7"/>
			</g>
			<g id="XMLID_42_">
				<g id="XMLID_143_">
					<path id="XMLID_691_" d="M111.5-56.4c0.8,0,1.5,0.7,1.5,1.5v24c0,0.8-0.7,1.5-1.5,1.5H76.3c-0.8,0-1.5-0.7-1.5-1.5v-24
						c0-0.8,0.7-1.5,1.5-1.5H111.5 M111.5-57.9H76.3c-1.6,0-3,1.4-3,3v24c0,1.6,1.4,3,3,3h35.3c1.6,0,3-1.4,3-3v-24
						C114.5-56.5,113.2-57.9,111.5-57.9L111.5-57.9z"/>
				</g>
				<g id="XMLID_200_">
					<g id="XMLID_204_">
						<path id="XMLID_694_" d="M84.9-48.5v6.3v1.5h1.5h6.3c-0.7,2.9-3.3,5-6.3,5c-3.6,0-6.5-2.9-6.5-6.5
							C79.9-45.2,82-47.8,84.9-48.5 M86.4-50.2c-4.4,0-8,3.6-8,8c0,4.4,3.6,8,8,8c4.4,0,8-3.6,8-8h-8V-50.2L86.4-50.2z"/>
					</g>
					<g id="XMLID_202_">
						<path id="XMLID_697_" d="M89.3-49.9c2.4,0.6,4.3,2.4,4.8,4.8h-4.8L89.3-49.9 M87.8-51.6L87.8-51.6l0,8h8
							C95.8-48,92.2-51.6,87.8-51.6L87.8-51.6z"/>
					</g>
				</g>
			</g>
		</g>
	</g>
</g>
<g id="WgYaRZ.tif" class="st1">
	
		<image style="display:inline;overflow:visible;" width="78" height="74" id="Layer_0_3_" xlink:href="4C204FE695FB9E25.png"  transform="matrix(0.8018 0 0 0.8018 135.8964 -73.8333)">
	</image>
</g>
<g id="LJetvd.tif" class="st1">
	
		<image style="display:inline;overflow:visible;" width="77" height="84" id="Layer_0_4_" xlink:href="4C204FE695FB9E26.png"  transform="matrix(0.671 0 0 0.671 203.4167 -74.2922)">
	</image>
</g>
<g id="RPXAoi.tif" class="st6">
	
		<image style="display:inline;overflow:visible;" width="87" height="84" id="Layer_0_5_" xlink:href="4C204FE695FB9E24.png"  transform="matrix(0.6839 0 0 0.6839 135.25 -73.7241)">
	</image>
</g>
<g id="XMLID_285_">
	<g id="XMLID_36_">
		<g id="XMLID_35_">
			<g id="XMLID_7_">
				<polyline id="XMLID_233_" class="st2" points="146.3,-47.2 142.2,-42.6 146.3,-47.2 				"/>
				<polyline id="XMLID_27_" class="st2" points="146.3,-47.2 150.7,-42.9 146.3,-47.2 				"/>
			</g>
			<g id="XMLID_34_">
				<defs>
					<polygon id="XMLID_33_" points="182.7,-15.9 138.3,-26.9 143.2,-48 187.6,-36.9 					"/>
				</defs>
				<clipPath id="XMLID_848_">
					<use xlink:href="#XMLID_33_"  style="overflow:visible;"/>
				</clipPath>
				<g id="XMLID_31_" class="st7">
					<defs>
						<polygon id="XMLID_32_" points="184.6,-14.3 135.1,-26.6 140.8,-51.2 190.3,-38.9 						"/>
					</defs>
					<clipPath id="XMLID_849_">
						<use xlink:href="#XMLID_32_"  style="overflow:visible;"/>
					</clipPath>
					<g id="XMLID_30_" class="st8">
						<defs>
							<polygon id="XMLID_29_" points="185.5,-18.2 136.9,-30.3 142.1,-52.8 190.7,-40.7 							"/>
						</defs>
						<clipPath id="XMLID_850_">
							<use xlink:href="#XMLID_29_"  style="overflow:visible;"/>
						</clipPath>
						<path id="XMLID_28_" class="st9" d="M146.8-49.7c2.4-10.4,12.5-16.7,22.5-14.2c10,2.5,16.2,12.9,13.8,23.2
							S170.6-24,160.6-26.5S144.4-39.3,146.8-49.7z"/>
					</g>
				</g>
			</g>
		</g>
		<g id="XMLID_37_">
			<g id="XMLID_61_">
				<polyline id="XMLID_63_" class="st2" points="183.7,-42.8 187.8,-47.4 183.7,-42.8 				"/>
				<polyline id="XMLID_62_" class="st2" points="183.7,-42.8 179.3,-47.1 183.7,-42.8 				"/>
			</g>
			<g id="XMLID_40_">
				<defs>
					<polygon id="XMLID_41_" points="147.3,-74.1 191.7,-63.1 186.8,-42 142.4,-53.1 					"/>
				</defs>
				<clipPath id="XMLID_851_">
					<use xlink:href="#XMLID_41_"  style="overflow:visible;"/>
				</clipPath>
				<g id="XMLID_46_" class="st10">
					<defs>
						<polygon id="XMLID_50_" points="145.4,-75.7 194.9,-63.4 189.2,-38.8 139.7,-51.1 						"/>
					</defs>
					<clipPath id="XMLID_852_">
						<use xlink:href="#XMLID_50_"  style="overflow:visible;"/>
					</clipPath>
					<g id="XMLID_51_" class="st11">
						<defs>
							<polygon id="XMLID_52_" points="144.5,-71.8 193.1,-59.7 187.9,-37.2 139.3,-49.3 							"/>
						</defs>
						<clipPath id="XMLID_853_">
							<use xlink:href="#XMLID_52_"  style="overflow:visible;"/>
						</clipPath>
						<path id="XMLID_56_" class="st12" d="M183.2-40.3c-2.4,10.4-12.5,16.7-22.5,14.2s-16.2-12.9-13.8-23.2s12.5-16.7,22.5-14.2
							C179.4-61.1,185.6-50.7,183.2-40.3z"/>
					</g>
				</g>
			</g>
		</g>
	</g>
	<g id="XMLID_65_">
		<rect id="XMLID_66_" x="161.4" y="-48.6" class="st3" width="11" height="11"/>
		<polygon id="XMLID_235_" class="st3" points="161.4,-48.6 168.6,-48.6 168.6,-52.4 157.6,-52.4 157.6,-41.4 161.4,-41.4 		"/>
	</g>
</g>
<g id="XMLID_16_">
	<g id="XMLID_21_">
		<line id="XMLID_17_" class="st2" x1="158.7" y1="19.2" x2="158.7" y2="40.6"/>
		<line id="XMLID_19_" class="st2" x1="165" y1="19.2" x2="165" y2="40.6"/>
		<line id="XMLID_22_" class="st2" x1="171.3" y1="19.2" x2="171.3" y2="40.6"/>
	</g>
	<g id="XMLID_18_">
		<path id="XMLID_689_" d="M177.7,17v24.6c0,0.6-0.6,1-1.3,1h-22.9c-0.7,0-1.3-0.5-1.3-1V17H177.7 M179.2,15.5h-28.5v26.1
			c0,1.4,1.2,2.5,2.8,2.5h22.9c1.5,0,2.8-1.1,2.8-2.5V15.5L179.2,15.5z"/>
	</g>
	<g id="XMLID_15_">
		<path id="XMLID_703_" d="M178.7,11.1c0.5,0,0.9,0.4,0.9,0.9v2.5c0,0.5-0.4,0.9-0.9,0.9h-27.5c-0.5,0-0.9-0.4-0.9-0.9V12
			c0-0.5,0.4-0.9,0.9-0.9H178.7 M178.7,9.6h-27.5c-1.3,0-2.4,1.1-2.4,2.4v2.5c0,1.3,1.1,2.4,2.4,2.4h27.5c1.3,0,2.4-1.1,2.4-2.4V12
			C181.1,10.7,180.1,9.6,178.7,9.6L178.7,9.6z"/>
	</g>
	<g id="XMLID_161_">
		<path id="XMLID_707_" d="M167.7,7.4c0.5,0,0.9,0.3,0.9,0.7v1.3h-7.2V8.1c0-0.4,0.4-0.7,0.9-0.7H167.7 M167.7,5.9h-5.4
			c-1.3,0-2.4,1-2.4,2.2v2.8h10.2V8.1C170.1,6.9,169,5.9,167.7,5.9L167.7,5.9z"/>
	</g>
</g>
</svg>
