<?xml version="1.0" encoding="utf-8"?>
<!-- Generator: Adobe Illustrator 19.0.0, SVG Export Plug-In . SVG Version: 6.00 Build 0)  -->
<svg version="1.1" id="Layer_1" xmlns="http://www.w3.org/2000/svg" xmlns:xlink="http://www.w3.org/1999/xlink" x="0px" y="0px"
	 viewBox="0 0 50 50" style="enable-background:new 0 0 50 50;" xml:space="preserve">
<style type="text/css">
	.st0{display:none;opacity:0.26;}
	.st1{display:none;}
	.st2{fill:none;stroke:#000000;stroke-width:1.5;stroke-linecap:square;stroke-miterlimit:10;}
	.st3{fill:none;stroke:#000000;stroke-width:1.5;stroke-miterlimit:10;}
	.st4{clip-path:url(#XMLID_294_);}
	.st5{clip-path:url(#XMLID_296_);}
	.st6{display:none;opacity:0.3;}
	.st7{clip-path:url(#XMLID_297_);}
	.st8{clip-path:url(#XMLID_653_);}
	.st9{clip-path:url(#XMLID_654_);fill:none;stroke:#000000;stroke-width:1.5;stroke-miterlimit:10;}
	.st10{clip-path:url(#XMLID_655_);}
	.st11{clip-path:url(#XMLID_656_);}
	.st12{clip-path:url(#XMLID_657_);fill:none;stroke:#000000;stroke-width:1.5;stroke-miterlimit:10;}
</style>
<g id="qTd4Hy.tif" class="st0">
	
		<image style="display:inline;overflow:visible;" width="324" height="350" id="Layer_0_1_" xlink:href="72F92E4BE4ADA317.png"  transform="matrix(0.2396 0 0 0.2396 -13.8152 56.6399)">
	</image>
</g>
<g id="XMLID_13_">
	<g id="XMLID_5_">
		<ellipse id="XMLID_81_" cx="-121.5" cy="25.4" rx="1.5" ry="1.5"/>
		<ellipse id="XMLID_83_" cx="-115" cy="25.4" rx="1.5" ry="1.5"/>
		<ellipse id="XMLID_82_" cx="-108.5" cy="25.4" rx="1.5" ry="1.5"/>
	</g>
	<g id="XMLID_86_">
		<path id="XMLID_289_" d="M-95.5,12.3c0.7,0,1.3,0.6,1.3,1.3v23.6c0,0.7-0.6,1.3-1.3,1.3h-16.5h-0.9l-0.4,0.8l-1.1,1.9l-0.5,1
			l-0.5-1l-1.1-1.9l-0.4-0.8h-0.9h-16.5c-0.7,0-1.3-0.6-1.3-1.3V13.6c0-0.7,0.6-1.3,1.3-1.3H-95.5 M-95.5,10.8h-38.9
			c-1.5,0-2.8,1.3-2.8,2.8v23.6c0,1.5,1.3,2.8,2.8,2.8h16.5l1.1,1.9l1.9,3.3l1.9-3.3l1.1-1.9h16.5c1.5,0,2.8-1.3,2.8-2.8V13.6
			C-92.8,12.1-94,10.8-95.5,10.8L-95.5,10.8z"/>
	</g>
</g>
<g id="_x38_WJWYe.tif" class="st1">
	
		<image style="display:inline;overflow:visible;" width="141" height="154" id="Layer_0_2_" xlink:href="72F92E4BE4ADA315.png"  transform="matrix(0.4683 0 0 0.4683 -145.6643 60.5)">
	</image>
</g>
<g id="XMLID_138_">
	<g id="XMLID_134_">
		<path id="XMLID_286_" d="M-126.7,91.9c2.9,0,5.2,2.3,5.2,5.2c0,2.9-2.3,5.2-5.2,5.2c-2.9,0-5.2-2.3-5.2-5.2
			C-132,94.2-129.6,91.9-126.7,91.9 M-126.7,90.4c-3.7,0-6.7,3-6.7,6.7s3,6.7,6.7,6.7s6.7-3,6.7-6.7S-123,90.4-126.7,90.4
			L-126.7,90.4z"/>
	</g>
	<g id="XMLID_135_">
		<path id="XMLID_268_" d="M-105.3,81.1c2.9,0,5.2,2.3,5.2,5.2c0,2.9-2.3,5.2-5.2,5.2c-2.9,0-5.2-2.3-5.2-5.2
			C-110.5,83.5-108.1,81.1-105.3,81.1 M-105.3,79.6c-3.7,0-6.7,3-6.7,6.7s3,6.7,6.7,6.7s6.7-3,6.7-6.7S-101.5,79.6-105.3,79.6
			L-105.3,79.6z"/>
	</g>
	<g id="XMLID_136_">
		<path id="XMLID_261_" d="M-105.3,102.6c2.9,0,5.2,2.3,5.2,5.2s-2.3,5.2-5.2,5.2c-2.9,0-5.2-2.3-5.2-5.2S-108.1,102.6-105.3,102.6
			 M-105.3,101.1c-3.7,0-6.7,3-6.7,6.7s3,6.7,6.7,6.7s6.7-3,6.7-6.7S-101.5,101.1-105.3,101.1L-105.3,101.1z"/>
	</g>
	<line id="XMLID_137_" class="st2" x1="-120.7" y1="94.6" x2="-111.3" y2="89.6"/>
	<line id="XMLID_139_" class="st2" x1="-111.3" y1="104.7" x2="-120.7" y2="99.8"/>
</g>
<g id="XMLID_212_">
	<g id="XMLID_9_">
		<line id="XMLID_10_" class="st3" x1="-59.2" y1="79.5" x2="-59.2" y2="85.7"/>
		<line id="XMLID_11_" class="st3" x1="-34.2" y1="79.5" x2="-34.2" y2="85.7"/>
	</g>
	<g id="XMLID_55_">
		<line id="XMLID_14_" class="st3" x1="-61.6" y1="95.1" x2="-32.2" y2="95.1"/>
		<line id="XMLID_49_" class="st3" x1="-61.6" y1="100.4" x2="-42.1" y2="100.4"/>
		<line id="XMLID_54_" class="st3" x1="-61.6" y1="105.7" x2="-42" y2="105.7"/>
	</g>
	<g id="XMLID_12_">
		<defs>
			<polygon id="XMLID_60_" points="-25.8,79.4 -68,79.4 -68,95.6 -68,96.5 -68,112.3 -39.4,112.3 -39.4,96.5 -25.8,96.5 			"/>
		</defs>
		<clipPath id="XMLID_294_">
			<use xlink:href="#XMLID_60_"  style="overflow:visible;"/>
		</clipPath>
		<g id="XMLID_24_" class="st4">
			<g id="XMLID_53_">
				<path id="XMLID_191_" d="M-28.8,82.8c0.8,0,1.5,0.7,1.5,1.5v24.4c0,0.8-0.7,1.5-1.5,1.5h-35.8c-0.8,0-1.5-0.7-1.5-1.5V84.3
					c0-0.8,0.7-1.5,1.5-1.5H-28.8 M-28.8,81.3h-35.8c-1.7,0-3,1.3-3,3v24.4c0,1.7,1.3,3,3,3h35.8c1.7,0,3-1.3,3-3V84.3
					C-25.8,82.7-27.2,81.3-28.8,81.3L-28.8,81.3z"/>
			</g>
			<line id="XMLID_25_" class="st3" x1="-66.6" y1="89.7" x2="-27.2" y2="89.7"/>
		</g>
	</g>
	<g id="XMLID_1_">
		<g id="XMLID_8_">
			<path id="XMLID_181_" d="M-30.6,99c3.9,0,7,3.2,7,7s-3.2,7-7,7s-7-3.2-7-7S-34.4,99-30.6,99 M-30.6,97.5c-4.7,0-8.5,3.8-8.5,8.5
				s3.8,8.5,8.5,8.5s8.5-3.8,8.5-8.5S-25.8,97.5-30.6,97.5L-30.6,97.5z"/>
		</g>
		<polyline id="XMLID_39_" class="st3" points="-27.4,106.3 -30.6,106.3 -30.6,101.1 		"/>
	</g>
</g>
<g id="XMLID_338_">
	<path id="XMLID_26_" class="st3" d="M-31.4,11.8V7.6l8.5,6.1l-8.5,6.1v-4.2c-1,0-2.3,0-3.8,0.4c-2.2,0.6-3.8,1.6-4.7,2.3
		c0.3-0.8,1-2.8,3.2-4.5C-34.5,12-32.2,11.8-31.4,11.8z"/>
	<g id="XMLID_45_">
		<defs>
			<polygon id="XMLID_68_" points="-39.5,19 -39.5,10.9 -68.3,10.9 -68.3,42.9 -65.8,42.9 -65.8,43.4 -21.7,43.4 -21.7,19 			"/>
		</defs>
		<clipPath id="XMLID_296_">
			<use xlink:href="#XMLID_68_"  style="overflow:visible;"/>
		</clipPath>
		<g id="XMLID_43_" class="st5">
			<g id="XMLID_44_">
				<line id="XMLID_201_" class="st3" x1="-41" y1="23.9" x2="-29.8" y2="23.9"/>
				<line id="XMLID_203_" class="st3" x1="-41" y1="28.1" x2="-29.8" y2="28.1"/>
				<line id="XMLID_206_" class="st3" x1="-41" y1="32.3" x2="-29.8" y2="32.3"/>
			</g>
			<g id="XMLID_42_">
				<g id="XMLID_143_">
					<path id="XMLID_648_" d="M-28.5,13.6c0.8,0,1.5,0.7,1.5,1.5v24c0,0.8-0.7,1.5-1.5,1.5h-35.3c-0.8,0-1.5-0.7-1.5-1.5v-24
						c0-0.8,0.7-1.5,1.5-1.5H-28.5 M-28.5,12.1h-35.3c-1.6,0-3,1.4-3,3v24c0,1.6,1.4,3,3,3h35.3c1.6,0,3-1.4,3-3v-24
						C-25.5,13.5-26.8,12.1-28.5,12.1L-28.5,12.1z"/>
				</g>
				<g id="XMLID_200_">
					<g id="XMLID_204_">
						<path id="XMLID_298_" d="M-55.1,21.5v6.3v1.5h1.5h6.3c-0.7,2.9-3.3,5-6.3,5c-3.6,0-6.5-2.9-6.5-6.5
							C-60.1,24.8-58,22.2-55.1,21.5 M-53.6,19.8c-4.4,0-8,3.6-8,8c0,4.4,3.6,8,8,8c4.4,0,8-3.6,8-8h-8V19.8L-53.6,19.8z"/>
					</g>
					<g id="XMLID_202_">
						<path id="XMLID_290_" d="M-50.7,20.1c2.4,0.6,4.3,2.4,4.8,4.8h-4.8L-50.7,20.1 M-52.2,18.4L-52.2,18.4l0,8h8
							C-44.2,22-47.8,18.4-52.2,18.4L-52.2,18.4z"/>
					</g>
				</g>
			</g>
		</g>
	</g>
</g>
<g id="WgYaRZ.tif" class="st1">
	
		<image style="display:inline;overflow:visible;" width="78" height="74" id="Layer_0_3_" xlink:href="72F92E4BE4ADA31B.png"  transform="matrix(0.8018 0 0 0.8018 -4.1036 -3.8333)">
	</image>
</g>
<g id="LJetvd.tif" class="st1">
	
		<image style="display:inline;overflow:visible;" width="77" height="84" id="Layer_0_4_" xlink:href="72F92E4BE4ADA31D.png"  transform="matrix(0.671 0 0 0.671 63.4167 -4.2922)">
	</image>
</g>
<g id="RPXAoi.tif" class="st6">
	
		<image style="display:inline;overflow:visible;" width="87" height="84" id="Layer_0_5_" xlink:href="72F92E4BE4ADA31F.png"  transform="matrix(0.6839 0 0 0.6839 -4.75 -3.7241)">
	</image>
</g>
<g id="XMLID_285_">
	<g id="XMLID_36_">
		<g id="XMLID_35_">
			<g id="XMLID_7_">
				<polyline id="XMLID_233_" class="st2" points="6.3,22.8 2.2,27.4 6.3,22.8 				"/>
				<polyline id="XMLID_27_" class="st2" points="6.3,22.8 10.7,27.1 6.3,22.8 				"/>
			</g>
			<g id="XMLID_34_">
				<defs>
					<polygon id="XMLID_33_" points="42.7,54.1 -1.7,43.1 3.2,22 47.6,33.1 					"/>
				</defs>
				<clipPath id="XMLID_297_">
					<use xlink:href="#XMLID_33_"  style="overflow:visible;"/>
				</clipPath>
				<g id="XMLID_31_" class="st7">
					<defs>
						<polygon id="XMLID_32_" points="44.6,55.7 -4.9,43.4 0.8,18.8 50.3,31.1 						"/>
					</defs>
					<clipPath id="XMLID_653_">
						<use xlink:href="#XMLID_32_"  style="overflow:visible;"/>
					</clipPath>
					<g id="XMLID_30_" class="st8">
						<defs>
							<polygon id="XMLID_29_" points="45.5,51.8 -3.1,39.7 2.1,17.2 50.7,29.3 							"/>
						</defs>
						<clipPath id="XMLID_654_">
							<use xlink:href="#XMLID_29_"  style="overflow:visible;"/>
						</clipPath>
						<path id="XMLID_28_" class="st9" d="M6.8,20.3C9.2,9.9,19.3,3.6,29.3,6.1s16.2,12.9,13.8,23.2S30.6,46,20.6,43.5
							S4.4,30.7,6.8,20.3z"/>
					</g>
				</g>
			</g>
		</g>
		<g id="XMLID_37_">
			<g id="XMLID_61_">
				<polyline id="XMLID_63_" class="st2" points="43.7,27.2 47.8,22.6 43.7,27.2 				"/>
				<polyline id="XMLID_62_" class="st2" points="43.7,27.2 39.3,22.9 43.7,27.2 				"/>
			</g>
			<g id="XMLID_40_">
				<defs>
					<polygon id="XMLID_41_" points="7.3,-4.1 51.7,6.9 46.8,28 2.4,16.9 					"/>
				</defs>
				<clipPath id="XMLID_655_">
					<use xlink:href="#XMLID_41_"  style="overflow:visible;"/>
				</clipPath>
				<g id="XMLID_46_" class="st10">
					<defs>
						<polygon id="XMLID_50_" points="5.4,-5.7 54.9,6.6 49.2,31.2 -0.3,18.9 						"/>
					</defs>
					<clipPath id="XMLID_656_">
						<use xlink:href="#XMLID_50_"  style="overflow:visible;"/>
					</clipPath>
					<g id="XMLID_51_" class="st11">
						<defs>
							<polygon id="XMLID_52_" points="4.5,-1.8 53.1,10.3 47.9,32.8 -0.7,20.7 							"/>
						</defs>
						<clipPath id="XMLID_657_">
							<use xlink:href="#XMLID_52_"  style="overflow:visible;"/>
						</clipPath>
						<path id="XMLID_56_" class="st12" d="M43.2,29.7c-2.4,10.4-12.5,16.7-22.5,14.2S4.5,31.1,6.9,20.7S19.4,4,29.4,6.5
							S45.6,19.3,43.2,29.7z"/>
					</g>
				</g>
			</g>
		</g>
	</g>
	<g id="XMLID_65_">
		<rect id="XMLID_66_" x="21.4" y="21.4" class="st3" width="11" height="11"/>
		<polygon id="XMLID_235_" class="st3" points="21.4,21.4 28.6,21.4 28.6,17.6 17.6,17.6 17.6,28.6 21.4,28.6 		"/>
	</g>
</g>
<g id="XMLID_16_">
	<g id="XMLID_21_">
		<line id="XMLID_17_" class="st2" x1="18.7" y1="89.4" x2="18.7" y2="110.8"/>
		<line id="XMLID_19_" class="st2" x1="25" y1="89.4" x2="25" y2="110.8"/>
		<line id="XMLID_22_" class="st2" x1="31.3" y1="89.4" x2="31.3" y2="110.8"/>
	</g>
	<g id="XMLID_18_">
		<path id="XMLID_260_" d="M37.7,87.2v24.6c0,0.6-0.6,1-1.3,1H13.5c-0.7,0-1.3-0.5-1.3-1V87.2H37.7 M39.2,85.7H10.8v26.1
			c0,1.4,1.2,2.5,2.8,2.5h22.9c1.5,0,2.8-1.1,2.8-2.5V85.7L39.2,85.7z"/>
	</g>
	<g id="XMLID_15_">
		<path id="XMLID_159_" d="M38.7,81.3c0.5,0,0.9,0.4,0.9,0.9v2.5c0,0.5-0.4,0.9-0.9,0.9H11.3c-0.5,0-0.9-0.4-0.9-0.9v-2.5
			c0-0.5,0.4-0.9,0.9-0.9H38.7 M38.7,79.8H11.3c-1.3,0-2.4,1.1-2.4,2.4v2.5c0,1.3,1.1,2.4,2.4,2.4h27.5c1.3,0,2.4-1.1,2.4-2.4v-2.5
			C41.1,80.9,40.1,79.8,38.7,79.8L38.7,79.8z"/>
	</g>
	<g id="XMLID_161_">
		<path id="XMLID_141_" d="M27.7,77.6c0.5,0,0.9,0.3,0.9,0.7v1.3h-7.2v-1.3c0-0.4,0.4-0.7,0.9-0.7H27.7 M27.7,76.1h-5.4
			c-1.3,0-2.4,1-2.4,2.2v2.8h10.2v-2.8C30.1,77.1,29,76.1,27.7,76.1L27.7,76.1z"/>
	</g>
</g>
</svg>
