<svg xmlns="http://www.w3.org/2000/svg" viewBox="0 0 18.04 17.91"><defs><style>.cls-1{fill:#556aa5;}.cls-2{fill:#7693e5;}.cls-3{fill:#91cddb;}</style></defs><title>자산 14</title><g id="레이어_2" data-name="레이어 2"><g id="레이어_1-2" data-name="레이어 1"><path class="cls-1" d="M1,0H5.42a0,0,0,0,1,0,0V4.45a0,0,0,0,1,0,0H1a1,1,0,0,1-1-1V1A1,1,0,0,1,1,0Z"/><rect class="cls-2" x="6.06" width="5.14" height="4.45"/><path class="cls-3" d="M11.85,0h2.86a1,1,0,0,1,1,1V3.45a1,1,0,0,1-1,1H11.85a0,0,0,0,1,0,0V0A0,0,0,0,1,11.85,0Z"/><rect class="cls-2" x="4.08" y="6.73" width="8.25" height="4.45"/><path class="cls-3" d="M13,6.73H17a1,1,0,0,1,1,1v2.45a1,1,0,0,1-1,1H13a0,0,0,0,1,0,0V6.73A0,0,0,0,1,13,6.73Z"/><path class="cls-1" d="M1,6.73H3.45a0,0,0,0,1,0,0v4.45a0,0,0,0,1,0,0H1a1,1,0,0,1-1-1V7.73A1,1,0,0,1,1,6.73Z"/><rect class="cls-2" x="9.79" y="13.46" width="1.9" height="4.45"/><path class="cls-3" d="M12.33,13.46H13a1,1,0,0,1,1,1v2.45a1,1,0,0,1-1,1h-.69a0,0,0,0,1,0,0V13.46A0,0,0,0,1,12.33,13.46Z"/><path class="cls-1" d="M1,13.46H9.16a0,0,0,0,1,0,0v4.45a0,0,0,0,1,0,0H1a1,1,0,0,1-1-1V14.46A1,1,0,0,1,1,13.46Z"/></g></g></svg>