<svg xmlns="http://www.w3.org/2000/svg" viewBox="0 0 18.12 17.88"><defs><style>.cls-1{fill:#556aa5;}.cls-2{fill:#7693e5;}.cls-3{fill:#91cddb;}</style></defs><title>자산 15</title><g id="레이어_2" data-name="레이어 2"><g id="레이어_1-2" data-name="레이어 1"><path class="cls-1" d="M1,0H5.37a0,0,0,0,1,0,0V4.45a0,0,0,0,1,0,0H1a1,1,0,0,1-1-1V1A1,1,0,0,1,1,0Z"/><rect class="cls-2" x="6.01" width="3.19" height="4.45"/><path class="cls-3" d="M9.83,0h7.28a1,1,0,0,1,1,1V3.45a1,1,0,0,1-1,1H9.83a0,0,0,0,1,0,0V0A0,0,0,0,1,9.83,0Z"/><rect class="cls-2" x="4.74" y="6.71" width="6.37" height="4.45"/><path class="cls-3" d="M11.74,6.71h5.37a1,1,0,0,1,1,1v2.45a1,1,0,0,1-1,1H11.74a0,0,0,0,1,0,0V6.71A0,0,0,0,1,11.74,6.71Z"/><path class="cls-1" d="M1,6.71H4.1a0,0,0,0,1,0,0v4.45a0,0,0,0,1,0,0H1a1,1,0,0,1-1-1V7.71A1,1,0,0,1,1,6.71Z"/><rect class="cls-2" x="11.74" y="13.43" width="3.82" height="4.45"/><path class="cls-3" d="M16.2,13.43h.91a1,1,0,0,1,1,1v2.45a1,1,0,0,1-1,1H16.2a0,0,0,0,1,0,0V13.43A0,0,0,0,1,16.2,13.43Z"/><path class="cls-1" d="M1,13.43H11.11a0,0,0,0,1,0,0v4.45a0,0,0,0,1,0,0H1a1,1,0,0,1-1-1V14.43a1,1,0,0,1,1-1Z"/></g></g></svg>