<svg xmlns="http://www.w3.org/2000/svg" viewBox="0 0 17.91 18.04"><defs><style>.cls-1{fill:#556aa5;}.cls-2{fill:#7693e5;}.cls-3{fill:#91cddb;}</style></defs><title>자산 16</title><g id="레이어_2" data-name="레이어 2"><g id="레이어_1-2" data-name="레이어 1"><path class="cls-1" d="M.51,13.1H4.93a0,0,0,0,1,0,0v4.45a0,0,0,0,1,0,0H.51a1,1,0,0,1-1-1V14.1A1,1,0,0,1,.51,13.1Z" transform="translate(-13.1 17.55) rotate(-90)"/><rect class="cls-2" x="-0.35" y="7.18" width="5.14" height="4.45" transform="translate(-7.18 11.63) rotate(-90)"/><path class="cls-3" d="M.3,2H3.15a1,1,0,0,1,1,1V5.48a1,1,0,0,1-1,1H.3a0,0,0,0,1,0,0V2A0,0,0,0,1,.3,2Z" transform="translate(-2.04 6.48) rotate(-90)"/><rect class="cls-2" x="4.83" y="7.61" width="8.25" height="4.45" transform="translate(-0.88 18.79) rotate(-90)"/><path class="cls-3" d="M6.42.31h4.07a1,1,0,0,1,1,1V3.76a1,1,0,0,1-1,1H6.42a0,0,0,0,1,0,0V.31A0,0,0,0,1,6.42.31Z" transform="translate(6.42 11.49) rotate(-90)"/><path class="cls-1" d="M8.23,14.09h2.45a0,0,0,0,1,0,0v4.45a0,0,0,0,1,0,0H8.23a1,1,0,0,1-1-1V15.09A1,1,0,0,1,8.23,14.09Z" transform="translate(-7.36 25.27) rotate(-90)"/><rect class="cls-2" x="14.73" y="5.07" width="1.9" height="4.45" transform="translate(8.39 22.98) rotate(-90)"/><path class="cls-3" d="M14.84,2.64h.69a1,1,0,0,1,1,1V6.09a1,1,0,0,1-1,1h-.69a0,0,0,0,1,0,0V2.64A0,0,0,0,1,14.84,2.64Z" transform="translate(10.82 20.54) rotate(-90)"/><path class="cls-1" d="M12.1,11.24h8.16a0,0,0,0,1,0,0v4.45a0,0,0,0,1,0,0H12.1a1,1,0,0,1-1-1V12.24A1,1,0,0,1,12.1,11.24Z" transform="translate(2.22 29.14) rotate(-90)"/></g></g></svg>