<svg xmlns="http://www.w3.org/2000/svg" viewBox="0 0 17.88 18.12"><defs><style>.cls-1{fill:#556aa5;}.cls-2{fill:#7693e5;}.cls-3{fill:#91cddb;}</style></defs><title>자산 17</title><g id="레이어_2" data-name="레이어 2"><g id="레이어_1-2" data-name="레이어 1"><path class="cls-1" d="M.54,13.21H4.91a0,0,0,0,1,0,0v4.45a0,0,0,0,1,0,0H.54a1,1,0,0,1-1-1V14.21A1,1,0,0,1,.54,13.21Z" transform="translate(-13.21 17.65) rotate(-90)"/><rect class="cls-2" x="0.63" y="8.29" width="3.19" height="4.45" transform="translate(-8.29 12.74) rotate(-90)"/><path class="cls-3" d="M-1.92,1.92H5.37a1,1,0,0,1,1,1V5.37a1,1,0,0,1-1,1H-1.92a0,0,0,0,1,0,0V1.92A0,0,0,0,1-1.92,1.92Z" transform="translate(-1.92 6.37) rotate(-90)"/><rect class="cls-2" x="5.75" y="7.97" width="6.37" height="4.45" transform="translate(-1.26 19.13) rotate(-90)"/><path class="cls-3" d="M5.75,1h5.37a1,1,0,0,1,1,1V4.41a1,1,0,0,1-1,1H5.75a0,0,0,0,1,0,0V1A0,0,0,0,1,5.75,1Z" transform="translate(5.75 12.12) rotate(-90)"/><path class="cls-1" d="M7.89,13.84H11a0,0,0,0,1,0,0v4.45a0,0,0,0,1,0,0H7.89a1,1,0,0,1-1-1V14.84A1,1,0,0,1,7.89,13.84Z" transform="translate(-7.13 25) rotate(-90)"/><rect class="cls-2" x="13.74" y="2.24" width="3.82" height="4.45" transform="translate(11.19 20.11) rotate(-90)"/><path class="cls-3" d="M14.7-1.27h.91a1,1,0,0,1,1,1V2.18a1,1,0,0,1-1,1H14.7a0,0,0,0,1,0,0V-1.27A0,0,0,0,1,14.7-1.27Z" transform="translate(14.7 16.61) rotate(-90)"/><path class="cls-1" d="M11.1,10.34H21.21a0,0,0,0,1,0,0v4.45a0,0,0,0,1,0,0H11.1a1,1,0,0,1-1-1V11.34A1,1,0,0,1,11.1,10.34Z" transform="translate(3.09 28.21) rotate(-90)"/></g></g></svg>