<svg xmlns="http://www.w3.org/2000/svg" viewBox="0 0 18.46 18.46"><defs><style>.cls-1{fill:#556aa5;}.cls-2{fill:#fff;}</style></defs><title>widget-icon-zoom</title><g id="레이어_2" data-name="레이어 2"><g id="레이어_1-2" data-name="레이어 1"><path class="cls-1" d="M17.5,18.46a1,1,0,0,1-.68-.28l-8-8a1,1,0,0,1,1.36-1.36l8,8a1,1,0,0,1-.68,1.64Z"/><circle class="cls-1" cx="7.67" cy="7.67" r="7.67"/><path class="cls-2" d="M11.51,8.44H3.83a.77.77,0,1,1,0-1.54h7.67a.77.77,0,1,1,0,1.54Z"/><path class="cls-2" d="M7.67,12.27a.77.77,0,0,1-.77-.77V3.83a.77.77,0,0,1,1.54,0v7.67A.77.77,0,0,1,7.67,12.27Z"/></g></g></svg>