<?xml version="1.0" encoding="utf-8"?>
<!-- Generator: Adobe Illustrator 21.1.0, SVG Export Plug-In . SVG Version: 6.00 Build 0)  -->
<svg version="1.1" id="레이어_1" xmlns="http://www.w3.org/2000/svg" xmlns:xlink="http://www.w3.org/1999/xlink" x="0px"
	 y="0px" viewBox="0 0 29 29" style="enable-background:new 0 0 29 29;" xml:space="preserve">
<style type="text/css">
	.st0{fill:#7693E5;}
	.st1{fill:#556AA5;}
</style>
<title>대지 3</title>
<path class="st0" d="M20.1,4.7H8.3c-0.8,0-1.4-0.6-1.4-1.4s0.6-1.4,1.4-1.4h11.9c0.8,0,1.4,0.6,1.4,1.4v0
	C21.6,4.1,20.9,4.8,20.1,4.7C20.1,4.7,20.1,4.7,20.1,4.7z"/>
<path class="st0" d="M20.1,27.3H8.3c-0.8,0-1.4-0.6-1.4-1.4c0-0.8,0.6-1.4,1.4-1.4c0,0,0,0,0,0h11.9c0.8,0,1.4,0.6,1.4,1.4
	c0,0,0,0,0,0C21.6,26.7,20.9,27.4,20.1,27.3C20.1,27.3,20.1,27.3,20.1,27.3z"/>
<path class="st0" d="M14.3,27.1c-0.8,0-1.4-0.6-1.4-1.4l0,0V4.1c0-0.8,0.6-1.4,1.4-1.4c0.8,0,1.4,0.6,1.4,1.4v21.6
	C15.7,26.4,15.1,27.1,14.3,27.1L14.3,27.1z"/>
<path class="st1" d="M21.2,21H7.4C6.7,21,6,20.5,5.9,19.7c0-0.1,0-0.2,0-0.3v-6.5c-0.1-0.8,0.5-1.4,1.2-1.5c0.1,0,0.2,0,0.3,0h13.8
	c0.8-0.1,1.4,0.5,1.5,1.2c0,0.1,0,0.2,0,0.3v6.6C22.7,20.3,22,21,21.2,21z"/>
</svg>
