<svg xmlns="http://www.w3.org/2000/svg" viewBox="0 0 17.57 19.09"><defs><style>.cls-1{fill:#7693e5;}.cls-2{fill:#556aa5;}</style></defs><title>widget-icon-select</title><g id="레이어_2" data-name="레이어 2"><g id="레이어_1-2" data-name="레이어 1"><path class="cls-1" d="M14.32,14.16,16.21,18a.23.23,0,0,1-.1.31l-1.54.75a.23.23,0,0,1-.31-.1l-1.91-3.9A.23.23,0,0,0,12,15l-2,1.77a.23.23,0,0,1-.38-.17V7.65a.23.23,0,0,1,.37-.18L17.15,13a.23.23,0,0,1-.1.41l-2.56.43A.23.23,0,0,0,14.32,14.16Z"/><rect class="cls-2" x="15.97" y="4.79" width="1.6" height="3.19" rx="0.23" ry="0.23"/><path class="cls-2" d="M16,10.08l1.6,1.23V9.81a.23.23,0,0,0-.23-.23H16Z"/><path class="cls-2" d="M8,17.08V16H5a.23.23,0,0,0-.23.23v1.14a.23.23,0,0,0,.23.23H8Z"/><path class="cls-2" d="M1.37,14.37H.23A.23.23,0,0,0,0,14.6v2.74a.23.23,0,0,0,.23.23H3a.23.23,0,0,0,.23-.23V16.2A.23.23,0,0,0,3,16H1.83a.23.23,0,0,1-.23-.23V14.6A.23.23,0,0,0,1.37,14.37Z"/><path class="cls-2" d="M.23,3.19H1.37A.23.23,0,0,0,1.6,3V1.83a.23.23,0,0,1,.23-.23H3a.23.23,0,0,0,.23-.23V.23A.23.23,0,0,0,3,0H.23A.23.23,0,0,0,0,.23V3A.23.23,0,0,0,.23,3.19Z"/><rect class="cls-2" y="9.58" width="1.6" height="3.19" rx="0.23" ry="0.23"/><rect class="cls-2" x="4.79" width="3.19" height="1.6" rx="0.23" ry="0.23"/><rect class="cls-2" x="9.58" width="3.19" height="1.6" rx="0.23" ry="0.23"/><path class="cls-2" d="M16.2,3.19h1.14A.23.23,0,0,0,17.57,3V.23A.23.23,0,0,0,17.34,0H14.6a.23.23,0,0,0-.23.23V1.37a.23.23,0,0,0,.23.23h1.14a.23.23,0,0,1,.23.23V3A.23.23,0,0,0,16.2,3.19Z"/><rect class="cls-2" y="4.79" width="1.6" height="3.19" rx="0.23" ry="0.23"/></g></g></svg>