<?xml version="1.0" encoding="utf-8"?>
<!-- Generator: Adobe Illustrator 21.1.0, SVG Export Plug-In . SVG Version: 6.00 Build 0)  -->
<svg version="1.1" id="레이어_1" xmlns="http://www.w3.org/2000/svg" xmlns:xlink="http://www.w3.org/1999/xlink" x="0px"
	 y="0px" viewBox="0 0 29 29" style="enable-background:new 0 0 29 29;" xml:space="preserve">
<style type="text/css">
	.st0{fill:#7693E5;}
	.st1{fill:#556AA5;}
</style>
<title>대지 3 사본</title>
<g id="레이어_2">
	<g id="레이어_1-2">
		<path class="st0" d="M3.7,23.2c-0.1,0-0.2,0-0.3,0c-0.4-0.1-0.5-0.5-0.4-0.9l0,0L9.4,6.6c0.2-0.4,0.6-0.5,1-0.3
			c0.1,0.1,0.3,0.2,0.3,0.3l7.4,14.3l6.4-14.3c0.2-0.4,0.6-0.5,1-0.4c0.4,0.2,0.5,0.6,0.4,1l0,0l-7,15.6c-0.1,0.3-0.4,0.4-0.6,0.4
			c-0.3,0-0.5-0.2-0.7-0.4L10.2,8.6L4.4,22.8C4.3,23,4,23.2,3.7,23.2z"/>
		<path class="st0" d="M3.7,23.8c-0.2,0-0.3,0-0.4-0.1c-0.6-0.2-0.8-0.9-0.6-1.4L9,6.5c0.2-0.4,0.6-0.7,1-0.7c0.4,0,0.9,0.2,1.1,0.6
			l7,13.4l6-13.4c0.3-0.6,0.9-0.8,1.5-0.6l0,0c0.6,0.3,0.8,0.9,0.6,1.5l0,0l-7,15.6c-0.2,0.4-0.6,0.7-1,0.7c-0.4,0-0.8-0.2-1-0.6
			l-7-13.4L4.7,22.9C4.6,23.4,4.2,23.7,3.7,23.8z M10.1,7.7l7.8,15c0.1,0.1,0.2,0.2,0.3,0.2c0.1,0,0.2-0.1,0.3-0.2l7-15.6
			c0.1-0.1,0.1-0.3,0-0.4h-0.1c-0.2-0.1-0.4,0-0.4,0.2l-6.7,15l-7.9-15c0-0.1-0.1-0.1-0.2-0.2c-0.1,0-0.2,0.1-0.3,0.2L3.4,22.3
			c-0.1,0.2,0,0.3,0.2,0.4c0,0,0,0,0,0c0.2,0.1,0.3,0,0.4-0.2L10.1,7.7z"/>
		<circle class="st1" cx="25.2" cy="7.1" r="3.4"/>
		<circle class="st1" cx="18.2" cy="22.1" r="3.4"/>
		<circle class="st1" cx="10.1" cy="7.1" r="3.4"/>
		<circle class="st1" cx="3.7" cy="22.1" r="3.4"/>
	</g>
</g>
</svg>
